<svg
  width="1148"
  height="690"
  viewBox="0 0 1148 690"
  fill="none"
  xmlns="http://www.w3.org/2000/svg"
>
  <rect
    x="360.5"
    y="256.5"
    width="427"
    height="125"
    rx="10.5"
    fill="url(#paint0_linear_5853_3713)"
  />
  <rect x="360.5" y="256.5" width="427" height="125" rx="10.5" stroke="#A7D5CA" stroke-width="3" />
  <path
    d="M476.285 318.256H483.701V320.704H476.285V328H473.429V310.84H485.429V313.264H476.285V318.256ZM491.573 326.296C493.661 326.296 494.501 325 494.717 324.256H497.237C496.613 326.584 494.789 328.36 491.645 328.36C487.829 328.36 485.501 325.72 485.501 321.88C485.501 317.896 487.829 315.4 491.525 315.4C495.485 315.4 497.429 318.16 497.429 322.528H488.021C488.021 324.592 489.341 326.296 491.573 326.296ZM491.525 317.392C489.485 317.392 488.021 318.76 488.021 320.656H494.909C494.909 318.76 493.565 317.392 491.525 317.392ZM507.773 310.84H510.293V328H507.773V326.584H507.725C507.077 327.424 505.877 328.36 503.981 328.36C500.837 328.36 498.509 325.912 498.509 321.88C498.509 317.848 500.837 315.4 503.981 315.4C505.877 315.4 507.077 316.288 507.725 317.224H507.773V310.84ZM504.413 326.296C506.477 326.296 507.749 324.592 507.749 321.88C507.749 319.144 506.477 317.464 504.413 317.464C502.205 317.464 501.029 319.48 501.029 321.88C501.029 324.28 502.205 326.296 504.413 326.296ZM518.128 326.296C520.216 326.296 521.056 325 521.272 324.256H523.792C523.168 326.584 521.344 328.36 518.2 328.36C514.384 328.36 512.056 325.72 512.056 321.88C512.056 317.896 514.384 315.4 518.08 315.4C522.04 315.4 523.984 318.16 523.984 322.528H514.576C514.576 324.592 515.896 326.296 518.128 326.296ZM518.08 317.392C516.04 317.392 514.576 318.76 514.576 320.656H521.464C521.464 318.76 520.12 317.392 518.08 317.392ZM531.544 315.448C531.976 315.448 532.288 315.472 532.648 315.52V317.896H532.6C530.176 317.488 528.232 319.12 528.232 321.736V328H525.712V315.736H528.232V318.04H528.28C528.928 316.504 529.936 315.448 531.544 315.448ZM541.261 318.952C541.261 318.064 540.733 317.392 539.053 317.392C537.037 317.392 536.293 318.016 536.173 319.6H533.725C533.845 317.248 535.357 315.4 539.053 315.4C541.765 315.4 543.781 316.432 543.781 319.696V325.528C543.781 326.392 543.973 326.848 544.957 326.752V327.952C544.381 328.168 543.973 328.216 543.493 328.216C542.149 328.216 541.525 327.736 541.285 326.536H541.237C540.469 327.616 539.077 328.36 537.181 328.36C534.685 328.36 533.149 326.92 533.149 324.856C533.149 322.168 535.141 321.328 538.213 320.728C540.109 320.368 541.261 320.128 541.261 318.952ZM537.733 326.368C539.821 326.368 541.261 325.336 541.261 323.344V321.496C540.853 321.784 539.869 322.072 538.693 322.312C536.605 322.768 535.693 323.368 535.693 324.616C535.693 325.744 536.365 326.368 537.733 326.368ZM552.052 317.8H549.748V324.448C549.748 325.84 550.42 326.008 552.052 325.912V327.976C551.548 328.096 550.996 328.168 550.324 328.168C548.308 328.168 547.204 327.256 547.204 324.664V317.8H545.428V315.736H547.204V311.872H549.748V315.736H552.052V317.8ZM559.19 326.296C561.278 326.296 562.118 325 562.334 324.256H564.854C564.23 326.584 562.406 328.36 559.262 328.36C555.446 328.36 553.118 325.72 553.118 321.88C553.118 317.896 555.446 315.4 559.142 315.4C563.102 315.4 565.046 318.16 565.046 322.528H555.638C555.638 324.592 556.958 326.296 559.19 326.296ZM559.142 317.392C557.102 317.392 555.638 318.76 555.638 320.656H562.526C562.526 318.76 561.182 317.392 559.142 317.392ZM575.39 310.84H577.91V328H575.39V326.584H575.342C574.694 327.424 573.494 328.36 571.598 328.36C568.454 328.36 566.126 325.912 566.126 321.88C566.126 317.848 568.454 315.4 571.598 315.4C573.494 315.4 574.694 316.288 575.342 317.224H575.39V310.84ZM572.03 326.296C574.094 326.296 575.366 324.592 575.366 321.88C575.366 319.144 574.094 317.464 572.03 317.464C569.822 317.464 568.646 319.48 568.646 321.88C568.646 324.28 569.822 326.296 572.03 326.296ZM597.107 316.192C596.675 314.152 595.091 312.928 592.547 312.928C588.875 312.928 587.363 316.192 587.363 319.408C587.363 322.648 588.539 325.912 592.451 325.912C595.163 325.912 597.323 324.04 597.347 321.304H592.499V319H600.251V328H598.283L597.659 325.648H597.611C596.459 327.376 594.851 328.36 592.259 328.36C587.291 328.36 584.507 324.592 584.507 319.408C584.507 314.248 587.627 310.48 592.571 310.48C597.035 310.48 599.435 312.904 599.963 316.192H597.107ZM610.073 318.952C610.073 318.064 609.545 317.392 607.865 317.392C605.849 317.392 605.105 318.016 604.985 319.6H602.537C602.657 317.248 604.169 315.4 607.865 315.4C610.577 315.4 612.593 316.432 612.593 319.696V325.528C612.593 326.392 612.785 326.848 613.769 326.752V327.952C613.193 328.168 612.785 328.216 612.305 328.216C610.961 328.216 610.337 327.736 610.097 326.536H610.049C609.281 327.616 607.889 328.36 605.993 328.36C603.497 328.36 601.961 326.92 601.961 324.856C601.961 322.168 603.953 321.328 607.025 320.728C608.921 320.368 610.073 320.128 610.073 318.952ZM606.545 326.368C608.633 326.368 610.073 325.336 610.073 323.344V321.496C609.665 321.784 608.681 322.072 607.505 322.312C605.417 322.768 604.505 323.368 604.505 324.616C604.505 325.744 605.177 326.368 606.545 326.368ZM620.865 317.8H618.561V324.448C618.561 325.84 619.233 326.008 620.865 325.912V327.976C620.361 328.096 619.809 328.168 619.137 328.168C617.121 328.168 616.017 327.256 616.017 324.664V317.8H614.241V315.736H616.017V311.872H618.561V315.736H620.865V317.8ZM628.003 326.296C630.091 326.296 630.931 325 631.147 324.256H633.667C633.043 326.584 631.219 328.36 628.075 328.36C624.259 328.36 621.931 325.72 621.931 321.88C621.931 317.896 624.259 315.4 627.955 315.4C631.915 315.4 633.859 318.16 633.859 322.528H624.451C624.451 324.592 625.771 326.296 628.003 326.296ZM627.955 317.392C625.915 317.392 624.451 318.76 624.451 320.656H631.339C631.339 318.76 629.995 317.392 627.955 317.392ZM634.153 315.736H636.817L639.313 325.048H639.361L641.857 315.736H644.329L646.849 325.048H646.897L649.369 315.736H652.033L648.289 328H645.745L643.105 318.64H643.057L640.441 328H637.921L634.153 315.736ZM660.323 318.952C660.323 318.064 659.795 317.392 658.115 317.392C656.099 317.392 655.355 318.016 655.235 319.6H652.787C652.907 317.248 654.419 315.4 658.115 315.4C660.827 315.4 662.843 316.432 662.843 319.696V325.528C662.843 326.392 663.035 326.848 664.019 326.752V327.952C663.443 328.168 663.035 328.216 662.555 328.216C661.211 328.216 660.587 327.736 660.347 326.536H660.299C659.531 327.616 658.139 328.36 656.243 328.36C653.747 328.36 652.211 326.92 652.211 324.856C652.211 322.168 654.203 321.328 657.275 320.728C659.171 320.368 660.323 320.128 660.323 318.952ZM656.795 326.368C658.883 326.368 660.323 325.336 660.323 323.344V321.496C659.915 321.784 658.931 322.072 657.755 322.312C655.667 322.768 654.755 323.368 654.755 324.616C654.755 325.744 655.427 326.368 656.795 326.368ZM676.012 315.736L671.116 328.768C670.42 330.664 669.628 332.176 667.276 332.176C666.556 332.176 665.956 332.056 665.476 331.936V330.016H665.692C666.748 330.16 667.54 330.088 668.092 329.416C668.548 328.864 668.884 327.904 668.428 326.752L663.988 315.736H666.7L670.132 325.12H670.18L673.324 315.736H676.012Z"
    fill="#ECF6F3"
  />
  <rect x="16" width="270" height="80" rx="12" fill="url(#paint1_linear_5853_3713)" />
  <path
    d="M91.9759 47V32.7H98.0759C101.016 32.7 102.916 34.2 102.916 36.8C102.916 38.8 101.896 39.96 100.256 40.36V40.4C103.556 41.02 102.356 46.62 103.116 46.86V47H100.616C99.9559 46.4 101.296 41.48 97.8559 41.48H94.3559V47H91.9759ZM94.3559 34.72V39.44H97.5759C99.0359 39.44 100.556 39.16 100.556 37.08C100.556 35.02 99.0359 34.72 97.5759 34.72H94.3559ZM109.069 45.58C110.809 45.58 111.509 44.5 111.689 43.88H113.789C113.269 45.82 111.749 47.3 109.129 47.3C105.949 47.3 104.009 45.1 104.009 41.9C104.009 38.58 105.949 36.5 109.029 36.5C112.329 36.5 113.949 38.8 113.949 42.44H106.109C106.109 44.16 107.209 45.58 109.069 45.58ZM109.029 38.16C107.329 38.16 106.109 39.3 106.109 40.88H111.849C111.849 39.3 110.729 38.16 109.029 38.16ZM120.689 36.5C123.289 36.5 125.229 38.54 125.229 41.9C125.229 45.26 123.289 47.3 120.689 47.3C119.089 47.3 118.089 46.54 117.549 45.78H117.509V50.48H115.389V36.78H117.509V37.98H117.549C118.089 37.26 119.089 36.5 120.689 36.5ZM120.289 45.58C122.129 45.58 123.109 43.9 123.109 41.9C123.109 39.9 122.129 38.22 120.289 38.22C118.589 38.22 117.529 39.62 117.529 41.9C117.529 44.16 118.589 45.58 120.289 45.58ZM131.356 47.3C128.156 47.3 126.216 45.08 126.216 41.9C126.216 38.72 128.156 36.5 131.356 36.5C134.556 36.5 136.496 38.72 136.496 41.9C136.496 45.08 134.556 47.3 131.356 47.3ZM131.356 45.58C133.356 45.58 134.396 44 134.396 41.9C134.396 39.78 133.356 38.22 131.356 38.22C129.356 38.22 128.316 39.78 128.316 41.9C128.316 44 129.356 45.58 131.356 45.58ZM142.807 36.54C143.167 36.54 143.427 36.56 143.727 36.6V38.58H143.687C141.667 38.24 140.047 39.6 140.047 41.78V47H137.947V36.78H140.047V38.7H140.087C140.627 37.42 141.467 36.54 142.807 36.54ZM150.015 38.5H148.095V44.04C148.095 45.2 148.655 45.34 150.015 45.26V46.98C149.595 47.08 149.135 47.14 148.575 47.14C146.895 47.14 145.975 46.38 145.975 44.22V38.5H144.495V36.78H145.975V33.56H148.095V36.78H150.015V38.5ZM152.721 35.06C152.141 35.06 151.541 34.66 151.541 33.94C151.541 33.22 152.141 32.84 152.721 32.84C153.341 32.84 153.921 33.22 153.921 33.94C153.921 34.66 153.341 35.06 152.721 35.06ZM151.681 36.78H153.781V47H151.681V36.78ZM161.416 36.5C163.316 36.5 164.816 37.6 164.816 39.94V47H162.696V40.54C162.696 39.16 162.116 38.28 160.676 38.28C159.056 38.28 158.016 39.26 158.016 40.78V47H155.916V36.78H158.016V38.1H158.056C158.596 37.3 159.656 36.5 161.416 36.5ZM173.816 36.78H175.916V46.3C175.916 49.24 174.136 50.54 171.236 50.54C168.296 50.54 166.676 49 166.456 47.28H168.576C168.776 48.18 169.496 48.86 171.156 48.86C172.916 48.86 173.816 48.06 173.816 46.22V44.98H173.776C173.236 45.74 172.296 46.5 170.676 46.5C168.116 46.5 166.196 44.72 166.196 41.5C166.196 38.26 168.116 36.5 170.676 36.5C172.296 36.5 173.236 37.26 173.776 37.98H173.816V36.78ZM171.076 44.78C172.776 44.78 173.796 43.66 173.796 41.5C173.796 39.34 172.776 38.22 171.076 38.22C169.236 38.22 168.296 39.6 168.296 41.5C168.296 43.38 169.236 44.78 171.076 44.78ZM190.257 43.62H184.417L183.257 47H180.837L186.097 32.7H188.597L193.837 47H191.417L190.257 43.62ZM185.077 41.64H189.617L187.377 34.88H187.337L185.077 41.64ZM195.199 47V32.7H201.279C204.019 32.7 205.999 33.98 205.999 36.98C205.999 39.98 204.019 41.28 201.279 41.28H197.579V47H195.199ZM197.579 34.72V39.24H201.179C202.779 39.24 203.619 38.56 203.619 36.98C203.619 35.42 202.779 34.72 201.179 34.72H197.579ZM207.621 32.7H210.001V47H207.621V32.7Z"
    fill="#CAE4DE"
  />
  <rect x="298" width="270" height="80" rx="12" fill="url(#paint2_linear_5853_3713)" />
  <path
    d="M322.589 47V34.72H318.009V32.7H329.529V34.72H324.969V47H322.589ZM334.809 39.46C334.809 38.72 334.369 38.16 332.969 38.16C331.289 38.16 330.669 38.68 330.569 40H328.529C328.629 38.04 329.889 36.5 332.969 36.5C335.229 36.5 336.909 37.36 336.909 40.08V44.94C336.909 45.66 337.069 46.04 337.889 45.96V46.96C337.409 47.14 337.069 47.18 336.669 47.18C335.549 47.18 335.029 46.78 334.829 45.78H334.789C334.149 46.68 332.989 47.3 331.409 47.3C329.329 47.3 328.049 46.1 328.049 44.38C328.049 42.14 329.709 41.44 332.269 40.94C333.849 40.64 334.809 40.44 334.809 39.46ZM331.869 45.64C333.609 45.64 334.809 44.78 334.809 43.12V41.58C334.469 41.82 333.649 42.06 332.669 42.26C330.929 42.64 330.169 43.14 330.169 44.18C330.169 45.12 330.729 45.64 331.869 45.64ZM339.117 32.7H341.217V40.88L345.377 36.78H347.957L344.077 40.58L348.377 47H345.857L342.637 41.96L341.217 43.3V47H339.117V32.7ZM353.208 45.58C354.948 45.58 355.648 44.5 355.828 43.88H357.928C357.408 45.82 355.888 47.3 353.268 47.3C350.088 47.3 348.148 45.1 348.148 41.9C348.148 38.58 350.088 36.5 353.168 36.5C356.468 36.5 358.088 38.8 358.088 42.44H350.248C350.248 44.16 351.348 45.58 353.208 45.58ZM353.168 38.16C351.468 38.16 350.248 39.3 350.248 40.88H355.988C355.988 39.3 354.868 38.16 353.168 38.16ZM364.127 47.3C360.927 47.3 358.987 45.08 358.987 41.9C358.987 38.72 360.927 36.5 364.127 36.5C367.327 36.5 369.267 38.72 369.267 41.9C369.267 45.08 367.327 47.3 364.127 47.3ZM364.127 45.58C366.127 45.58 367.167 44 367.167 41.9C367.167 39.78 366.127 38.22 364.127 38.22C362.127 38.22 361.087 39.78 361.087 41.9C361.087 44 362.127 45.58 364.127 45.58ZM377.439 36.78H379.539V47H377.439V45.68H377.399C376.859 46.48 375.799 47.28 374.039 47.28C372.139 47.28 370.639 46.18 370.639 43.84V36.78H372.759V43.24C372.759 44.62 373.339 45.5 374.779 45.5C376.399 45.5 377.439 44.52 377.439 43V36.78ZM386.419 38.5H384.499V44.04C384.499 45.2 385.059 45.34 386.419 45.26V46.98C385.999 47.08 385.539 47.14 384.979 47.14C383.299 47.14 382.379 46.38 382.379 44.22V38.5H380.899V36.78H382.379V33.56H384.499V36.78H386.419V38.5ZM403.294 47H400.714L399.754 45.84C398.774 46.72 397.494 47.3 395.914 47.3C392.994 47.3 391.434 45.66 391.434 43.48C391.434 41.36 392.934 40.22 394.434 39.34C393.434 38.12 392.754 37.16 392.754 35.82C392.754 34.14 393.954 32.42 396.414 32.4C398.714 32.38 400.074 34.14 400.074 35.82C400.074 37.44 398.994 38.44 397.114 39.52L399.734 42.68C400.114 41.88 400.374 41 400.514 40.12H402.494C402.314 41.48 401.854 43 401.054 44.28L403.294 47ZM396.414 34.38C395.374 34.38 394.794 35.1 394.794 35.96C394.794 36.76 395.374 37.48 396.134 38.36C397.314 37.64 398.034 37 398.034 35.96C398.034 35.1 397.474 34.38 396.414 34.38ZM396.054 45.32C397.054 45.32 397.874 44.94 398.534 44.34L395.394 40.5C394.194 41.3 393.594 42.2 393.594 43.28C393.594 44.36 394.434 45.32 396.054 45.32ZM408.224 47V32.7H413.784C417.724 32.7 420.144 35.26 420.144 39.86C420.144 44.46 417.804 47 413.844 47H408.224ZM410.604 34.72V44.98H413.664C416.864 44.98 417.764 42.6 417.764 39.86C417.764 37.12 416.864 34.72 413.664 34.72H410.604ZM426.352 45.58C428.092 45.58 428.792 44.5 428.972 43.88H431.072C430.552 45.82 429.032 47.3 426.412 47.3C423.232 47.3 421.292 45.1 421.292 41.9C421.292 38.58 423.232 36.5 426.312 36.5C429.612 36.5 431.232 38.8 431.232 42.44H423.392C423.392 44.16 424.492 45.58 426.352 45.58ZM426.312 38.16C424.612 38.16 423.392 39.3 423.392 40.88H429.132C429.132 39.3 428.012 38.16 426.312 38.16ZM432.712 32.7H434.832V47H432.712V32.7ZM437.895 35.06C437.315 35.06 436.715 34.66 436.715 33.94C436.715 33.22 437.315 32.84 437.895 32.84C438.515 32.84 439.095 33.22 439.095 33.94C439.095 34.66 438.515 35.06 437.895 35.06ZM436.855 36.78H438.955V47H436.855V36.78ZM440.09 36.78H442.31L444.89 44.78H444.91L447.49 36.78H449.71L446.09 47H443.71L440.09 36.78ZM454.985 45.58C456.725 45.58 457.425 44.5 457.605 43.88H459.705C459.185 45.82 457.665 47.3 455.045 47.3C451.865 47.3 449.925 45.1 449.925 41.9C449.925 38.58 451.865 36.5 454.945 36.5C458.245 36.5 459.865 38.8 459.865 42.44H452.025C452.025 44.16 453.125 45.58 454.985 45.58ZM454.945 38.16C453.245 38.16 452.025 39.3 452.025 40.88H457.765C457.765 39.3 456.645 38.16 454.945 38.16ZM466.165 36.54C466.525 36.54 466.785 36.56 467.085 36.6V38.58H467.045C465.025 38.24 463.405 39.6 463.405 41.78V47H461.305V36.78H463.405V38.7H463.445C463.985 37.42 464.825 36.54 466.165 36.54ZM477.512 36.78L473.432 47.64C472.852 49.22 472.192 50.48 470.232 50.48C469.632 50.48 469.132 50.38 468.732 50.28V48.68H468.912C469.792 48.8 470.452 48.74 470.912 48.18C471.292 47.72 471.572 46.92 471.192 45.96L467.492 36.78H469.752L472.612 44.6H472.652L475.272 36.78H477.512ZM482.56 47V32.7H488.12C492.06 32.7 494.48 35.26 494.48 39.86C494.48 44.46 492.14 47 488.18 47H482.56ZM484.94 34.72V44.98H488C491.2 44.98 492.1 42.6 492.1 39.86C492.1 37.12 491.2 34.72 488 34.72H484.94ZM500.768 47.3C497.568 47.3 495.628 45.08 495.628 41.9C495.628 38.72 497.568 36.5 500.768 36.5C503.968 36.5 505.908 38.72 505.908 41.9C505.908 45.08 503.968 47.3 500.768 47.3ZM500.768 45.58C502.768 45.58 503.808 44 503.808 41.9C503.808 39.78 502.768 38.22 500.768 38.22C498.768 38.22 497.728 39.78 497.728 41.9C497.728 44 498.768 45.58 500.768 45.58ZM518.639 36.5C520.699 36.5 521.759 37.74 521.759 39.94V47H519.639V40.54C519.639 39.16 519.359 38.28 517.919 38.28C516.499 38.28 515.619 39.26 515.619 40.78V47H513.499V40.54C513.499 39.16 513.219 38.28 511.759 38.28C510.359 38.28 509.459 39.26 509.459 40.78V47H507.359V36.78H509.459V38.1H509.499C510.039 37.3 510.999 36.5 512.539 36.5C513.979 36.5 514.839 37.16 515.259 38.26H515.299C516.059 37.28 517.059 36.5 518.639 36.5ZM529.887 39.46C529.887 38.72 529.447 38.16 528.047 38.16C526.367 38.16 525.747 38.68 525.647 40H523.607C523.707 38.04 524.967 36.5 528.047 36.5C530.307 36.5 531.987 37.36 531.987 40.08V44.94C531.987 45.66 532.147 46.04 532.967 45.96V46.96C532.487 47.14 532.147 47.18 531.747 47.18C530.627 47.18 530.107 46.78 529.907 45.78H529.867C529.227 46.68 528.067 47.3 526.487 47.3C524.407 47.3 523.127 46.1 523.127 44.38C523.127 42.14 524.787 41.44 527.347 40.94C528.927 40.64 529.887 40.44 529.887 39.46ZM526.947 45.64C528.687 45.64 529.887 44.78 529.887 43.12V41.58C529.547 41.82 528.727 42.06 527.747 42.26C526.007 42.64 525.247 43.14 525.247 44.18C525.247 45.12 525.807 45.64 526.947 45.64ZM535.375 35.06C534.795 35.06 534.195 34.66 534.195 33.94C534.195 33.22 534.795 32.84 535.375 32.84C535.995 32.84 536.575 33.22 536.575 33.94C536.575 34.66 535.995 35.06 535.375 35.06ZM534.335 36.78H536.435V47H534.335V36.78ZM544.07 36.5C545.97 36.5 547.47 37.6 547.47 39.94V47H545.35V40.54C545.35 39.16 544.77 38.28 543.33 38.28C541.71 38.28 540.67 39.26 540.67 40.78V47H538.57V36.78H540.67V38.1H540.71C541.25 37.3 542.31 36.5 544.07 36.5Z"
    fill="#CAE4DE"
  />
  <rect x="580" width="270" height="80" rx="12" fill="url(#paint3_linear_5853_3713)" />
  <path
    d="M686.699 47V32.7H689.779L693.779 43.7H693.819L697.799 32.7H700.879V47H698.559V36.16H698.519L694.739 47H692.839L689.059 36.16H689.019V47H686.699ZM707.815 45.58C709.555 45.58 710.255 44.5 710.435 43.88H712.535C712.015 45.82 710.495 47.3 707.875 47.3C704.695 47.3 702.755 45.1 702.755 41.9C702.755 38.58 704.695 36.5 707.775 36.5C711.075 36.5 712.695 38.8 712.695 42.44H704.855C704.855 44.16 705.955 45.58 707.815 45.58ZM707.775 38.16C706.075 38.16 704.855 39.3 704.855 40.88H710.595C710.595 39.3 709.475 38.16 707.775 38.16ZM719.635 36.5C721.535 36.5 723.035 37.6 723.035 39.94V47H720.915V40.54C720.915 39.16 720.335 38.28 718.895 38.28C717.275 38.28 716.235 39.26 716.235 40.78V47H714.135V36.78H716.235V38.1H716.275C716.815 37.3 717.875 36.5 719.635 36.5ZM731.675 36.78H733.775V47H731.675V45.68H731.635C731.095 46.48 730.035 47.28 728.275 47.28C726.375 47.28 724.875 46.18 724.875 43.84V36.78H726.995V43.24C726.995 44.62 727.575 45.5 729.015 45.5C730.635 45.5 731.675 44.52 731.675 43V36.78ZM740.195 40.82C742.075 41.26 744.115 41.68 744.115 44.12C744.115 46.08 742.435 47.3 739.955 47.3C736.655 47.3 735.235 45.76 735.135 43.6H737.175C737.275 44.7 737.755 45.64 739.915 45.64C741.375 45.64 741.995 44.92 741.995 44.28C741.995 43 740.775 42.9 739.275 42.54C737.655 42.16 735.455 41.84 735.455 39.52C735.455 37.84 736.935 36.5 739.495 36.5C742.275 36.5 743.595 38 743.735 39.78H741.695C741.555 38.98 741.155 38.16 739.515 38.16C738.255 38.16 737.575 38.64 737.575 39.36C737.575 40.4 738.715 40.48 740.195 40.82Z"
    fill="#CAE4DE"
  />
  <rect x="862" width="270" height="80" rx="12" fill="url(#paint4_linear_5853_3713)" />
  <path
    d="M957.723 32.7H960.103V47H957.723V32.7ZM967.846 36.5C969.746 36.5 971.246 37.6 971.246 39.94V47H969.126V40.54C969.126 39.16 968.546 38.28 967.106 38.28C965.486 38.28 964.446 39.26 964.446 40.78V47H962.346V36.78H964.446V38.1H964.486C965.026 37.3 966.086 36.5 967.846 36.5ZM971.971 36.78H974.191L976.771 44.78H976.791L979.371 36.78H981.591L977.971 47H975.591L971.971 36.78ZM986.866 45.58C988.606 45.58 989.306 44.5 989.486 43.88H991.586C991.066 45.82 989.546 47.3 986.926 47.3C983.746 47.3 981.806 45.1 981.806 41.9C981.806 38.58 983.746 36.5 986.826 36.5C990.126 36.5 991.746 38.8 991.746 42.44H983.906C983.906 44.16 985.006 45.58 986.866 45.58ZM986.826 38.16C985.126 38.16 983.906 39.3 983.906 40.88H989.646C989.646 39.3 988.526 38.16 986.826 38.16ZM998.686 36.5C1000.59 36.5 1002.09 37.6 1002.09 39.94V47H999.966V40.54C999.966 39.16 999.386 38.28 997.946 38.28C996.326 38.28 995.286 39.26 995.286 40.78V47H993.186V36.78H995.286V38.1H995.326C995.866 37.3 996.926 36.5 998.686 36.5ZM1008.69 38.5H1006.77V44.04C1006.77 45.2 1007.33 45.34 1008.69 45.26V46.98C1008.27 47.08 1007.81 47.14 1007.25 47.14C1005.57 47.14 1004.65 46.38 1004.65 44.22V38.5H1003.17V36.78H1004.65V33.56H1006.77V36.78H1008.69V38.5ZM1014.72 47.3C1011.52 47.3 1009.58 45.08 1009.58 41.9C1009.58 38.72 1011.52 36.5 1014.72 36.5C1017.92 36.5 1019.86 38.72 1019.86 41.9C1019.86 45.08 1017.92 47.3 1014.72 47.3ZM1014.72 45.58C1016.72 45.58 1017.76 44 1017.76 41.9C1017.76 39.78 1016.72 38.22 1014.72 38.22C1012.72 38.22 1011.68 39.78 1011.68 41.9C1011.68 44 1012.72 45.58 1014.72 45.58ZM1026.17 36.54C1026.53 36.54 1026.79 36.56 1027.09 36.6V38.58H1027.05C1025.03 38.24 1023.41 39.6 1023.41 41.78V47H1021.31V36.78H1023.41V38.7H1023.45C1023.99 37.42 1024.83 36.54 1026.17 36.54ZM1037.52 36.78L1033.44 47.64C1032.86 49.22 1032.2 50.48 1030.24 50.48C1029.64 50.48 1029.14 50.38 1028.74 50.28V48.68H1028.92C1029.8 48.8 1030.46 48.74 1030.92 48.18C1031.3 47.72 1031.58 46.92 1031.2 45.96L1027.5 36.78H1029.76L1032.62 44.6H1032.66L1035.28 36.78H1037.52Z"
    fill="#CAE4DE"
  />
  <rect x="1" y="531" width="1146" height="158" rx="15" stroke="#3B736A" stroke-width="2" />
  <path
    d="M525.39 571V556.264H519.894V553.84H533.718V556.264H528.246V571H525.39ZM538.204 571.36C534.364 571.36 532.036 568.696 532.036 564.88C532.036 561.064 534.364 558.4 538.204 558.4C542.044 558.4 544.372 561.064 544.372 564.88C544.372 568.696 542.044 571.36 538.204 571.36ZM538.204 569.296C540.604 569.296 541.852 567.4 541.852 564.88C541.852 562.336 540.604 560.464 538.204 560.464C535.804 560.464 534.556 562.336 534.556 564.88C534.556 567.4 535.804 569.296 538.204 569.296ZM553.53 561.952C553.53 561.064 553.002 560.392 551.322 560.392C549.306 560.392 548.562 561.016 548.442 562.6H545.994C546.114 560.248 547.626 558.4 551.322 558.4C554.034 558.4 556.05 559.432 556.05 562.696V568.528C556.05 569.392 556.242 569.848 557.226 569.752V570.952C556.65 571.168 556.242 571.216 555.762 571.216C554.418 571.216 553.794 570.736 553.554 569.536H553.506C552.738 570.616 551.346 571.36 549.45 571.36C546.954 571.36 545.418 569.92 545.418 567.856C545.418 565.168 547.41 564.328 550.482 563.728C552.378 563.368 553.53 563.128 553.53 561.952ZM550.002 569.368C552.09 569.368 553.53 568.336 553.53 566.344V564.496C553.122 564.784 552.138 565.072 550.962 565.312C548.874 565.768 547.962 566.368 547.962 567.616C547.962 568.744 548.634 569.368 550.002 569.368ZM564.004 563.584C566.26 564.112 568.708 564.616 568.708 567.544C568.708 569.896 566.692 571.36 563.716 571.36C559.756 571.36 558.052 569.512 557.932 566.92H560.38C560.5 568.24 561.076 569.368 563.668 569.368C565.42 569.368 566.164 568.504 566.164 567.736C566.164 566.2 564.7 566.08 562.9 565.648C560.956 565.192 558.316 564.808 558.316 562.024C558.316 560.008 560.092 558.4 563.164 558.4C566.5 558.4 568.084 560.2 568.252 562.336H565.804C565.636 561.376 565.156 560.392 563.188 560.392C561.676 560.392 560.86 560.968 560.86 561.832C560.86 563.08 562.228 563.176 564.004 563.584ZM575.97 560.8H573.666V567.448C573.666 568.84 574.338 569.008 575.97 568.912V570.976C575.466 571.096 574.914 571.168 574.242 571.168C572.226 571.168 571.122 570.256 571.122 567.664V560.8H569.346V558.736H571.122V554.872H573.666V558.736H575.97V560.8ZM581.412 553.84H584.34L587.268 567.136H587.316L590.772 553.84H593.7L597.18 567.136H597.228L600.156 553.84H603.084L598.788 571H595.788L592.26 557.56H592.212L588.708 571H585.684L581.412 553.84ZM608.655 569.296C610.743 569.296 611.583 568 611.799 567.256H614.319C613.695 569.584 611.871 571.36 608.727 571.36C604.911 571.36 602.583 568.72 602.583 564.88C602.583 560.896 604.911 558.4 608.607 558.4C612.567 558.4 614.511 561.16 614.511 565.528H605.103C605.103 567.592 606.423 569.296 608.655 569.296ZM608.607 560.392C606.567 560.392 605.103 561.76 605.103 563.656H611.991C611.991 561.76 610.647 560.392 608.607 560.392ZM622.551 558.4C625.695 558.4 628.023 560.848 628.023 564.88C628.023 568.912 625.695 571.36 622.551 571.36C620.655 571.36 619.455 570.424 618.807 569.584H618.759V571H616.239V553.84H618.759V560.224H618.807C619.455 559.288 620.655 558.4 622.551 558.4ZM622.119 569.296C624.327 569.296 625.503 567.28 625.503 564.88C625.503 562.48 624.327 560.464 622.119 560.464C620.055 560.464 618.783 562.144 618.783 564.88C618.783 567.592 620.055 569.296 622.119 569.296Z"
    fill="#ECF6F3"
  />
  <rect x="16" y="594" width="270" height="80" rx="12" fill="url(#paint5_linear_5853_3713)" />
  <path
    d="M104.017 626.7H106.397V632.62H113.157V626.7H115.537V641H113.157V634.66H106.397V641H104.017V626.7ZM122.557 641.3C119.357 641.3 117.417 639.08 117.417 635.9C117.417 632.72 119.357 630.5 122.557 630.5C125.757 630.5 127.697 632.72 127.697 635.9C127.697 639.08 125.757 641.3 122.557 641.3ZM122.557 639.58C124.557 639.58 125.597 638 125.597 635.9C125.597 633.78 124.557 632.22 122.557 632.22C120.557 632.22 119.517 633.78 119.517 635.9C119.517 638 120.557 639.58 122.557 639.58ZM140.428 630.5C142.488 630.5 143.548 631.74 143.548 633.94V641H141.428V634.54C141.428 633.16 141.148 632.28 139.708 632.28C138.288 632.28 137.408 633.26 137.408 634.78V641H135.288V634.54C135.288 633.16 135.008 632.28 133.548 632.28C132.148 632.28 131.248 633.26 131.248 634.78V641H129.148V630.78H131.248V632.1H131.288C131.828 631.3 132.788 630.5 134.328 630.5C135.768 630.5 136.628 631.16 137.048 632.26H137.088C137.848 631.28 138.848 630.5 140.428 630.5ZM150.016 639.58C151.756 639.58 152.456 638.5 152.636 637.88H154.736C154.216 639.82 152.696 641.3 150.076 641.3C146.896 641.3 144.956 639.1 144.956 635.9C144.956 632.58 146.896 630.5 149.976 630.5C153.276 630.5 154.896 632.8 154.896 636.44H147.056C147.056 638.16 148.156 639.58 150.016 639.58ZM149.976 632.16C148.276 632.16 147.056 633.3 147.056 634.88H152.796C152.796 633.3 151.676 632.16 149.976 632.16ZM161.636 630.5C164.236 630.5 166.176 632.54 166.176 635.9C166.176 639.26 164.236 641.3 161.636 641.3C160.036 641.3 159.036 640.54 158.496 639.78H158.456V644.48H156.336V630.78H158.456V631.98H158.496C159.036 631.26 160.036 630.5 161.636 630.5ZM161.236 639.58C163.076 639.58 164.056 637.9 164.056 635.9C164.056 633.9 163.076 632.22 161.236 632.22C159.536 632.22 158.476 633.62 158.476 635.9C158.476 638.16 159.536 639.58 161.236 639.58ZM173.883 633.46C173.883 632.72 173.443 632.16 172.043 632.16C170.363 632.16 169.743 632.68 169.643 634H167.603C167.703 632.04 168.963 630.5 172.043 630.5C174.303 630.5 175.983 631.36 175.983 634.08V638.94C175.983 639.66 176.143 640.04 176.963 639.96V640.96C176.483 641.14 176.143 641.18 175.743 641.18C174.623 641.18 174.103 640.78 173.903 639.78H173.863C173.223 640.68 172.063 641.3 170.483 641.3C168.403 641.3 167.123 640.1 167.123 638.38C167.123 636.14 168.783 635.44 171.343 634.94C172.923 634.64 173.883 634.44 173.883 633.46ZM170.943 639.64C172.683 639.64 173.883 638.78 173.883 637.12V635.58C173.543 635.82 172.723 636.06 171.743 636.26C170.003 636.64 169.243 637.14 169.243 638.18C169.243 639.12 169.803 639.64 170.943 639.64ZM185.271 630.78H187.371V640.3C187.371 643.24 185.591 644.54 182.691 644.54C179.751 644.54 178.131 643 177.911 641.28H180.031C180.231 642.18 180.951 642.86 182.611 642.86C184.371 642.86 185.271 642.06 185.271 640.22V638.98H185.231C184.691 639.74 183.751 640.5 182.131 640.5C179.571 640.5 177.651 638.72 177.651 635.5C177.651 632.26 179.571 630.5 182.131 630.5C183.751 630.5 184.691 631.26 185.231 631.98H185.271V630.78ZM182.531 638.78C184.231 638.78 185.251 637.66 185.251 635.5C185.251 633.34 184.231 632.22 182.531 632.22C180.691 632.22 179.751 633.6 179.751 635.5C179.751 637.38 180.691 638.78 182.531 638.78ZM193.883 639.58C195.623 639.58 196.323 638.5 196.503 637.88H198.603C198.083 639.82 196.563 641.3 193.943 641.3C190.763 641.3 188.823 639.1 188.823 635.9C188.823 632.58 190.763 630.5 193.843 630.5C197.143 630.5 198.763 632.8 198.763 636.44H190.923C190.923 638.16 192.023 639.58 193.883 639.58ZM193.843 632.16C192.143 632.16 190.923 633.3 190.923 634.88H196.663C196.663 633.3 195.543 632.16 193.843 632.16Z"
    fill="#CAE4DE"
  />
  <rect x="298" y="594" width="270" height="80" rx="12" fill="url(#paint6_linear_5853_3713)" />
  <path
    d="M345.695 641V626.7H351.775C354.515 626.7 356.495 627.98 356.495 630.98C356.495 633.98 354.515 635.28 351.775 635.28H348.075V641H345.695ZM348.075 628.72V633.24H351.675C353.275 633.24 354.115 632.56 354.115 630.98C354.115 629.42 353.275 628.72 351.675 628.72H348.075ZM362.045 639.58C363.785 639.58 364.485 638.5 364.665 637.88H366.765C366.245 639.82 364.725 641.3 362.105 641.3C358.925 641.3 356.985 639.1 356.985 635.9C356.985 632.58 358.925 630.5 362.005 630.5C365.305 630.5 366.925 632.8 366.925 636.44H359.085C359.085 638.16 360.185 639.58 362.045 639.58ZM362.005 632.16C360.305 632.16 359.085 633.3 359.085 634.88H364.825C364.825 633.3 363.705 632.16 362.005 632.16ZM373.225 630.54C373.585 630.54 373.845 630.56 374.145 630.6V632.58H374.105C372.085 632.24 370.465 633.6 370.465 635.78V641H368.365V630.78H370.465V632.7H370.505C371.045 631.42 371.885 630.54 373.225 630.54ZM380.373 628.42C379.013 628.36 378.493 628.5 378.493 629.66V630.78H380.373V632.5H378.493V641H376.373V632.5H374.913V630.78H376.373V629.48C376.373 627.32 377.293 626.56 378.973 626.56C379.493 626.56 379.953 626.62 380.373 626.7V628.42ZM386.071 641.3C382.871 641.3 380.931 639.08 380.931 635.9C380.931 632.72 382.871 630.5 386.071 630.5C389.271 630.5 391.211 632.72 391.211 635.9C391.211 639.08 389.271 641.3 386.071 641.3ZM386.071 639.58C388.071 639.58 389.111 638 389.111 635.9C389.111 633.78 388.071 632.22 386.071 632.22C384.071 632.22 383.031 633.78 383.031 635.9C383.031 638 384.071 639.58 386.071 639.58ZM397.522 630.54C397.882 630.54 398.142 630.56 398.442 630.6V632.58H398.402C396.382 632.24 394.762 633.6 394.762 635.78V641H392.662V630.78H394.762V632.7H394.802C395.342 631.42 396.182 630.54 397.522 630.54ZM411.071 630.5C413.131 630.5 414.191 631.74 414.191 633.94V641H412.071V634.54C412.071 633.16 411.791 632.28 410.351 632.28C408.931 632.28 408.051 633.26 408.051 634.78V641H405.931V634.54C405.931 633.16 405.651 632.28 404.191 632.28C402.791 632.28 401.891 633.26 401.891 634.78V641H399.791V630.78H401.891V632.1H401.931C402.471 631.3 403.431 630.5 404.971 630.5C406.411 630.5 407.271 631.16 407.691 632.26H407.731C408.491 631.28 409.491 630.5 411.071 630.5ZM422.319 633.46C422.319 632.72 421.879 632.16 420.479 632.16C418.799 632.16 418.179 632.68 418.079 634H416.039C416.139 632.04 417.399 630.5 420.479 630.5C422.739 630.5 424.419 631.36 424.419 634.08V638.94C424.419 639.66 424.579 640.04 425.399 639.96V640.96C424.919 641.14 424.579 641.18 424.179 641.18C423.059 641.18 422.539 640.78 422.339 639.78H422.299C421.659 640.68 420.499 641.3 418.919 641.3C416.839 641.3 415.559 640.1 415.559 638.38C415.559 636.14 417.219 635.44 419.779 634.94C421.359 634.64 422.319 634.44 422.319 633.46ZM419.379 639.64C421.119 639.64 422.319 638.78 422.319 637.12V635.58C421.979 635.82 421.159 636.06 420.179 636.26C418.439 636.64 417.679 637.14 417.679 638.18C417.679 639.12 418.239 639.64 419.379 639.64ZM432.127 630.5C434.027 630.5 435.527 631.6 435.527 633.94V641H433.407V634.54C433.407 633.16 432.827 632.28 431.387 632.28C429.767 632.28 428.727 633.26 428.727 634.78V641H426.627V630.78H428.727V632.1H428.767C429.307 631.3 430.367 630.5 432.127 630.5ZM444.487 634.52C444.407 633.48 443.747 632.22 441.947 632.22C439.887 632.22 439.007 633.98 439.007 635.9C439.007 637.82 439.867 639.58 441.947 639.58C443.747 639.58 444.407 638.34 444.487 637.2H446.587C446.427 639.56 444.607 641.3 441.947 641.3C438.887 641.3 436.907 639.1 436.907 635.9C436.907 632.7 438.887 630.5 441.927 630.5C444.587 630.5 446.327 632.2 446.587 634.52H444.487ZM452.495 639.58C454.235 639.58 454.935 638.5 455.115 637.88H457.215C456.695 639.82 455.175 641.3 452.555 641.3C449.375 641.3 447.435 639.1 447.435 635.9C447.435 632.58 449.375 630.5 452.455 630.5C455.755 630.5 457.375 632.8 457.375 636.44H449.535C449.535 638.16 450.635 639.58 452.495 639.58ZM452.455 632.16C450.755 632.16 449.535 633.3 449.535 634.88H455.275C455.275 633.3 454.155 632.16 452.455 632.16ZM472.803 631.62C472.543 630.18 471.603 628.44 468.963 628.44C465.883 628.44 464.663 631.02 464.663 633.84C464.663 636.68 465.883 639.26 468.963 639.26C471.623 639.26 472.643 637.52 472.803 635.78H475.183C474.863 639 472.663 641.3 469.023 641.3C464.903 641.3 462.303 638.16 462.303 633.84C462.303 629.54 464.903 626.4 469.023 626.4C472.643 626.4 474.843 628.7 475.183 631.62H472.803ZM481.303 639.58C483.043 639.58 483.743 638.5 483.923 637.88H486.023C485.503 639.82 483.983 641.3 481.363 641.3C478.183 641.3 476.243 639.1 476.243 635.9C476.243 632.58 478.183 630.5 481.263 630.5C484.563 630.5 486.183 632.8 486.183 636.44H478.343C478.343 638.16 479.443 639.58 481.303 639.58ZM481.263 632.16C479.563 632.16 478.343 633.3 478.343 634.88H484.083C484.083 633.3 482.963 632.16 481.263 632.16ZM493.123 630.5C495.023 630.5 496.523 631.6 496.523 633.94V641H494.403V634.54C494.403 633.16 493.823 632.28 492.383 632.28C490.763 632.28 489.723 633.26 489.723 634.78V641H487.623V630.78H489.723V632.1H489.763C490.303 631.3 491.363 630.5 493.123 630.5ZM503.128 632.5H501.208V638.04C501.208 639.2 501.768 639.34 503.128 639.26V640.98C502.708 641.08 502.248 641.14 501.688 641.14C500.008 641.14 499.088 640.38 499.088 638.22V632.5H497.608V630.78H499.088V627.56H501.208V630.78H503.128V632.5ZM509.077 639.58C510.817 639.58 511.517 638.5 511.697 637.88H513.797C513.277 639.82 511.757 641.3 509.137 641.3C505.957 641.3 504.017 639.1 504.017 635.9C504.017 632.58 505.957 630.5 509.037 630.5C512.337 630.5 513.957 632.8 513.957 636.44H506.117C506.117 638.16 507.217 639.58 509.077 639.58ZM509.037 632.16C507.337 632.16 506.117 633.3 506.117 634.88H511.857C511.857 633.3 510.737 632.16 509.037 632.16ZM520.256 630.54C520.616 630.54 520.876 630.56 521.176 630.6V632.58H521.136C519.116 632.24 517.496 633.6 517.496 635.78V641H515.396V630.78H517.496V632.7H517.536C518.076 631.42 518.916 630.54 520.256 630.54Z"
    fill="#CAE4DE"
  />
  <rect x="580" y="594" width="270" height="80" rx="12" fill="url(#paint7_linear_5853_3713)" />
  <path
    d="M612.148 641V628.72H607.568V626.7H619.088V628.72H614.528V641H612.148ZM624.368 633.46C624.368 632.72 623.928 632.16 622.528 632.16C620.848 632.16 620.228 632.68 620.127 634H618.088C618.188 632.04 619.448 630.5 622.528 630.5C624.788 630.5 626.468 631.36 626.468 634.08V638.94C626.468 639.66 626.628 640.04 627.448 639.96V640.96C626.968 641.14 626.628 641.18 626.228 641.18C625.108 641.18 624.588 640.78 624.388 639.78H624.348C623.708 640.68 622.548 641.3 620.968 641.3C618.888 641.3 617.608 640.1 617.608 638.38C617.608 636.14 619.268 635.44 621.828 634.94C623.408 634.64 624.368 634.44 624.368 633.46ZM621.428 639.64C623.168 639.64 624.368 638.78 624.368 637.12V635.58C624.028 635.82 623.208 636.06 622.228 636.26C620.488 636.64 619.728 637.14 619.728 638.18C619.728 639.12 620.288 639.64 621.428 639.64ZM628.676 626.7H630.776V634.88L634.936 630.78H637.516L633.636 634.58L637.936 641H635.416L632.196 635.96L630.776 637.3V641H628.676V626.7ZM642.766 639.58C644.506 639.58 645.206 638.5 645.386 637.88H647.486C646.966 639.82 645.446 641.3 642.826 641.3C639.646 641.3 637.706 639.1 637.706 635.9C637.706 632.58 639.646 630.5 642.726 630.5C646.026 630.5 647.646 632.8 647.646 636.44H639.806C639.806 638.16 640.906 639.58 642.766 639.58ZM642.726 632.16C641.026 632.16 639.806 633.3 639.806 634.88H645.546C645.546 633.3 644.426 632.16 642.726 632.16ZM653.686 641.3C650.486 641.3 648.546 639.08 648.546 635.9C648.546 632.72 650.486 630.5 653.686 630.5C656.886 630.5 658.826 632.72 658.826 635.9C658.826 639.08 656.886 641.3 653.686 641.3ZM653.686 639.58C655.686 639.58 656.726 638 656.726 635.9C656.726 633.78 655.686 632.22 653.686 632.22C651.686 632.22 650.646 633.78 650.646 635.9C650.646 638 651.686 639.58 653.686 639.58ZM666.997 630.78H669.097V641H666.997V639.68H666.957C666.417 640.48 665.357 641.28 663.597 641.28C661.697 641.28 660.197 640.18 660.197 637.84V630.78H662.317V637.24C662.317 638.62 662.897 639.5 664.337 639.5C665.957 639.5 666.997 638.52 666.997 637V630.78ZM675.978 632.5H674.058V638.04C674.058 639.2 674.618 639.34 675.978 639.26V640.98C675.558 641.08 675.098 641.14 674.538 641.14C672.858 641.14 671.938 640.38 671.938 638.22V632.5H670.458V630.78H671.938V627.56H674.058V630.78H675.978V632.5ZM692.853 641H690.273L689.313 639.84C688.333 640.72 687.053 641.3 685.473 641.3C682.553 641.3 680.993 639.66 680.993 637.48C680.993 635.36 682.493 634.22 683.993 633.34C682.993 632.12 682.313 631.16 682.313 629.82C682.313 628.14 683.513 626.42 685.973 626.4C688.273 626.38 689.633 628.14 689.633 629.82C689.633 631.44 688.553 632.44 686.673 633.52L689.293 636.68C689.673 635.88 689.933 635 690.073 634.12H692.053C691.873 635.48 691.413 637 690.613 638.28L692.853 641ZM685.973 628.38C684.933 628.38 684.353 629.1 684.353 629.96C684.353 630.76 684.933 631.48 685.693 632.36C686.873 631.64 687.593 631 687.593 629.96C687.593 629.1 687.033 628.38 685.973 628.38ZM685.613 639.32C686.613 639.32 687.433 638.94 688.093 638.34L684.953 634.5C683.753 635.3 683.153 636.2 683.153 637.28C683.153 638.36 683.993 639.32 685.613 639.32ZM697.783 641V626.7H703.343C707.283 626.7 709.703 629.26 709.703 633.86C709.703 638.46 707.363 641 703.403 641H697.783ZM700.163 628.72V638.98H703.223C706.423 638.98 707.323 636.6 707.323 633.86C707.323 631.12 706.423 628.72 703.223 628.72H700.163ZM715.911 639.58C717.651 639.58 718.351 638.5 718.531 637.88H720.631C720.111 639.82 718.591 641.3 715.971 641.3C712.791 641.3 710.851 639.1 710.851 635.9C710.851 632.58 712.791 630.5 715.871 630.5C719.171 630.5 720.791 632.8 720.791 636.44H712.951C712.951 638.16 714.051 639.58 715.911 639.58ZM715.871 632.16C714.171 632.16 712.951 633.3 712.951 634.88H718.691C718.691 633.3 717.571 632.16 715.871 632.16ZM722.27 626.7H724.39V641H722.27V626.7ZM727.453 629.06C726.873 629.06 726.273 628.66 726.273 627.94C726.273 627.22 726.873 626.84 727.453 626.84C728.073 626.84 728.653 627.22 728.653 627.94C728.653 628.66 728.073 629.06 727.453 629.06ZM726.413 630.78H728.513V641H726.413V630.78ZM729.648 630.78H731.868L734.448 638.78H734.468L737.048 630.78H739.268L735.648 641H733.268L729.648 630.78ZM744.543 639.58C746.283 639.58 746.983 638.5 747.163 637.88H749.263C748.743 639.82 747.223 641.3 744.603 641.3C741.423 641.3 739.483 639.1 739.483 635.9C739.483 632.58 741.423 630.5 744.503 630.5C747.803 630.5 749.423 632.8 749.423 636.44H741.583C741.583 638.16 742.683 639.58 744.543 639.58ZM744.503 632.16C742.803 632.16 741.583 633.3 741.583 634.88H747.323C747.323 633.3 746.203 632.16 744.503 632.16ZM755.723 630.54C756.083 630.54 756.343 630.56 756.643 630.6V632.58H756.603C754.583 632.24 752.963 633.6 752.963 635.78V641H750.863V630.78H752.963V632.7H753.003C753.543 631.42 754.383 630.54 755.723 630.54ZM767.071 630.78L762.991 641.64C762.411 643.22 761.751 644.48 759.791 644.48C759.191 644.48 758.691 644.38 758.291 644.28V642.68H758.471C759.351 642.8 760.011 642.74 760.471 642.18C760.851 641.72 761.131 640.92 760.751 639.96L757.051 630.78H759.311L762.171 638.6H762.211L764.831 630.78H767.071ZM777.538 632.48C780.598 633.26 782.918 633.92 782.918 637.12C782.918 639.4 781.198 641.3 777.598 641.3C774.098 641.3 771.438 639.48 771.298 636.24H773.678C773.798 638.06 775.038 639.26 777.598 639.26C779.718 639.26 780.538 638.32 780.538 637.22C780.538 635.52 779.318 635.2 776.498 634.5C774.258 633.94 771.838 633.08 771.838 630.36C771.838 627.82 773.798 626.4 776.918 626.4C780.058 626.4 782.338 628.04 782.538 630.98H780.158C779.938 629.32 778.898 628.44 776.918 628.44C775.218 628.44 774.198 629.08 774.198 630.14C774.198 631.7 775.538 631.98 777.538 632.48ZM789.114 639.58C790.854 639.58 791.554 638.5 791.734 637.88H793.834C793.314 639.82 791.794 641.3 789.174 641.3C785.994 641.3 784.054 639.1 784.054 635.9C784.054 632.58 785.994 630.5 789.074 630.5C792.374 630.5 793.994 632.8 793.994 636.44H786.154C786.154 638.16 787.254 639.58 789.114 639.58ZM789.074 632.16C787.374 632.16 786.154 633.3 786.154 634.88H791.894C791.894 633.3 790.774 632.16 789.074 632.16ZM800.118 632.5H798.198V638.04C798.198 639.2 798.758 639.34 800.118 639.26V640.98C799.698 641.08 799.238 641.14 798.678 641.14C796.998 641.14 796.078 640.38 796.078 638.22V632.5H794.598V630.78H796.078V627.56H798.198V630.78H800.118V632.5ZM808.365 630.78H810.465V641H808.365V639.68H808.325C807.785 640.48 806.725 641.28 804.965 641.28C803.065 641.28 801.565 640.18 801.565 637.84V630.78H803.685V637.24C803.685 638.62 804.265 639.5 805.705 639.5C807.325 639.5 808.365 638.52 808.365 637V630.78ZM817.765 630.5C820.365 630.5 822.305 632.54 822.305 635.9C822.305 639.26 820.365 641.3 817.765 641.3C816.165 641.3 815.165 640.54 814.625 639.78H814.585V644.48H812.465V630.78H814.585V631.98H814.625C815.165 631.26 816.165 630.5 817.765 630.5ZM817.365 639.58C819.205 639.58 820.185 637.9 820.185 635.9C820.185 633.9 819.205 632.22 817.365 632.22C815.665 632.22 814.605 633.62 814.605 635.9C814.605 638.16 815.665 639.58 817.365 639.58Z"
    fill="#CAE4DE"
  />
  <rect x="862" y="594" width="270" height="80" rx="12" fill="url(#paint8_linear_5853_3713)" />
  <path
    d="M968.699 641V626.7H971.779L975.779 637.7H975.819L979.799 626.7H982.879V641H980.559V630.16H980.519L976.739 641H974.839L971.059 630.16H971.019V641H968.699ZM989.815 639.58C991.555 639.58 992.255 638.5 992.435 637.88H994.535C994.015 639.82 992.495 641.3 989.875 641.3C986.695 641.3 984.755 639.1 984.755 635.9C984.755 632.58 986.695 630.5 989.775 630.5C993.075 630.5 994.695 632.8 994.695 636.44H986.855C986.855 638.16 987.955 639.58 989.815 639.58ZM989.775 632.16C988.075 632.16 986.855 633.3 986.855 634.88H992.595C992.595 633.3 991.475 632.16 989.775 632.16ZM1001.63 630.5C1003.53 630.5 1005.03 631.6 1005.03 633.94V641H1002.91V634.54C1002.91 633.16 1002.33 632.28 1000.89 632.28C999.275 632.28 998.235 633.26 998.235 634.78V641H996.135V630.78H998.235V632.1H998.275C998.815 631.3 999.875 630.5 1001.63 630.5ZM1013.68 630.78H1015.78V641H1013.68V639.68H1013.64C1013.1 640.48 1012.04 641.28 1010.28 641.28C1008.38 641.28 1006.88 640.18 1006.88 637.84V630.78H1009V637.24C1009 638.62 1009.58 639.5 1011.02 639.5C1012.64 639.5 1013.68 638.52 1013.68 637V630.78ZM1022.2 634.82C1024.08 635.26 1026.12 635.68 1026.12 638.12C1026.12 640.08 1024.44 641.3 1021.96 641.3C1018.66 641.3 1017.24 639.76 1017.14 637.6H1019.18C1019.28 638.7 1019.76 639.64 1021.92 639.64C1023.38 639.64 1024 638.92 1024 638.28C1024 637 1022.78 636.9 1021.28 636.54C1019.66 636.16 1017.46 635.84 1017.46 633.52C1017.46 631.84 1018.94 630.5 1021.5 630.5C1024.28 630.5 1025.6 632 1025.74 633.78H1023.7C1023.56 632.98 1023.16 632.16 1021.52 632.16C1020.26 632.16 1019.58 632.64 1019.58 633.36C1019.58 634.4 1020.72 634.48 1022.2 634.82Z"
    fill="#CAE4DE"
  />
  <path
    d="M151 80V273C151 281.837 158.163 289 167 289H252.232H359"
    stroke="#A7D5CA"
    stroke-width="3"
  />
  <path
    d="M361 345H168C159.163 345 152 352.163 152 361V466.186V594"
    stroke="#A7D5CA"
    stroke-width="3"
  />
  <path
    d="M789 345H982C990.837 345 998 352.163 998 361V466.186V594"
    stroke="#A7D5CA"
    stroke-width="3"
  />
  <path
    d="M997 80V273C997 281.837 989.837 289 981 289H895.768H789"
    stroke="#A7D5CA"
    stroke-width="3"
  />
  <path d="M433 80V188.248V257" stroke="#A7D5CA" stroke-width="3" />
  <path d="M433 383V512.041V594" stroke="#A7D5CA" stroke-width="3" />
  <path d="M715 80V188.248V257" stroke="#A7D5CA" stroke-width="3" />
  <path d="M715 383V512.041V594" stroke="#A7D5CA" stroke-width="3" />
  <rect x="110.5" y="155.5" width="80" height="31" rx="15.5" fill="#00342C" />
  <rect x="110.5" y="155.5" width="80" height="31" rx="15.5" stroke="#A7D5CA" stroke-width="3" />
  <path
    d="M130.032 169.112C129.78 167.922 128.856 167.208 127.372 167.208C125.23 167.208 124.348 169.112 124.348 170.988C124.348 172.878 125.034 174.782 127.316 174.782C128.898 174.782 130.158 173.69 130.172 172.094H127.344V170.75H131.866V176H130.718L130.354 174.628H130.326C129.654 175.636 128.716 176.21 127.204 176.21C124.306 176.21 122.682 174.012 122.682 170.988C122.682 167.978 124.502 165.78 127.386 165.78C129.99 165.78 131.39 167.194 131.698 169.112H130.032ZM136.699 168.678C136.951 168.678 137.133 168.692 137.343 168.72V170.106H137.315C135.901 169.868 134.767 170.82 134.767 172.346V176H133.297V168.846H134.767V170.19H134.795C135.173 169.294 135.761 168.678 136.699 168.678ZM142.367 170.722C142.367 170.204 142.059 169.812 141.079 169.812C139.903 169.812 139.469 170.176 139.399 171.1H137.971C138.041 169.728 138.923 168.65 141.079 168.65C142.661 168.65 143.837 169.252 143.837 171.156V174.558C143.837 175.062 143.949 175.328 144.523 175.272V175.972C144.187 176.098 143.949 176.126 143.669 176.126C142.885 176.126 142.521 175.846 142.381 175.146H142.353C141.905 175.776 141.093 176.21 139.987 176.21C138.531 176.21 137.635 175.37 137.635 174.166C137.635 172.598 138.797 172.108 140.589 171.758C141.695 171.548 142.367 171.408 142.367 170.722ZM140.309 175.048C141.527 175.048 142.367 174.446 142.367 173.284V172.206C142.129 172.374 141.555 172.542 140.869 172.682C139.651 172.948 139.119 173.298 139.119 174.026C139.119 174.684 139.511 175.048 140.309 175.048ZM149.093 168.65C150.913 168.65 152.271 170.078 152.271 172.43C152.271 174.782 150.913 176.21 149.093 176.21C147.973 176.21 147.273 175.678 146.895 175.146H146.867V178.436H145.383V168.846H146.867V169.686H146.895C147.273 169.182 147.973 168.65 149.093 168.65ZM148.813 175.006C150.101 175.006 150.787 173.83 150.787 172.43C150.787 171.03 150.101 169.854 148.813 169.854C147.623 169.854 146.881 170.834 146.881 172.43C146.881 174.012 147.623 175.006 148.813 175.006ZM157.162 168.65C158.52 168.65 159.57 169.42 159.57 171.058V176H158.086V171.478C158.086 170.512 157.68 169.896 156.658 169.896C155.58 169.896 154.81 170.582 154.81 171.646V176H153.34V165.99H154.81V169.77H154.838C155.216 169.21 155.958 168.65 157.162 168.65ZM170.518 170.988C170.518 172.374 170.112 173.592 169.384 174.502L170.504 175.622L169.524 176.602L168.362 175.44C167.606 175.93 166.668 176.21 165.604 176.21C162.58 176.21 160.69 173.998 160.69 170.988C160.69 167.978 162.58 165.78 165.604 165.78C168.614 165.78 170.518 167.978 170.518 170.988ZM165.604 174.782C166.276 174.782 166.836 174.628 167.298 174.362L165.94 173.004L166.92 172.024L168.264 173.382C168.67 172.724 168.852 171.884 168.852 170.988C168.852 168.972 167.9 167.208 165.604 167.208C163.308 167.208 162.342 168.972 162.342 170.988C162.342 173.018 163.308 174.782 165.604 174.782ZM171.841 165.99H173.507V174.586H178.505V176H171.841V165.99Z"
    fill="#CAE4DE"
  />
  <rect x="110.5" y="441.5" width="80" height="31" rx="15.5" fill="#00342C" />
  <rect x="110.5" y="441.5" width="80" height="31" rx="15.5" stroke="#A7D5CA" stroke-width="3" />
  <path
    d="M130.032 455.112C129.78 453.922 128.856 453.208 127.372 453.208C125.23 453.208 124.348 455.112 124.348 456.988C124.348 458.878 125.034 460.782 127.316 460.782C128.898 460.782 130.158 459.69 130.172 458.094H127.344V456.75H131.866V462H130.718L130.354 460.628H130.326C129.654 461.636 128.716 462.21 127.204 462.21C124.306 462.21 122.682 460.012 122.682 456.988C122.682 453.978 124.502 451.78 127.386 451.78C129.99 451.78 131.39 453.194 131.698 455.112H130.032ZM136.699 454.678C136.951 454.678 137.133 454.692 137.343 454.72V456.106H137.315C135.901 455.868 134.767 456.82 134.767 458.346V462H133.297V454.846H134.767V456.19H134.795C135.173 455.294 135.761 454.678 136.699 454.678ZM142.367 456.722C142.367 456.204 142.059 455.812 141.079 455.812C139.903 455.812 139.469 456.176 139.399 457.1H137.971C138.041 455.728 138.923 454.65 141.079 454.65C142.661 454.65 143.837 455.252 143.837 457.156V460.558C143.837 461.062 143.949 461.328 144.523 461.272V461.972C144.187 462.098 143.949 462.126 143.669 462.126C142.885 462.126 142.521 461.846 142.381 461.146H142.353C141.905 461.776 141.093 462.21 139.987 462.21C138.531 462.21 137.635 461.37 137.635 460.166C137.635 458.598 138.797 458.108 140.589 457.758C141.695 457.548 142.367 457.408 142.367 456.722ZM140.309 461.048C141.527 461.048 142.367 460.446 142.367 459.284V458.206C142.129 458.374 141.555 458.542 140.869 458.682C139.651 458.948 139.119 459.298 139.119 460.026C139.119 460.684 139.511 461.048 140.309 461.048ZM149.093 454.65C150.913 454.65 152.271 456.078 152.271 458.43C152.271 460.782 150.913 462.21 149.093 462.21C147.973 462.21 147.273 461.678 146.895 461.146H146.867V464.436H145.383V454.846H146.867V455.686H146.895C147.273 455.182 147.973 454.65 149.093 454.65ZM148.813 461.006C150.101 461.006 150.787 459.83 150.787 458.43C150.787 457.03 150.101 455.854 148.813 455.854C147.623 455.854 146.881 456.834 146.881 458.43C146.881 460.012 147.623 461.006 148.813 461.006ZM157.162 454.65C158.52 454.65 159.57 455.42 159.57 457.058V462H158.086V457.478C158.086 456.512 157.68 455.896 156.658 455.896C155.58 455.896 154.81 456.582 154.81 457.646V462H153.34V451.99H154.81V455.77H154.838C155.216 455.21 155.958 454.65 157.162 454.65ZM170.518 456.988C170.518 458.374 170.112 459.592 169.384 460.502L170.504 461.622L169.524 462.602L168.362 461.44C167.606 461.93 166.668 462.21 165.604 462.21C162.58 462.21 160.69 459.998 160.69 456.988C160.69 453.978 162.58 451.78 165.604 451.78C168.614 451.78 170.518 453.978 170.518 456.988ZM165.604 460.782C166.276 460.782 166.836 460.628 167.298 460.362L165.94 459.004L166.92 458.024L168.264 459.382C168.67 458.724 168.852 457.884 168.852 456.988C168.852 454.972 167.9 453.208 165.604 453.208C163.308 453.208 162.342 454.972 162.342 456.988C162.342 459.018 163.308 460.782 165.604 460.782ZM171.841 451.99H173.507V460.586H178.505V462H171.841V451.99Z"
    fill="#CAE4DE"
  />
  <rect x="392.5" y="155.5" width="80" height="31" rx="15.5" fill="#00342C" />
  <rect x="392.5" y="155.5" width="80" height="31" rx="15.5" stroke="#A7D5CA" stroke-width="3" />
  <path
    d="M412.032 169.112C411.78 167.922 410.856 167.208 409.372 167.208C407.23 167.208 406.348 169.112 406.348 170.988C406.348 172.878 407.034 174.782 409.316 174.782C410.898 174.782 412.158 173.69 412.172 172.094H409.344V170.75H413.866V176H412.718L412.354 174.628H412.326C411.654 175.636 410.716 176.21 409.204 176.21C406.306 176.21 404.682 174.012 404.682 170.988C404.682 167.978 406.502 165.78 409.386 165.78C411.99 165.78 413.39 167.194 413.698 169.112H412.032ZM418.699 168.678C418.951 168.678 419.133 168.692 419.343 168.72V170.106H419.315C417.901 169.868 416.767 170.82 416.767 172.346V176H415.297V168.846H416.767V170.19H416.795C417.173 169.294 417.761 168.678 418.699 168.678ZM424.367 170.722C424.367 170.204 424.059 169.812 423.079 169.812C421.903 169.812 421.469 170.176 421.399 171.1H419.971C420.041 169.728 420.923 168.65 423.079 168.65C424.661 168.65 425.837 169.252 425.837 171.156V174.558C425.837 175.062 425.949 175.328 426.523 175.272V175.972C426.187 176.098 425.949 176.126 425.669 176.126C424.885 176.126 424.521 175.846 424.381 175.146H424.353C423.905 175.776 423.093 176.21 421.987 176.21C420.531 176.21 419.635 175.37 419.635 174.166C419.635 172.598 420.797 172.108 422.589 171.758C423.695 171.548 424.367 171.408 424.367 170.722ZM422.309 175.048C423.527 175.048 424.367 174.446 424.367 173.284V172.206C424.129 172.374 423.555 172.542 422.869 172.682C421.651 172.948 421.119 173.298 421.119 174.026C421.119 174.684 421.511 175.048 422.309 175.048ZM431.093 168.65C432.913 168.65 434.271 170.078 434.271 172.43C434.271 174.782 432.913 176.21 431.093 176.21C429.973 176.21 429.273 175.678 428.895 175.146H428.867V178.436H427.383V168.846H428.867V169.686H428.895C429.273 169.182 429.973 168.65 431.093 168.65ZM430.813 175.006C432.101 175.006 432.787 173.83 432.787 172.43C432.787 171.03 432.101 169.854 430.813 169.854C429.623 169.854 428.881 170.834 428.881 172.43C428.881 174.012 429.623 175.006 430.813 175.006ZM439.162 168.65C440.52 168.65 441.57 169.42 441.57 171.058V176H440.086V171.478C440.086 170.512 439.68 169.896 438.658 169.896C437.58 169.896 436.81 170.582 436.81 171.646V176H435.34V165.99H436.81V169.77H436.838C437.216 169.21 437.958 168.65 439.162 168.65ZM452.518 170.988C452.518 172.374 452.112 173.592 451.384 174.502L452.504 175.622L451.524 176.602L450.362 175.44C449.606 175.93 448.668 176.21 447.604 176.21C444.58 176.21 442.69 173.998 442.69 170.988C442.69 167.978 444.58 165.78 447.604 165.78C450.614 165.78 452.518 167.978 452.518 170.988ZM447.604 174.782C448.276 174.782 448.836 174.628 449.298 174.362L447.94 173.004L448.92 172.024L450.264 173.382C450.67 172.724 450.852 171.884 450.852 170.988C450.852 168.972 449.9 167.208 447.604 167.208C445.308 167.208 444.342 168.972 444.342 170.988C444.342 173.018 445.308 174.782 447.604 174.782ZM453.841 165.99H455.507V174.586H460.505V176H453.841V165.99Z"
    fill="#CAE4DE"
  />
  <rect x="392.5" y="441.5" width="80" height="31" rx="15.5" fill="#00342C" />
  <rect x="392.5" y="441.5" width="80" height="31" rx="15.5" stroke="#A7D5CA" stroke-width="3" />
  <path
    d="M412.032 455.112C411.78 453.922 410.856 453.208 409.372 453.208C407.23 453.208 406.348 455.112 406.348 456.988C406.348 458.878 407.034 460.782 409.316 460.782C410.898 460.782 412.158 459.69 412.172 458.094H409.344V456.75H413.866V462H412.718L412.354 460.628H412.326C411.654 461.636 410.716 462.21 409.204 462.21C406.306 462.21 404.682 460.012 404.682 456.988C404.682 453.978 406.502 451.78 409.386 451.78C411.99 451.78 413.39 453.194 413.698 455.112H412.032ZM418.699 454.678C418.951 454.678 419.133 454.692 419.343 454.72V456.106H419.315C417.901 455.868 416.767 456.82 416.767 458.346V462H415.297V454.846H416.767V456.19H416.795C417.173 455.294 417.761 454.678 418.699 454.678ZM424.367 456.722C424.367 456.204 424.059 455.812 423.079 455.812C421.903 455.812 421.469 456.176 421.399 457.1H419.971C420.041 455.728 420.923 454.65 423.079 454.65C424.661 454.65 425.837 455.252 425.837 457.156V460.558C425.837 461.062 425.949 461.328 426.523 461.272V461.972C426.187 462.098 425.949 462.126 425.669 462.126C424.885 462.126 424.521 461.846 424.381 461.146H424.353C423.905 461.776 423.093 462.21 421.987 462.21C420.531 462.21 419.635 461.37 419.635 460.166C419.635 458.598 420.797 458.108 422.589 457.758C423.695 457.548 424.367 457.408 424.367 456.722ZM422.309 461.048C423.527 461.048 424.367 460.446 424.367 459.284V458.206C424.129 458.374 423.555 458.542 422.869 458.682C421.651 458.948 421.119 459.298 421.119 460.026C421.119 460.684 421.511 461.048 422.309 461.048ZM431.093 454.65C432.913 454.65 434.271 456.078 434.271 458.43C434.271 460.782 432.913 462.21 431.093 462.21C429.973 462.21 429.273 461.678 428.895 461.146H428.867V464.436H427.383V454.846H428.867V455.686H428.895C429.273 455.182 429.973 454.65 431.093 454.65ZM430.813 461.006C432.101 461.006 432.787 459.83 432.787 458.43C432.787 457.03 432.101 455.854 430.813 455.854C429.623 455.854 428.881 456.834 428.881 458.43C428.881 460.012 429.623 461.006 430.813 461.006ZM439.162 454.65C440.52 454.65 441.57 455.42 441.57 457.058V462H440.086V457.478C440.086 456.512 439.68 455.896 438.658 455.896C437.58 455.896 436.81 456.582 436.81 457.646V462H435.34V451.99H436.81V455.77H436.838C437.216 455.21 437.958 454.65 439.162 454.65ZM452.518 456.988C452.518 458.374 452.112 459.592 451.384 460.502L452.504 461.622L451.524 462.602L450.362 461.44C449.606 461.93 448.668 462.21 447.604 462.21C444.58 462.21 442.69 459.998 442.69 456.988C442.69 453.978 444.58 451.78 447.604 451.78C450.614 451.78 452.518 453.978 452.518 456.988ZM447.604 460.782C448.276 460.782 448.836 460.628 449.298 460.362L447.94 459.004L448.92 458.024L450.264 459.382C450.67 458.724 450.852 457.884 450.852 456.988C450.852 454.972 449.9 453.208 447.604 453.208C445.308 453.208 444.342 454.972 444.342 456.988C444.342 459.018 445.308 460.782 447.604 460.782ZM453.841 451.99H455.507V460.586H460.505V462H453.841V451.99Z"
    fill="#CAE4DE"
  />
  <rect x="674.5" y="155.5" width="80" height="31" rx="15.5" fill="#00342C" />
  <rect x="674.5" y="155.5" width="80" height="31" rx="15.5" stroke="#A7D5CA" stroke-width="3" />
  <path
    d="M694.032 169.112C693.78 167.922 692.856 167.208 691.372 167.208C689.23 167.208 688.348 169.112 688.348 170.988C688.348 172.878 689.034 174.782 691.316 174.782C692.898 174.782 694.158 173.69 694.172 172.094H691.344V170.75H695.866V176H694.718L694.354 174.628H694.326C693.654 175.636 692.716 176.21 691.204 176.21C688.306 176.21 686.682 174.012 686.682 170.988C686.682 167.978 688.502 165.78 691.386 165.78C693.99 165.78 695.39 167.194 695.698 169.112H694.032ZM700.699 168.678C700.951 168.678 701.133 168.692 701.343 168.72V170.106H701.315C699.901 169.868 698.767 170.82 698.767 172.346V176H697.297V168.846H698.767V170.19H698.795C699.173 169.294 699.761 168.678 700.699 168.678ZM706.367 170.722C706.367 170.204 706.059 169.812 705.079 169.812C703.903 169.812 703.469 170.176 703.399 171.1H701.971C702.041 169.728 702.923 168.65 705.079 168.65C706.661 168.65 707.837 169.252 707.837 171.156V174.558C707.837 175.062 707.949 175.328 708.523 175.272V175.972C708.187 176.098 707.949 176.126 707.669 176.126C706.885 176.126 706.521 175.846 706.381 175.146H706.353C705.905 175.776 705.093 176.21 703.987 176.21C702.531 176.21 701.635 175.37 701.635 174.166C701.635 172.598 702.797 172.108 704.589 171.758C705.695 171.548 706.367 171.408 706.367 170.722ZM704.309 175.048C705.527 175.048 706.367 174.446 706.367 173.284V172.206C706.129 172.374 705.555 172.542 704.869 172.682C703.651 172.948 703.119 173.298 703.119 174.026C703.119 174.684 703.511 175.048 704.309 175.048ZM713.093 168.65C714.913 168.65 716.271 170.078 716.271 172.43C716.271 174.782 714.913 176.21 713.093 176.21C711.973 176.21 711.273 175.678 710.895 175.146H710.867V178.436H709.383V168.846H710.867V169.686H710.895C711.273 169.182 711.973 168.65 713.093 168.65ZM712.813 175.006C714.101 175.006 714.787 173.83 714.787 172.43C714.787 171.03 714.101 169.854 712.813 169.854C711.623 169.854 710.881 170.834 710.881 172.43C710.881 174.012 711.623 175.006 712.813 175.006ZM721.162 168.65C722.52 168.65 723.57 169.42 723.57 171.058V176H722.086V171.478C722.086 170.512 721.68 169.896 720.658 169.896C719.58 169.896 718.81 170.582 718.81 171.646V176H717.34V165.99H718.81V169.77H718.838C719.216 169.21 719.958 168.65 721.162 168.65ZM734.518 170.988C734.518 172.374 734.112 173.592 733.384 174.502L734.504 175.622L733.524 176.602L732.362 175.44C731.606 175.93 730.668 176.21 729.604 176.21C726.58 176.21 724.69 173.998 724.69 170.988C724.69 167.978 726.58 165.78 729.604 165.78C732.614 165.78 734.518 167.978 734.518 170.988ZM729.604 174.782C730.276 174.782 730.836 174.628 731.298 174.362L729.94 173.004L730.92 172.024L732.264 173.382C732.67 172.724 732.852 171.884 732.852 170.988C732.852 168.972 731.9 167.208 729.604 167.208C727.308 167.208 726.342 168.972 726.342 170.988C726.342 173.018 727.308 174.782 729.604 174.782ZM735.841 165.99H737.507V174.586H742.505V176H735.841V165.99Z"
    fill="#CAE4DE"
  />
  <rect x="674.5" y="441.5" width="80" height="31" rx="15.5" fill="#00342C" />
  <rect x="674.5" y="441.5" width="80" height="31" rx="15.5" stroke="#A7D5CA" stroke-width="3" />
  <path
    d="M694.032 455.112C693.78 453.922 692.856 453.208 691.372 453.208C689.23 453.208 688.348 455.112 688.348 456.988C688.348 458.878 689.034 460.782 691.316 460.782C692.898 460.782 694.158 459.69 694.172 458.094H691.344V456.75H695.866V462H694.718L694.354 460.628H694.326C693.654 461.636 692.716 462.21 691.204 462.21C688.306 462.21 686.682 460.012 686.682 456.988C686.682 453.978 688.502 451.78 691.386 451.78C693.99 451.78 695.39 453.194 695.698 455.112H694.032ZM700.699 454.678C700.951 454.678 701.133 454.692 701.343 454.72V456.106H701.315C699.901 455.868 698.767 456.82 698.767 458.346V462H697.297V454.846H698.767V456.19H698.795C699.173 455.294 699.761 454.678 700.699 454.678ZM706.367 456.722C706.367 456.204 706.059 455.812 705.079 455.812C703.903 455.812 703.469 456.176 703.399 457.1H701.971C702.041 455.728 702.923 454.65 705.079 454.65C706.661 454.65 707.837 455.252 707.837 457.156V460.558C707.837 461.062 707.949 461.328 708.523 461.272V461.972C708.187 462.098 707.949 462.126 707.669 462.126C706.885 462.126 706.521 461.846 706.381 461.146H706.353C705.905 461.776 705.093 462.21 703.987 462.21C702.531 462.21 701.635 461.37 701.635 460.166C701.635 458.598 702.797 458.108 704.589 457.758C705.695 457.548 706.367 457.408 706.367 456.722ZM704.309 461.048C705.527 461.048 706.367 460.446 706.367 459.284V458.206C706.129 458.374 705.555 458.542 704.869 458.682C703.651 458.948 703.119 459.298 703.119 460.026C703.119 460.684 703.511 461.048 704.309 461.048ZM713.093 454.65C714.913 454.65 716.271 456.078 716.271 458.43C716.271 460.782 714.913 462.21 713.093 462.21C711.973 462.21 711.273 461.678 710.895 461.146H710.867V464.436H709.383V454.846H710.867V455.686H710.895C711.273 455.182 711.973 454.65 713.093 454.65ZM712.813 461.006C714.101 461.006 714.787 459.83 714.787 458.43C714.787 457.03 714.101 455.854 712.813 455.854C711.623 455.854 710.881 456.834 710.881 458.43C710.881 460.012 711.623 461.006 712.813 461.006ZM721.162 454.65C722.52 454.65 723.57 455.42 723.57 457.058V462H722.086V457.478C722.086 456.512 721.68 455.896 720.658 455.896C719.58 455.896 718.81 456.582 718.81 457.646V462H717.34V451.99H718.81V455.77H718.838C719.216 455.21 719.958 454.65 721.162 454.65ZM734.518 456.988C734.518 458.374 734.112 459.592 733.384 460.502L734.504 461.622L733.524 462.602L732.362 461.44C731.606 461.93 730.668 462.21 729.604 462.21C726.58 462.21 724.69 459.998 724.69 456.988C724.69 453.978 726.58 451.78 729.604 451.78C732.614 451.78 734.518 453.978 734.518 456.988ZM729.604 460.782C730.276 460.782 730.836 460.628 731.298 460.362L729.94 459.004L730.92 458.024L732.264 459.382C732.67 458.724 732.852 457.884 732.852 456.988C732.852 454.972 731.9 453.208 729.604 453.208C727.308 453.208 726.342 454.972 726.342 456.988C726.342 459.018 727.308 460.782 729.604 460.782ZM735.841 451.99H737.507V460.586H742.505V462H735.841V451.99Z"
    fill="#CAE4DE"
  />
  <rect x="956.5" y="155.5" width="80" height="31" rx="15.5" fill="#00342C" />
  <rect x="956.5" y="155.5" width="80" height="31" rx="15.5" stroke="#A7D5CA" stroke-width="3" />
  <path
    d="M976.032 169.112C975.78 167.922 974.856 167.208 973.372 167.208C971.23 167.208 970.348 169.112 970.348 170.988C970.348 172.878 971.034 174.782 973.316 174.782C974.898 174.782 976.158 173.69 976.172 172.094H973.344V170.75H977.866V176H976.718L976.354 174.628H976.326C975.654 175.636 974.716 176.21 973.204 176.21C970.306 176.21 968.682 174.012 968.682 170.988C968.682 167.978 970.502 165.78 973.386 165.78C975.99 165.78 977.39 167.194 977.698 169.112H976.032ZM982.699 168.678C982.951 168.678 983.133 168.692 983.343 168.72V170.106H983.315C981.901 169.868 980.767 170.82 980.767 172.346V176H979.297V168.846H980.767V170.19H980.795C981.173 169.294 981.761 168.678 982.699 168.678ZM988.367 170.722C988.367 170.204 988.059 169.812 987.079 169.812C985.903 169.812 985.469 170.176 985.399 171.1H983.971C984.041 169.728 984.923 168.65 987.079 168.65C988.661 168.65 989.837 169.252 989.837 171.156V174.558C989.837 175.062 989.949 175.328 990.523 175.272V175.972C990.187 176.098 989.949 176.126 989.669 176.126C988.885 176.126 988.521 175.846 988.381 175.146H988.353C987.905 175.776 987.093 176.21 985.987 176.21C984.531 176.21 983.635 175.37 983.635 174.166C983.635 172.598 984.797 172.108 986.589 171.758C987.695 171.548 988.367 171.408 988.367 170.722ZM986.309 175.048C987.527 175.048 988.367 174.446 988.367 173.284V172.206C988.129 172.374 987.555 172.542 986.869 172.682C985.651 172.948 985.119 173.298 985.119 174.026C985.119 174.684 985.511 175.048 986.309 175.048ZM995.093 168.65C996.913 168.65 998.271 170.078 998.271 172.43C998.271 174.782 996.913 176.21 995.093 176.21C993.973 176.21 993.273 175.678 992.895 175.146H992.867V178.436H991.383V168.846H992.867V169.686H992.895C993.273 169.182 993.973 168.65 995.093 168.65ZM994.813 175.006C996.101 175.006 996.787 173.83 996.787 172.43C996.787 171.03 996.101 169.854 994.813 169.854C993.623 169.854 992.881 170.834 992.881 172.43C992.881 174.012 993.623 175.006 994.813 175.006ZM1003.16 168.65C1004.52 168.65 1005.57 169.42 1005.57 171.058V176H1004.09V171.478C1004.09 170.512 1003.68 169.896 1002.66 169.896C1001.58 169.896 1000.81 170.582 1000.81 171.646V176H999.34V165.99H1000.81V169.77H1000.84C1001.22 169.21 1001.96 168.65 1003.16 168.65ZM1016.52 170.988C1016.52 172.374 1016.11 173.592 1015.38 174.502L1016.5 175.622L1015.52 176.602L1014.36 175.44C1013.61 175.93 1012.67 176.21 1011.6 176.21C1008.58 176.21 1006.69 173.998 1006.69 170.988C1006.69 167.978 1008.58 165.78 1011.6 165.78C1014.61 165.78 1016.52 167.978 1016.52 170.988ZM1011.6 174.782C1012.28 174.782 1012.84 174.628 1013.3 174.362L1011.94 173.004L1012.92 172.024L1014.26 173.382C1014.67 172.724 1014.85 171.884 1014.85 170.988C1014.85 168.972 1013.9 167.208 1011.6 167.208C1009.31 167.208 1008.34 168.972 1008.34 170.988C1008.34 173.018 1009.31 174.782 1011.6 174.782ZM1017.84 165.99H1019.51V174.586H1024.51V176H1017.84V165.99Z"
    fill="#CAE4DE"
  />
  <rect x="956.5" y="441.5" width="80" height="31" rx="15.5" fill="#00342C" />
  <rect x="956.5" y="441.5" width="80" height="31" rx="15.5" stroke="#A7D5CA" stroke-width="3" />
  <path
    d="M976.032 455.112C975.78 453.922 974.856 453.208 973.372 453.208C971.23 453.208 970.348 455.112 970.348 456.988C970.348 458.878 971.034 460.782 973.316 460.782C974.898 460.782 976.158 459.69 976.172 458.094H973.344V456.75H977.866V462H976.718L976.354 460.628H976.326C975.654 461.636 974.716 462.21 973.204 462.21C970.306 462.21 968.682 460.012 968.682 456.988C968.682 453.978 970.502 451.78 973.386 451.78C975.99 451.78 977.39 453.194 977.698 455.112H976.032ZM982.699 454.678C982.951 454.678 983.133 454.692 983.343 454.72V456.106H983.315C981.901 455.868 980.767 456.82 980.767 458.346V462H979.297V454.846H980.767V456.19H980.795C981.173 455.294 981.761 454.678 982.699 454.678ZM988.367 456.722C988.367 456.204 988.059 455.812 987.079 455.812C985.903 455.812 985.469 456.176 985.399 457.1H983.971C984.041 455.728 984.923 454.65 987.079 454.65C988.661 454.65 989.837 455.252 989.837 457.156V460.558C989.837 461.062 989.949 461.328 990.523 461.272V461.972C990.187 462.098 989.949 462.126 989.669 462.126C988.885 462.126 988.521 461.846 988.381 461.146H988.353C987.905 461.776 987.093 462.21 985.987 462.21C984.531 462.21 983.635 461.37 983.635 460.166C983.635 458.598 984.797 458.108 986.589 457.758C987.695 457.548 988.367 457.408 988.367 456.722ZM986.309 461.048C987.527 461.048 988.367 460.446 988.367 459.284V458.206C988.129 458.374 987.555 458.542 986.869 458.682C985.651 458.948 985.119 459.298 985.119 460.026C985.119 460.684 985.511 461.048 986.309 461.048ZM995.093 454.65C996.913 454.65 998.271 456.078 998.271 458.43C998.271 460.782 996.913 462.21 995.093 462.21C993.973 462.21 993.273 461.678 992.895 461.146H992.867V464.436H991.383V454.846H992.867V455.686H992.895C993.273 455.182 993.973 454.65 995.093 454.65ZM994.813 461.006C996.101 461.006 996.787 459.83 996.787 458.43C996.787 457.03 996.101 455.854 994.813 455.854C993.623 455.854 992.881 456.834 992.881 458.43C992.881 460.012 993.623 461.006 994.813 461.006ZM1003.16 454.65C1004.52 454.65 1005.57 455.42 1005.57 457.058V462H1004.09V457.478C1004.09 456.512 1003.68 455.896 1002.66 455.896C1001.58 455.896 1000.81 456.582 1000.81 457.646V462H999.34V451.99H1000.81V455.77H1000.84C1001.22 455.21 1001.96 454.65 1003.16 454.65ZM1016.52 456.988C1016.52 458.374 1016.11 459.592 1015.38 460.502L1016.5 461.622L1015.52 462.602L1014.36 461.44C1013.61 461.93 1012.67 462.21 1011.6 462.21C1008.58 462.21 1006.69 459.998 1006.69 456.988C1006.69 453.978 1008.58 451.78 1011.6 451.78C1014.61 451.78 1016.52 453.978 1016.52 456.988ZM1011.6 460.782C1012.28 460.782 1012.84 460.628 1013.3 460.362L1011.94 459.004L1012.92 458.024L1014.26 459.382C1014.67 458.724 1014.85 457.884 1014.85 456.988C1014.85 454.972 1013.9 453.208 1011.6 453.208C1009.31 453.208 1008.34 454.972 1008.34 456.988C1008.34 459.018 1009.31 460.782 1011.6 460.782ZM1017.84 451.99H1019.51V460.586H1024.51V462H1017.84V451.99Z"
    fill="#CAE4DE"
  />
  <defs>
    <linearGradient
      id="paint0_linear_5853_3713"
      x1="359"
      y1="255"
      x2="429.002"
      y2="490.162"
      gradientUnits="userSpaceOnUse"
    >
      <stop stop-color="white" stop-opacity="0.2" />
      <stop offset="1" stop-color="white" stop-opacity="0.1" />
    </linearGradient>
    <linearGradient
      id="paint1_linear_5853_3713"
      x1="16"
      y1="0"
      x2="59.5813"
      y2="147.087"
      gradientUnits="userSpaceOnUse"
    >
      <stop stop-color="white" stop-opacity="0.2" />
      <stop offset="1" stop-color="white" stop-opacity="0.3" />
    </linearGradient>
    <linearGradient
      id="paint2_linear_5853_3713"
      x1="298"
      y1="0"
      x2="341.581"
      y2="147.087"
      gradientUnits="userSpaceOnUse"
    >
      <stop stop-color="white" stop-opacity="0.2" />
      <stop offset="1" stop-color="white" stop-opacity="0.3" />
    </linearGradient>
    <linearGradient
      id="paint3_linear_5853_3713"
      x1="580"
      y1="0"
      x2="623.581"
      y2="147.087"
      gradientUnits="userSpaceOnUse"
    >
      <stop stop-color="white" stop-opacity="0.2" />
      <stop offset="1" stop-color="white" stop-opacity="0.3" />
    </linearGradient>
    <linearGradient
      id="paint4_linear_5853_3713"
      x1="862"
      y1="0"
      x2="905.581"
      y2="147.087"
      gradientUnits="userSpaceOnUse"
    >
      <stop stop-color="white" stop-opacity="0.2" />
      <stop offset="1" stop-color="white" stop-opacity="0.3" />
    </linearGradient>
    <linearGradient
      id="paint5_linear_5853_3713"
      x1="16"
      y1="594"
      x2="59.5813"
      y2="741.087"
      gradientUnits="userSpaceOnUse"
    >
      <stop stop-color="white" stop-opacity="0.2" />
      <stop offset="1" stop-color="white" stop-opacity="0.3" />
    </linearGradient>
    <linearGradient
      id="paint6_linear_5853_3713"
      x1="298"
      y1="594"
      x2="341.581"
      y2="741.087"
      gradientUnits="userSpaceOnUse"
    >
      <stop stop-color="white" stop-opacity="0.2" />
      <stop offset="1" stop-color="white" stop-opacity="0.3" />
    </linearGradient>
    <linearGradient
      id="paint7_linear_5853_3713"
      x1="580"
      y1="594"
      x2="623.581"
      y2="741.087"
      gradientUnits="userSpaceOnUse"
    >
      <stop stop-color="white" stop-opacity="0.2" />
      <stop offset="1" stop-color="white" stop-opacity="0.3" />
    </linearGradient>
    <linearGradient
      id="paint8_linear_5853_3713"
      x1="862"
      y1="594"
      x2="905.581"
      y2="741.087"
      gradientUnits="userSpaceOnUse"
    >
      <stop stop-color="white" stop-opacity="0.2" />
      <stop offset="1" stop-color="white" stop-opacity="0.3" />
    </linearGradient>
  </defs>
</svg>
