<svg
  width="1069"
  height="737"
  viewBox="0 0 1069 737"
  fill="none"
  xmlns="http://www.w3.org/2000/svg"
>
  <rect x="1" y="1" width="1067" height="158" rx="15" stroke="#3B736A" stroke-width="2" />
  <path
    d="M485.89 41V26.264H480.394V23.84H494.218V26.264H488.746V41H485.89ZM498.704 41.36C494.864 41.36 492.536 38.696 492.536 34.88C492.536 31.064 494.864 28.4 498.704 28.4C502.544 28.4 504.872 31.064 504.872 34.88C504.872 38.696 502.544 41.36 498.704 41.36ZM498.704 39.296C501.104 39.296 502.352 37.4 502.352 34.88C502.352 32.336 501.104 30.464 498.704 30.464C496.304 30.464 495.056 32.336 495.056 34.88C495.056 37.4 496.304 39.296 498.704 39.296ZM514.03 31.952C514.03 31.064 513.502 30.392 511.822 30.392C509.806 30.392 509.062 31.016 508.942 32.6H506.494C506.614 30.248 508.126 28.4 511.822 28.4C514.534 28.4 516.55 29.432 516.55 32.696V38.528C516.55 39.392 516.742 39.848 517.726 39.752V40.952C517.15 41.168 516.742 41.216 516.262 41.216C514.918 41.216 514.294 40.736 514.054 39.536H514.006C513.238 40.616 511.846 41.36 509.95 41.36C507.454 41.36 505.918 39.92 505.918 37.856C505.918 35.168 507.91 34.328 510.982 33.728C512.878 33.368 514.03 33.128 514.03 31.952ZM510.502 39.368C512.59 39.368 514.03 38.336 514.03 36.344V34.496C513.622 34.784 512.638 35.072 511.462 35.312C509.374 35.768 508.462 36.368 508.462 37.616C508.462 38.744 509.134 39.368 510.502 39.368ZM524.504 33.584C526.76 34.112 529.208 34.616 529.208 37.544C529.208 39.896 527.192 41.36 524.216 41.36C520.256 41.36 518.552 39.512 518.432 36.92H520.88C521 38.24 521.576 39.368 524.168 39.368C525.92 39.368 526.664 38.504 526.664 37.736C526.664 36.2 525.2 36.08 523.4 35.648C521.456 35.192 518.816 34.808 518.816 32.024C518.816 30.008 520.592 28.4 523.664 28.4C527 28.4 528.584 30.2 528.752 32.336H526.304C526.136 31.376 525.656 30.392 523.688 30.392C522.176 30.392 521.36 30.968 521.36 31.832C521.36 33.08 522.728 33.176 524.504 33.584ZM536.47 30.8H534.166V37.448C534.166 38.84 534.838 39.008 536.47 38.912V40.976C535.966 41.096 535.414 41.168 534.742 41.168C532.726 41.168 531.622 40.256 531.622 37.664V30.8H529.846V28.736H531.622V24.872H534.166V28.736H536.47V30.8ZM541.912 23.84H544.84L547.768 37.136H547.816L551.272 23.84H554.2L557.68 37.136H557.728L560.656 23.84H563.584L559.288 41H556.288L552.76 27.56H552.712L549.208 41H546.184L541.912 23.84ZM569.155 39.296C571.243 39.296 572.083 38 572.299 37.256H574.819C574.195 39.584 572.371 41.36 569.227 41.36C565.411 41.36 563.083 38.72 563.083 34.88C563.083 30.896 565.411 28.4 569.107 28.4C573.067 28.4 575.011 31.16 575.011 35.528H565.603C565.603 37.592 566.923 39.296 569.155 39.296ZM569.107 30.392C567.067 30.392 565.603 31.76 565.603 33.656H572.491C572.491 31.76 571.147 30.392 569.107 30.392ZM583.051 28.4C586.195 28.4 588.523 30.848 588.523 34.88C588.523 38.912 586.195 41.36 583.051 41.36C581.155 41.36 579.955 40.424 579.307 39.584H579.259V41H576.739V23.84H579.259V30.224H579.307C579.955 29.288 581.155 28.4 583.051 28.4ZM582.619 39.296C584.827 39.296 586.003 37.28 586.003 34.88C586.003 32.48 584.827 30.464 582.619 30.464C580.555 30.464 579.283 32.144 579.283 34.88C579.283 37.592 580.555 39.296 582.619 39.296Z"
    fill="#ECF6F3"
  />
  <rect x="16" y="64" width="250.25" height="80" rx="12" fill="url(#paint0_linear_2522_2311)" />
  <path
    d="M94.1419 96.7H96.5219V102.62H103.282V96.7H105.662V111H103.282V104.66H96.5219V111H94.1419V96.7ZM112.682 111.3C109.482 111.3 107.542 109.08 107.542 105.9C107.542 102.72 109.482 100.5 112.682 100.5C115.882 100.5 117.822 102.72 117.822 105.9C117.822 109.08 115.882 111.3 112.682 111.3ZM112.682 109.58C114.682 109.58 115.722 108 115.722 105.9C115.722 103.78 114.682 102.22 112.682 102.22C110.682 102.22 109.642 103.78 109.642 105.9C109.642 108 110.682 109.58 112.682 109.58ZM130.553 100.5C132.613 100.5 133.673 101.74 133.673 103.94V111H131.553V104.54C131.553 103.16 131.273 102.28 129.833 102.28C128.413 102.28 127.533 103.26 127.533 104.78V111H125.413V104.54C125.413 103.16 125.133 102.28 123.673 102.28C122.273 102.28 121.373 103.26 121.373 104.78V111H119.273V100.78H121.373V102.1H121.413C121.953 101.3 122.913 100.5 124.453 100.5C125.893 100.5 126.753 101.16 127.173 102.26H127.213C127.973 101.28 128.973 100.5 130.553 100.5ZM140.141 109.58C141.881 109.58 142.581 108.5 142.761 107.88H144.861C144.341 109.82 142.821 111.3 140.201 111.3C137.021 111.3 135.081 109.1 135.081 105.9C135.081 102.58 137.021 100.5 140.101 100.5C143.401 100.5 145.021 102.8 145.021 106.44H137.181C137.181 108.16 138.281 109.58 140.141 109.58ZM140.101 102.16C138.401 102.16 137.181 103.3 137.181 104.88H142.921C142.921 103.3 141.801 102.16 140.101 102.16ZM151.761 100.5C154.361 100.5 156.301 102.54 156.301 105.9C156.301 109.26 154.361 111.3 151.761 111.3C150.161 111.3 149.161 110.54 148.621 109.78H148.581V114.48H146.461V100.78H148.581V101.98H148.621C149.161 101.26 150.161 100.5 151.761 100.5ZM151.361 109.58C153.201 109.58 154.181 107.9 154.181 105.9C154.181 103.9 153.201 102.22 151.361 102.22C149.661 102.22 148.601 103.62 148.601 105.9C148.601 108.16 149.661 109.58 151.361 109.58ZM164.008 103.46C164.008 102.72 163.568 102.16 162.168 102.16C160.488 102.16 159.868 102.68 159.768 104H157.728C157.828 102.04 159.088 100.5 162.168 100.5C164.428 100.5 166.108 101.36 166.108 104.08V108.94C166.108 109.66 166.268 110.04 167.088 109.96V110.96C166.608 111.14 166.268 111.18 165.868 111.18C164.748 111.18 164.228 110.78 164.028 109.78H163.988C163.348 110.68 162.188 111.3 160.608 111.3C158.528 111.3 157.248 110.1 157.248 108.38C157.248 106.14 158.908 105.44 161.468 104.94C163.048 104.64 164.008 104.44 164.008 103.46ZM161.068 109.64C162.808 109.64 164.008 108.78 164.008 107.12V105.58C163.668 105.82 162.848 106.06 161.868 106.26C160.128 106.64 159.368 107.14 159.368 108.18C159.368 109.12 159.928 109.64 161.068 109.64ZM175.396 100.78H177.496V110.3C177.496 113.24 175.716 114.54 172.816 114.54C169.876 114.54 168.256 113 168.036 111.28H170.156C170.356 112.18 171.076 112.86 172.736 112.86C174.496 112.86 175.396 112.06 175.396 110.22V108.98H175.356C174.816 109.74 173.876 110.5 172.256 110.5C169.696 110.5 167.776 108.72 167.776 105.5C167.776 102.26 169.696 100.5 172.256 100.5C173.876 100.5 174.816 101.26 175.356 101.98H175.396V100.78ZM172.656 108.78C174.356 108.78 175.376 107.66 175.376 105.5C175.376 103.34 174.356 102.22 172.656 102.22C170.816 102.22 169.876 103.6 169.876 105.5C169.876 107.38 170.816 108.78 172.656 108.78ZM184.008 109.58C185.748 109.58 186.448 108.5 186.628 107.88H188.728C188.208 109.82 186.688 111.3 184.068 111.3C180.888 111.3 178.948 109.1 178.948 105.9C178.948 102.58 180.888 100.5 183.968 100.5C187.268 100.5 188.888 102.8 188.888 106.44H181.048C181.048 108.16 182.148 109.58 184.008 109.58ZM183.968 102.16C182.268 102.16 181.048 103.3 181.048 104.88H186.788C186.788 103.3 185.668 102.16 183.968 102.16Z"
    fill="#CAE4DE"
  />
  <rect x="278.25" y="64" width="250.25" height="80" rx="12" fill="url(#paint1_linear_2522_2311)" />
  <path
    d="M316.07 111V96.7H322.15C324.89 96.7 326.87 97.98 326.87 100.98C326.87 103.98 324.89 105.28 322.15 105.28H318.45V111H316.07ZM318.45 98.72V103.24H322.05C323.65 103.24 324.49 102.56 324.49 100.98C324.49 99.42 323.65 98.72 322.05 98.72H318.45ZM332.42 109.58C334.16 109.58 334.86 108.5 335.04 107.88H337.14C336.62 109.82 335.1 111.3 332.48 111.3C329.3 111.3 327.36 109.1 327.36 105.9C327.36 102.58 329.3 100.5 332.38 100.5C335.68 100.5 337.3 102.8 337.3 106.44H329.46C329.46 108.16 330.56 109.58 332.42 109.58ZM332.38 102.16C330.68 102.16 329.46 103.3 329.46 104.88H335.2C335.2 103.3 334.08 102.16 332.38 102.16ZM343.6 100.54C343.96 100.54 344.22 100.56 344.52 100.6V102.58H344.48C342.46 102.24 340.84 103.6 340.84 105.78V111H338.74V100.78H340.84V102.7H340.88C341.42 101.42 342.26 100.54 343.6 100.54ZM350.748 98.42C349.388 98.36 348.868 98.5 348.868 99.66V100.78H350.748V102.5H348.868V111H346.748V102.5H345.288V100.78H346.748V99.48C346.748 97.32 347.668 96.56 349.348 96.56C349.868 96.56 350.328 96.62 350.748 96.7V98.42ZM356.446 111.3C353.246 111.3 351.306 109.08 351.306 105.9C351.306 102.72 353.246 100.5 356.446 100.5C359.646 100.5 361.586 102.72 361.586 105.9C361.586 109.08 359.646 111.3 356.446 111.3ZM356.446 109.58C358.446 109.58 359.486 108 359.486 105.9C359.486 103.78 358.446 102.22 356.446 102.22C354.446 102.22 353.406 103.78 353.406 105.9C353.406 108 354.446 109.58 356.446 109.58ZM367.897 100.54C368.257 100.54 368.517 100.56 368.817 100.6V102.58H368.777C366.757 102.24 365.137 103.6 365.137 105.78V111H363.037V100.78H365.137V102.7H365.177C365.717 101.42 366.557 100.54 367.897 100.54ZM381.446 100.5C383.506 100.5 384.566 101.74 384.566 103.94V111H382.446V104.54C382.446 103.16 382.166 102.28 380.726 102.28C379.306 102.28 378.426 103.26 378.426 104.78V111H376.306V104.54C376.306 103.16 376.026 102.28 374.566 102.28C373.166 102.28 372.266 103.26 372.266 104.78V111H370.166V100.78H372.266V102.1H372.306C372.846 101.3 373.806 100.5 375.346 100.5C376.786 100.5 377.646 101.16 378.066 102.26H378.106C378.866 101.28 379.866 100.5 381.446 100.5ZM392.694 103.46C392.694 102.72 392.254 102.16 390.854 102.16C389.174 102.16 388.554 102.68 388.454 104H386.414C386.514 102.04 387.774 100.5 390.854 100.5C393.114 100.5 394.794 101.36 394.794 104.08V108.94C394.794 109.66 394.954 110.04 395.774 109.96V110.96C395.294 111.14 394.954 111.18 394.554 111.18C393.434 111.18 392.914 110.78 392.714 109.78H392.674C392.034 110.68 390.874 111.3 389.294 111.3C387.214 111.3 385.934 110.1 385.934 108.38C385.934 106.14 387.594 105.44 390.154 104.94C391.734 104.64 392.694 104.44 392.694 103.46ZM389.754 109.64C391.494 109.64 392.694 108.78 392.694 107.12V105.58C392.354 105.82 391.534 106.06 390.554 106.26C388.814 106.64 388.054 107.14 388.054 108.18C388.054 109.12 388.614 109.64 389.754 109.64ZM402.502 100.5C404.402 100.5 405.902 101.6 405.902 103.94V111H403.782V104.54C403.782 103.16 403.202 102.28 401.762 102.28C400.142 102.28 399.102 103.26 399.102 104.78V111H397.002V100.78H399.102V102.1H399.142C399.682 101.3 400.742 100.5 402.502 100.5ZM414.862 104.52C414.782 103.48 414.122 102.22 412.322 102.22C410.262 102.22 409.382 103.98 409.382 105.9C409.382 107.82 410.242 109.58 412.322 109.58C414.122 109.58 414.782 108.34 414.862 107.2H416.962C416.802 109.56 414.982 111.3 412.322 111.3C409.262 111.3 407.282 109.1 407.282 105.9C407.282 102.7 409.262 100.5 412.302 100.5C414.962 100.5 416.702 102.2 416.962 104.52H414.862ZM422.87 109.58C424.61 109.58 425.31 108.5 425.49 107.88H427.59C427.07 109.82 425.55 111.3 422.93 111.3C419.75 111.3 417.81 109.1 417.81 105.9C417.81 102.58 419.75 100.5 422.83 100.5C426.13 100.5 427.75 102.8 427.75 106.44H419.91C419.91 108.16 421.01 109.58 422.87 109.58ZM422.83 102.16C421.13 102.16 419.91 103.3 419.91 104.88H425.65C425.65 103.3 424.53 102.16 422.83 102.16ZM443.178 101.62C442.918 100.18 441.978 98.44 439.338 98.44C436.258 98.44 435.038 101.02 435.038 103.84C435.038 106.68 436.258 109.26 439.338 109.26C441.998 109.26 443.018 107.52 443.178 105.78H445.558C445.238 109 443.038 111.3 439.398 111.3C435.278 111.3 432.678 108.16 432.678 103.84C432.678 99.54 435.278 96.4 439.398 96.4C443.018 96.4 445.218 98.7 445.558 101.62H443.178ZM451.678 109.58C453.418 109.58 454.118 108.5 454.298 107.88H456.398C455.878 109.82 454.358 111.3 451.738 111.3C448.558 111.3 446.618 109.1 446.618 105.9C446.618 102.58 448.558 100.5 451.638 100.5C454.938 100.5 456.558 102.8 456.558 106.44H448.718C448.718 108.16 449.818 109.58 451.678 109.58ZM451.638 102.16C449.938 102.16 448.718 103.3 448.718 104.88H454.458C454.458 103.3 453.338 102.16 451.638 102.16ZM463.498 100.5C465.398 100.5 466.898 101.6 466.898 103.94V111H464.778V104.54C464.778 103.16 464.198 102.28 462.758 102.28C461.138 102.28 460.098 103.26 460.098 104.78V111H457.998V100.78H460.098V102.1H460.138C460.678 101.3 461.738 100.5 463.498 100.5ZM473.503 102.5H471.583V108.04C471.583 109.2 472.143 109.34 473.503 109.26V110.98C473.083 111.08 472.623 111.14 472.063 111.14C470.383 111.14 469.463 110.38 469.463 108.22V102.5H467.983V100.78H469.463V97.56H471.583V100.78H473.503V102.5ZM479.452 109.58C481.192 109.58 481.892 108.5 482.072 107.88H484.172C483.652 109.82 482.132 111.3 479.512 111.3C476.332 111.3 474.392 109.1 474.392 105.9C474.392 102.58 476.332 100.5 479.412 100.5C482.712 100.5 484.332 102.8 484.332 106.44H476.492C476.492 108.16 477.592 109.58 479.452 109.58ZM479.412 102.16C477.712 102.16 476.492 103.3 476.492 104.88H482.232C482.232 103.3 481.112 102.16 479.412 102.16ZM490.631 100.54C490.991 100.54 491.251 100.56 491.551 100.6V102.58H491.511C489.491 102.24 487.871 103.6 487.871 105.78V111H485.771V100.78H487.871V102.7H487.911C488.451 101.42 489.291 100.54 490.631 100.54Z"
    fill="#CAE4DE"
  />
  <rect x="540.5" y="64" width="250.25" height="80" rx="12" fill="url(#paint2_linear_2522_2311)" />
  <path
    d="M562.773 111V98.72H558.193V96.7H569.713V98.72H565.153V111H562.773ZM574.993 103.46C574.993 102.72 574.553 102.16 573.153 102.16C571.473 102.16 570.853 102.68 570.752 104H568.713C568.813 102.04 570.073 100.5 573.153 100.5C575.413 100.5 577.093 101.36 577.093 104.08V108.94C577.093 109.66 577.253 110.04 578.073 109.96V110.96C577.593 111.14 577.253 111.18 576.853 111.18C575.733 111.18 575.213 110.78 575.013 109.78H574.973C574.333 110.68 573.173 111.3 571.593 111.3C569.513 111.3 568.233 110.1 568.233 108.38C568.233 106.14 569.893 105.44 572.453 104.94C574.033 104.64 574.993 104.44 574.993 103.46ZM572.053 109.64C573.793 109.64 574.993 108.78 574.993 107.12V105.58C574.653 105.82 573.833 106.06 572.853 106.26C571.113 106.64 570.353 107.14 570.353 108.18C570.353 109.12 570.913 109.64 572.053 109.64ZM579.301 96.7H581.401V104.88L585.561 100.78H588.141L584.261 104.58L588.561 111H586.041L582.821 105.96L581.401 107.3V111H579.301V96.7ZM593.391 109.58C595.131 109.58 595.831 108.5 596.011 107.88H598.111C597.591 109.82 596.071 111.3 593.451 111.3C590.271 111.3 588.331 109.1 588.331 105.9C588.331 102.58 590.271 100.5 593.351 100.5C596.651 100.5 598.271 102.8 598.271 106.44H590.431C590.431 108.16 591.531 109.58 593.391 109.58ZM593.351 102.16C591.651 102.16 590.431 103.3 590.431 104.88H596.171C596.171 103.3 595.051 102.16 593.351 102.16ZM604.311 111.3C601.111 111.3 599.171 109.08 599.171 105.9C599.171 102.72 601.111 100.5 604.311 100.5C607.511 100.5 609.451 102.72 609.451 105.9C609.451 109.08 607.511 111.3 604.311 111.3ZM604.311 109.58C606.311 109.58 607.351 108 607.351 105.9C607.351 103.78 606.311 102.22 604.311 102.22C602.311 102.22 601.271 103.78 601.271 105.9C601.271 108 602.311 109.58 604.311 109.58ZM617.622 100.78H619.722V111H617.622V109.68H617.582C617.042 110.48 615.982 111.28 614.222 111.28C612.322 111.28 610.822 110.18 610.822 107.84V100.78H612.942V107.24C612.942 108.62 613.522 109.5 614.962 109.5C616.582 109.5 617.622 108.52 617.622 107V100.78ZM626.603 102.5H624.683V108.04C624.683 109.2 625.243 109.34 626.603 109.26V110.98C626.183 111.08 625.723 111.14 625.163 111.14C623.483 111.14 622.563 110.38 622.563 108.22V102.5H621.083V100.78H622.563V97.56H624.683V100.78H626.603V102.5ZM643.478 111H640.898L639.938 109.84C638.958 110.72 637.678 111.3 636.098 111.3C633.178 111.3 631.618 109.66 631.618 107.48C631.618 105.36 633.118 104.22 634.618 103.34C633.618 102.12 632.938 101.16 632.938 99.82C632.938 98.14 634.138 96.42 636.598 96.4C638.898 96.38 640.258 98.14 640.258 99.82C640.258 101.44 639.178 102.44 637.298 103.52L639.918 106.68C640.298 105.88 640.558 105 640.698 104.12H642.678C642.498 105.48 642.038 107 641.238 108.28L643.478 111ZM636.598 98.38C635.558 98.38 634.978 99.1 634.978 99.96C634.978 100.76 635.558 101.48 636.318 102.36C637.498 101.64 638.218 101 638.218 99.96C638.218 99.1 637.658 98.38 636.598 98.38ZM636.238 109.32C637.238 109.32 638.058 108.94 638.718 108.34L635.578 104.5C634.378 105.3 633.778 106.2 633.778 107.28C633.778 108.36 634.618 109.32 636.238 109.32ZM648.408 111V96.7H653.968C657.908 96.7 660.328 99.26 660.328 103.86C660.328 108.46 657.988 111 654.028 111H648.408ZM650.788 98.72V108.98H653.848C657.048 108.98 657.948 106.6 657.948 103.86C657.948 101.12 657.048 98.72 653.848 98.72H650.788ZM666.536 109.58C668.276 109.58 668.976 108.5 669.156 107.88H671.256C670.736 109.82 669.216 111.3 666.596 111.3C663.416 111.3 661.476 109.1 661.476 105.9C661.476 102.58 663.416 100.5 666.496 100.5C669.796 100.5 671.416 102.8 671.416 106.44H663.576C663.576 108.16 664.676 109.58 666.536 109.58ZM666.496 102.16C664.796 102.16 663.576 103.3 663.576 104.88H669.316C669.316 103.3 668.196 102.16 666.496 102.16ZM672.895 96.7H675.015V111H672.895V96.7ZM678.078 99.06C677.498 99.06 676.898 98.66 676.898 97.94C676.898 97.22 677.498 96.84 678.078 96.84C678.698 96.84 679.278 97.22 679.278 97.94C679.278 98.66 678.698 99.06 678.078 99.06ZM677.038 100.78H679.138V111H677.038V100.78ZM680.273 100.78H682.493L685.073 108.78H685.093L687.673 100.78H689.893L686.273 111H683.893L680.273 100.78ZM695.168 109.58C696.908 109.58 697.608 108.5 697.788 107.88H699.888C699.368 109.82 697.848 111.3 695.228 111.3C692.048 111.3 690.108 109.1 690.108 105.9C690.108 102.58 692.048 100.5 695.128 100.5C698.428 100.5 700.048 102.8 700.048 106.44H692.208C692.208 108.16 693.308 109.58 695.168 109.58ZM695.128 102.16C693.428 102.16 692.208 103.3 692.208 104.88H697.948C697.948 103.3 696.828 102.16 695.128 102.16ZM706.348 100.54C706.708 100.54 706.968 100.56 707.268 100.6V102.58H707.228C705.208 102.24 703.588 103.6 703.588 105.78V111H701.488V100.78H703.588V102.7H703.628C704.168 101.42 705.008 100.54 706.348 100.54ZM717.696 100.78L713.616 111.64C713.036 113.22 712.376 114.48 710.416 114.48C709.816 114.48 709.316 114.38 708.916 114.28V112.68H709.096C709.976 112.8 710.636 112.74 711.096 112.18C711.476 111.72 711.756 110.92 711.376 109.96L707.676 100.78H709.936L712.796 108.6H712.836L715.456 100.78H717.696ZM728.163 102.48C731.223 103.26 733.543 103.92 733.543 107.12C733.543 109.4 731.823 111.3 728.223 111.3C724.723 111.3 722.063 109.48 721.923 106.24H724.303C724.423 108.06 725.663 109.26 728.223 109.26C730.343 109.26 731.163 108.32 731.163 107.22C731.163 105.52 729.943 105.2 727.123 104.5C724.883 103.94 722.463 103.08 722.463 100.36C722.463 97.82 724.423 96.4 727.543 96.4C730.683 96.4 732.963 98.04 733.163 100.98H730.783C730.563 99.32 729.523 98.44 727.543 98.44C725.843 98.44 724.823 99.08 724.823 100.14C724.823 101.7 726.163 101.98 728.163 102.48ZM739.739 109.58C741.479 109.58 742.179 108.5 742.359 107.88H744.459C743.939 109.82 742.419 111.3 739.799 111.3C736.619 111.3 734.679 109.1 734.679 105.9C734.679 102.58 736.619 100.5 739.699 100.5C742.999 100.5 744.619 102.8 744.619 106.44H736.779C736.779 108.16 737.879 109.58 739.739 109.58ZM739.699 102.16C737.999 102.16 736.779 103.3 736.779 104.88H742.519C742.519 103.3 741.399 102.16 739.699 102.16ZM750.743 102.5H748.823V108.04C748.823 109.2 749.383 109.34 750.743 109.26V110.98C750.323 111.08 749.863 111.14 749.303 111.14C747.623 111.14 746.703 110.38 746.703 108.22V102.5H745.223V100.78H746.703V97.56H748.823V100.78H750.743V102.5ZM758.99 100.78H761.09V111H758.99V109.68H758.95C758.41 110.48 757.35 111.28 755.59 111.28C753.69 111.28 752.19 110.18 752.19 107.84V100.78H754.31V107.24C754.31 108.62 754.89 109.5 756.33 109.5C757.95 109.5 758.99 108.52 758.99 107V100.78ZM768.39 100.5C770.99 100.5 772.93 102.54 772.93 105.9C772.93 109.26 770.99 111.3 768.39 111.3C766.79 111.3 765.79 110.54 765.25 109.78H765.21V114.48H763.09V100.78H765.21V101.98H765.25C765.79 101.26 766.79 100.5 768.39 100.5ZM767.99 109.58C769.83 109.58 770.81 107.9 770.81 105.9C770.81 103.9 769.83 102.22 767.99 102.22C766.29 102.22 765.23 103.62 765.23 105.9C765.23 108.16 766.29 109.58 767.99 109.58Z"
    fill="#CAE4DE"
  />
  <rect x="802.75" y="64" width="250.25" height="80" rx="12" fill="url(#paint3_linear_2522_2311)" />
  <path
    d="M899.574 111V96.7H902.654L906.654 107.7H906.694L910.674 96.7H913.754V111H911.434V100.16H911.394L907.614 111H905.714L901.934 100.16H901.894V111H899.574ZM920.69 109.58C922.43 109.58 923.13 108.5 923.31 107.88H925.41C924.89 109.82 923.37 111.3 920.75 111.3C917.57 111.3 915.63 109.1 915.63 105.9C915.63 102.58 917.57 100.5 920.65 100.5C923.95 100.5 925.57 102.8 925.57 106.44H917.73C917.73 108.16 918.83 109.58 920.69 109.58ZM920.65 102.16C918.95 102.16 917.73 103.3 917.73 104.88H923.47C923.47 103.3 922.35 102.16 920.65 102.16ZM932.51 100.5C934.41 100.5 935.91 101.6 935.91 103.94V111H933.79V104.54C933.79 103.16 933.21 102.28 931.77 102.28C930.15 102.28 929.11 103.26 929.11 104.78V111H927.01V100.78H929.11V102.1H929.15C929.69 101.3 930.75 100.5 932.51 100.5ZM944.55 100.78H946.65V111H944.55V109.68H944.51C943.97 110.48 942.91 111.28 941.15 111.28C939.25 111.28 937.75 110.18 937.75 107.84V100.78H939.87V107.24C939.87 108.62 940.45 109.5 941.89 109.5C943.51 109.5 944.55 108.52 944.55 107V100.78ZM953.07 104.82C954.95 105.26 956.99 105.68 956.99 108.12C956.99 110.08 955.31 111.3 952.83 111.3C949.53 111.3 948.11 109.76 948.01 107.6H950.05C950.15 108.7 950.63 109.64 952.79 109.64C954.25 109.64 954.87 108.92 954.87 108.28C954.87 107 953.65 106.9 952.15 106.54C950.53 106.16 948.33 105.84 948.33 103.52C948.33 101.84 949.81 100.5 952.37 100.5C955.15 100.5 956.47 102 956.61 103.78H954.57C954.43 102.98 954.03 102.16 952.39 102.16C951.13 102.16 950.45 102.64 950.45 103.36C950.45 104.4 951.59 104.48 953.07 104.82Z"
    fill="#CAE4DE"
  />
  <rect x="16" y="329" width="250.25" height="80" rx="12" fill="url(#paint4_linear_2522_2311)" />
  <path
    d="M73.9856 361.7H76.3656V367.62H83.1256V361.7H85.5056V376H83.1256V369.66H76.3656V376H73.9856V361.7ZM92.5258 376.3C89.3258 376.3 87.3858 374.08 87.3858 370.9C87.3858 367.72 89.3258 365.5 92.5258 365.5C95.7258 365.5 97.6658 367.72 97.6658 370.9C97.6658 374.08 95.7258 376.3 92.5258 376.3ZM92.5258 374.58C94.5258 374.58 95.5658 373 95.5658 370.9C95.5658 368.78 94.5258 367.22 92.5258 367.22C90.5258 367.22 89.4858 368.78 89.4858 370.9C89.4858 373 90.5258 374.58 92.5258 374.58ZM110.397 365.5C112.457 365.5 113.517 366.74 113.517 368.94V376H111.397V369.54C111.397 368.16 111.117 367.28 109.677 367.28C108.257 367.28 107.377 368.26 107.377 369.78V376H105.257V369.54C105.257 368.16 104.977 367.28 103.517 367.28C102.117 367.28 101.217 368.26 101.217 369.78V376H99.1172V365.78H101.217V367.1H101.257C101.797 366.3 102.757 365.5 104.297 365.5C105.737 365.5 106.597 366.16 107.017 367.26H107.057C107.817 366.28 108.817 365.5 110.397 365.5ZM119.985 374.58C121.725 374.58 122.425 373.5 122.605 372.88H124.705C124.185 374.82 122.665 376.3 120.045 376.3C116.865 376.3 114.925 374.1 114.925 370.9C114.925 367.58 116.865 365.5 119.945 365.5C123.245 365.5 124.865 367.8 124.865 371.44H117.025C117.025 373.16 118.125 374.58 119.985 374.58ZM119.945 367.16C118.245 367.16 117.025 368.3 117.025 369.88H122.765C122.765 368.3 121.645 367.16 119.945 367.16ZM131.605 365.5C134.205 365.5 136.145 367.54 136.145 370.9C136.145 374.26 134.205 376.3 131.605 376.3C130.005 376.3 129.005 375.54 128.465 374.78H128.425V379.48H126.305V365.78H128.425V366.98H128.465C129.005 366.26 130.005 365.5 131.605 365.5ZM131.205 374.58C133.045 374.58 134.025 372.9 134.025 370.9C134.025 368.9 133.045 367.22 131.205 367.22C129.505 367.22 128.445 368.62 128.445 370.9C128.445 373.16 129.505 374.58 131.205 374.58ZM143.852 368.46C143.852 367.72 143.412 367.16 142.012 367.16C140.332 367.16 139.712 367.68 139.612 369H137.572C137.672 367.04 138.932 365.5 142.012 365.5C144.272 365.5 145.952 366.36 145.952 369.08V373.94C145.952 374.66 146.112 375.04 146.932 374.96V375.96C146.452 376.14 146.112 376.18 145.712 376.18C144.592 376.18 144.072 375.78 143.872 374.78H143.832C143.192 375.68 142.032 376.3 140.452 376.3C138.372 376.3 137.092 375.1 137.092 373.38C137.092 371.14 138.752 370.44 141.312 369.94C142.892 369.64 143.852 369.44 143.852 368.46ZM140.912 374.64C142.652 374.64 143.852 373.78 143.852 372.12V370.58C143.512 370.82 142.692 371.06 141.712 371.26C139.972 371.64 139.212 372.14 139.212 373.18C139.212 374.12 139.772 374.64 140.912 374.64ZM155.24 365.78H157.34V375.3C157.34 378.24 155.56 379.54 152.66 379.54C149.72 379.54 148.1 378 147.88 376.28H150C150.2 377.18 150.92 377.86 152.58 377.86C154.34 377.86 155.24 377.06 155.24 375.22V373.98H155.2C154.66 374.74 153.72 375.5 152.1 375.5C149.54 375.5 147.62 373.72 147.62 370.5C147.62 367.26 149.54 365.5 152.1 365.5C153.72 365.5 154.66 366.26 155.2 366.98H155.24V365.78ZM152.5 373.78C154.2 373.78 155.22 372.66 155.22 370.5C155.22 368.34 154.2 367.22 152.5 367.22C150.66 367.22 149.72 368.6 149.72 370.5C149.72 372.38 150.66 373.78 152.5 373.78ZM163.852 374.58C165.592 374.58 166.292 373.5 166.472 372.88H168.572C168.052 374.82 166.532 376.3 163.912 376.3C160.732 376.3 158.792 374.1 158.792 370.9C158.792 367.58 160.732 365.5 163.812 365.5C167.112 365.5 168.732 367.8 168.732 371.44H160.892C160.892 373.16 161.992 374.58 163.852 374.58ZM163.812 367.16C162.112 367.16 160.892 368.3 160.892 369.88H166.632C166.632 368.3 165.512 367.16 163.812 367.16ZM184.98 365.3C184.98 367.06 183.94 367.88 182.76 368.28V368.32C184.26 368.58 185.54 369.68 185.54 371.82C185.54 374.58 183.64 376 180.68 376H174.2V361.7H180.34C183.28 361.7 184.98 363 184.98 365.3ZM176.58 367.62H180.26C181.96 367.62 182.6 366.94 182.6 365.68C182.6 364.42 181.82 363.72 180.4 363.72H176.58V367.62ZM176.58 369.4V373.98H180.5C182.54 373.98 183.16 373.02 183.16 371.68C183.16 370.22 182.26 369.4 180.76 369.4H176.58ZM189.647 367.88H195.827V369.92H189.647V376H187.267V361.7H197.267V363.72H189.647V367.88ZM201.366 367.88H207.546V369.92H201.366V376H198.986V361.7H208.986V363.72H201.366V367.88Z"
    fill="#CAE4DE"
  />
  <rect
    x="278.25"
    y="329"
    width="250.25"
    height="80"
    rx="12"
    fill="url(#paint5_linear_2522_2311)"
  />
  <path
    d="M313.12 376V361.7H319.2C321.94 361.7 323.92 362.98 323.92 365.98C323.92 368.98 321.94 370.28 319.2 370.28H315.5V376H313.12ZM315.5 363.72V368.24H319.1C320.7 368.24 321.54 367.56 321.54 365.98C321.54 364.42 320.7 363.72 319.1 363.72H315.5ZM329.471 374.58C331.211 374.58 331.911 373.5 332.091 372.88H334.191C333.671 374.82 332.151 376.3 329.531 376.3C326.351 376.3 324.411 374.1 324.411 370.9C324.411 367.58 326.351 365.5 329.431 365.5C332.731 365.5 334.351 367.8 334.351 371.44H326.511C326.511 373.16 327.611 374.58 329.471 374.58ZM329.431 367.16C327.731 367.16 326.511 368.3 326.511 369.88H332.251C332.251 368.3 331.131 367.16 329.431 367.16ZM340.651 365.54C341.011 365.54 341.271 365.56 341.571 365.6V367.58H341.531C339.511 367.24 337.891 368.6 337.891 370.78V376H335.791V365.78H337.891V367.7H337.931C338.471 366.42 339.311 365.54 340.651 365.54ZM347.799 363.42C346.439 363.36 345.919 363.5 345.919 364.66V365.78H347.799V367.5H345.919V376H343.799V367.5H342.339V365.78H343.799V364.48C343.799 362.32 344.719 361.56 346.399 361.56C346.919 361.56 347.379 361.62 347.799 361.7V363.42ZM353.496 376.3C350.296 376.3 348.356 374.08 348.356 370.9C348.356 367.72 350.296 365.5 353.496 365.5C356.696 365.5 358.636 367.72 358.636 370.9C358.636 374.08 356.696 376.3 353.496 376.3ZM353.496 374.58C355.496 374.58 356.536 373 356.536 370.9C356.536 368.78 355.496 367.22 353.496 367.22C351.496 367.22 350.456 368.78 350.456 370.9C350.456 373 351.496 374.58 353.496 374.58ZM364.948 365.54C365.308 365.54 365.568 365.56 365.868 365.6V367.58H365.828C363.808 367.24 362.188 368.6 362.188 370.78V376H360.088V365.78H362.188V367.7H362.228C362.768 366.42 363.608 365.54 364.948 365.54ZM378.497 365.5C380.557 365.5 381.617 366.74 381.617 368.94V376H379.497V369.54C379.497 368.16 379.217 367.28 377.777 367.28C376.357 367.28 375.477 368.26 375.477 369.78V376H373.357V369.54C373.357 368.16 373.077 367.28 371.617 367.28C370.217 367.28 369.317 368.26 369.317 369.78V376H367.217V365.78H369.317V367.1H369.357C369.897 366.3 370.857 365.5 372.397 365.5C373.837 365.5 374.697 366.16 375.117 367.26H375.157C375.917 366.28 376.917 365.5 378.497 365.5ZM389.744 368.46C389.744 367.72 389.304 367.16 387.904 367.16C386.224 367.16 385.604 367.68 385.504 369H383.464C383.564 367.04 384.824 365.5 387.904 365.5C390.164 365.5 391.844 366.36 391.844 369.08V373.94C391.844 374.66 392.004 375.04 392.824 374.96V375.96C392.344 376.14 392.004 376.18 391.604 376.18C390.484 376.18 389.964 375.78 389.764 374.78H389.724C389.084 375.68 387.924 376.3 386.344 376.3C384.264 376.3 382.984 375.1 382.984 373.38C382.984 371.14 384.644 370.44 387.204 369.94C388.784 369.64 389.744 369.44 389.744 368.46ZM386.804 374.64C388.544 374.64 389.744 373.78 389.744 372.12V370.58C389.404 370.82 388.584 371.06 387.604 371.26C385.864 371.64 385.104 372.14 385.104 373.18C385.104 374.12 385.664 374.64 386.804 374.64ZM399.553 365.5C401.453 365.5 402.953 366.6 402.953 368.94V376H400.833V369.54C400.833 368.16 400.253 367.28 398.813 367.28C397.193 367.28 396.153 368.26 396.153 369.78V376H394.053V365.78H396.153V367.1H396.193C396.733 366.3 397.793 365.5 399.553 365.5ZM411.913 369.52C411.833 368.48 411.173 367.22 409.373 367.22C407.313 367.22 406.433 368.98 406.433 370.9C406.433 372.82 407.293 374.58 409.373 374.58C411.173 374.58 411.833 373.34 411.913 372.2H414.013C413.853 374.56 412.033 376.3 409.373 376.3C406.313 376.3 404.333 374.1 404.333 370.9C404.333 367.7 406.313 365.5 409.353 365.5C412.013 365.5 413.753 367.2 414.013 369.52H411.913ZM419.92 374.58C421.66 374.58 422.36 373.5 422.54 372.88H424.64C424.12 374.82 422.6 376.3 419.98 376.3C416.8 376.3 414.86 374.1 414.86 370.9C414.86 367.58 416.8 365.5 419.88 365.5C423.18 365.5 424.8 367.8 424.8 371.44H416.96C416.96 373.16 418.06 374.58 419.92 374.58ZM419.88 367.16C418.18 367.16 416.96 368.3 416.96 369.88H422.7C422.7 368.3 421.58 367.16 419.88 367.16ZM430.269 376V361.7H433.349L437.349 372.7H437.389L441.369 361.7H444.449V376H442.129V365.16H442.089L438.309 376H436.409L432.629 365.16H432.589V376H430.269ZM451.385 374.58C453.125 374.58 453.825 373.5 454.005 372.88H456.105C455.585 374.82 454.065 376.3 451.445 376.3C448.265 376.3 446.325 374.1 446.325 370.9C446.325 367.58 448.265 365.5 451.345 365.5C454.645 365.5 456.265 367.8 456.265 371.44H448.425C448.425 373.16 449.525 374.58 451.385 374.58ZM451.345 367.16C449.645 367.16 448.425 368.3 448.425 369.88H454.165C454.165 368.3 453.045 367.16 451.345 367.16ZM462.39 367.5H460.47V373.04C460.47 374.2 461.03 374.34 462.39 374.26V375.98C461.97 376.08 461.51 376.14 460.95 376.14C459.27 376.14 458.35 375.38 458.35 373.22V367.5H456.87V365.78H458.35V362.56H460.47V365.78H462.39V367.5ZM468.776 365.54C469.136 365.54 469.396 365.56 469.696 365.6V367.58H469.656C467.636 367.24 466.016 368.6 466.016 370.78V376H463.916V365.78H466.016V367.7H466.056C466.596 366.42 467.436 365.54 468.776 365.54ZM472.225 364.06C471.645 364.06 471.045 363.66 471.045 362.94C471.045 362.22 471.645 361.84 472.225 361.84C472.845 361.84 473.425 362.22 473.425 362.94C473.425 363.66 472.845 364.06 472.225 364.06ZM471.185 365.78H473.285V376H471.185V365.78ZM482.46 369.52C482.38 368.48 481.72 367.22 479.92 367.22C477.86 367.22 476.98 368.98 476.98 370.9C476.98 372.82 477.84 374.58 479.92 374.58C481.72 374.58 482.38 373.34 482.46 372.2H484.56C484.4 374.56 482.58 376.3 479.92 376.3C476.86 376.3 474.88 374.1 474.88 370.9C474.88 367.7 476.86 365.5 479.9 365.5C482.56 365.5 484.3 367.2 484.56 369.52H482.46ZM490.524 369.82C492.404 370.26 494.444 370.68 494.444 373.12C494.444 375.08 492.764 376.3 490.284 376.3C486.984 376.3 485.564 374.76 485.464 372.6H487.504C487.604 373.7 488.084 374.64 490.244 374.64C491.704 374.64 492.324 373.92 492.324 373.28C492.324 372 491.104 371.9 489.604 371.54C487.984 371.16 485.784 370.84 485.784 368.52C485.784 366.84 487.264 365.5 489.824 365.5C492.604 365.5 493.924 367 494.064 368.78H492.024C491.884 367.98 491.484 367.16 489.844 367.16C488.584 367.16 487.904 367.64 487.904 368.36C487.904 369.4 489.044 369.48 490.524 369.82Z"
    fill="#CAE4DE"
  />
  <rect x="540.5" y="329" width="250.25" height="80" rx="12" fill="url(#paint6_linear_2522_2311)" />
  <path
    d="M590.644 362V349.72H586.064V347.7H597.584V349.72H593.024V362H590.644ZM602.864 354.46C602.864 353.72 602.424 353.16 601.024 353.16C599.344 353.16 598.724 353.68 598.624 355H596.584C596.684 353.04 597.944 351.5 601.024 351.5C603.284 351.5 604.964 352.36 604.964 355.08V359.94C604.964 360.66 605.124 361.04 605.944 360.96V361.96C605.464 362.14 605.124 362.18 604.724 362.18C603.604 362.18 603.084 361.78 602.884 360.78H602.844C602.204 361.68 601.044 362.3 599.464 362.3C597.384 362.3 596.104 361.1 596.104 359.38C596.104 357.14 597.764 356.44 600.324 355.94C601.904 355.64 602.864 355.44 602.864 354.46ZM599.924 360.64C601.664 360.64 602.864 359.78 602.864 358.12V356.58C602.524 356.82 601.704 357.06 600.724 357.26C598.984 357.64 598.224 358.14 598.224 359.18C598.224 360.12 598.784 360.64 599.924 360.64ZM607.172 347.7H609.272V355.88L613.432 351.78H616.012L612.132 355.58L616.432 362H613.912L610.692 356.96L609.272 358.3V362H607.172V347.7ZM621.262 360.58C623.002 360.58 623.702 359.5 623.882 358.88H625.982C625.462 360.82 623.942 362.3 621.322 362.3C618.142 362.3 616.202 360.1 616.202 356.9C616.202 353.58 618.142 351.5 621.222 351.5C624.522 351.5 626.142 353.8 626.142 357.44H618.302C618.302 359.16 619.402 360.58 621.262 360.58ZM621.222 353.16C619.522 353.16 618.302 354.3 618.302 355.88H624.042C624.042 354.3 622.922 353.16 621.222 353.16ZM632.182 362.3C628.982 362.3 627.042 360.08 627.042 356.9C627.042 353.72 628.982 351.5 632.182 351.5C635.382 351.5 637.322 353.72 637.322 356.9C637.322 360.08 635.382 362.3 632.182 362.3ZM632.182 360.58C634.182 360.58 635.222 359 635.222 356.9C635.222 354.78 634.182 353.22 632.182 353.22C630.182 353.22 629.142 354.78 629.142 356.9C629.142 359 630.182 360.58 632.182 360.58ZM645.493 351.78H647.593V362H645.493V360.68H645.453C644.913 361.48 643.853 362.28 642.093 362.28C640.193 362.28 638.693 361.18 638.693 358.84V351.78H640.813V358.24C640.813 359.62 641.393 360.5 642.833 360.5C644.453 360.5 645.493 359.52 645.493 358V351.78ZM654.474 353.5H652.554V359.04C652.554 360.2 653.114 360.34 654.474 360.26V361.98C654.054 362.08 653.594 362.14 653.034 362.14C651.354 362.14 650.434 361.38 650.434 359.22V353.5H648.954V351.78H650.434V348.56H652.554V351.78H654.474V353.5ZM671.349 362H668.769L667.809 360.84C666.829 361.72 665.549 362.3 663.969 362.3C661.049 362.3 659.489 360.66 659.489 358.48C659.489 356.36 660.989 355.22 662.489 354.34C661.489 353.12 660.809 352.16 660.809 350.82C660.809 349.14 662.009 347.42 664.469 347.4C666.769 347.38 668.129 349.14 668.129 350.82C668.129 352.44 667.049 353.44 665.169 354.52L667.789 357.68C668.169 356.88 668.429 356 668.569 355.12H670.549C670.369 356.48 669.909 358 669.109 359.28L671.349 362ZM664.469 349.38C663.429 349.38 662.849 350.1 662.849 350.96C662.849 351.76 663.429 352.48 664.189 353.36C665.369 352.64 666.089 352 666.089 350.96C666.089 350.1 665.529 349.38 664.469 349.38ZM664.109 360.32C665.109 360.32 665.929 359.94 666.589 359.34L663.449 355.5C662.249 356.3 661.649 357.2 661.649 358.28C661.649 359.36 662.489 360.32 664.109 360.32ZM676.279 362V347.7H681.839C685.779 347.7 688.199 350.26 688.199 354.86C688.199 359.46 685.859 362 681.899 362H676.279ZM678.659 349.72V359.98H681.719C684.919 359.98 685.819 357.6 685.819 354.86C685.819 352.12 684.919 349.72 681.719 349.72H678.659ZM694.407 360.58C696.147 360.58 696.847 359.5 697.027 358.88H699.127C698.607 360.82 697.087 362.3 694.467 362.3C691.287 362.3 689.347 360.1 689.347 356.9C689.347 353.58 691.287 351.5 694.367 351.5C697.667 351.5 699.287 353.8 699.287 357.44H691.447C691.447 359.16 692.547 360.58 694.407 360.58ZM694.367 353.16C692.667 353.16 691.447 354.3 691.447 355.88H697.187C697.187 354.3 696.067 353.16 694.367 353.16ZM700.767 347.7H702.887V362H700.767V347.7ZM705.95 350.06C705.37 350.06 704.77 349.66 704.77 348.94C704.77 348.22 705.37 347.84 705.95 347.84C706.57 347.84 707.15 348.22 707.15 348.94C707.15 349.66 706.57 350.06 705.95 350.06ZM704.91 351.78H707.01V362H704.91V351.78ZM708.145 351.78H710.365L712.945 359.78H712.965L715.545 351.78H717.765L714.145 362H711.765L708.145 351.78ZM723.04 360.58C724.78 360.58 725.48 359.5 725.66 358.88H727.76C727.24 360.82 725.72 362.3 723.1 362.3C719.92 362.3 717.98 360.1 717.98 356.9C717.98 353.58 719.92 351.5 723 351.5C726.3 351.5 727.92 353.8 727.92 357.44H720.08C720.08 359.16 721.18 360.58 723.04 360.58ZM723 353.16C721.3 353.16 720.08 354.3 720.08 355.88H725.82C725.82 354.3 724.7 353.16 723 353.16ZM734.219 351.54C734.579 351.54 734.839 351.56 735.139 351.6V353.58H735.099C733.079 353.24 731.459 354.6 731.459 356.78V362H729.359V351.78H731.459V353.7H731.499C732.039 352.42 732.879 351.54 734.219 351.54ZM745.567 351.78L741.487 362.64C740.907 364.22 740.247 365.48 738.287 365.48C737.687 365.48 737.187 365.38 736.787 365.28V363.68H736.967C737.847 363.8 738.507 363.74 738.967 363.18C739.347 362.72 739.627 361.92 739.247 360.96L735.547 351.78H737.807L740.667 359.6H740.707L743.327 351.78H745.567ZM615.79 381.48C618.85 382.26 621.17 382.92 621.17 386.12C621.17 388.4 619.45 390.3 615.85 390.3C612.35 390.3 609.69 388.48 609.55 385.24H611.93C612.05 387.06 613.29 388.26 615.85 388.26C617.97 388.26 618.79 387.32 618.79 386.22C618.79 384.52 617.57 384.2 614.75 383.5C612.51 382.94 610.09 382.08 610.09 379.36C610.09 376.82 612.05 375.4 615.17 375.4C618.31 375.4 620.59 377.04 620.79 379.98H618.41C618.19 378.32 617.15 377.44 615.17 377.44C613.47 377.44 612.45 378.08 612.45 379.14C612.45 380.7 613.79 380.98 615.79 381.48ZM627.366 388.58C629.106 388.58 629.806 387.5 629.986 386.88H632.086C631.566 388.82 630.046 390.3 627.426 390.3C624.246 390.3 622.306 388.1 622.306 384.9C622.306 381.58 624.246 379.5 627.326 379.5C630.626 379.5 632.246 381.8 632.246 385.44H624.406C624.406 387.16 625.506 388.58 627.366 388.58ZM627.326 381.16C625.626 381.16 624.406 382.3 624.406 383.88H630.146C630.146 382.3 629.026 381.16 627.326 381.16ZM638.37 381.5H636.45V387.04C636.45 388.2 637.01 388.34 638.37 388.26V389.98C637.95 390.08 637.49 390.14 636.93 390.14C635.25 390.14 634.33 389.38 634.33 387.22V381.5H632.85V379.78H634.33V376.56H636.45V379.78H638.37V381.5ZM644.542 381.5H642.622V387.04C642.622 388.2 643.182 388.34 644.542 388.26V389.98C644.122 390.08 643.662 390.14 643.102 390.14C641.422 390.14 640.502 389.38 640.502 387.22V381.5H639.022V379.78H640.502V376.56H642.622V379.78H644.542V381.5ZM647.248 378.06C646.668 378.06 646.068 377.66 646.068 376.94C646.068 376.22 646.668 375.84 647.248 375.84C647.868 375.84 648.448 376.22 648.448 376.94C648.448 377.66 647.868 378.06 647.248 378.06ZM646.208 379.78H648.308V390H646.208V379.78ZM655.943 379.5C657.843 379.5 659.343 380.6 659.343 382.94V390H657.223V383.54C657.223 382.16 656.643 381.28 655.203 381.28C653.583 381.28 652.543 382.26 652.543 383.78V390H650.443V379.78H652.543V381.1H652.583C653.123 380.3 654.183 379.5 655.943 379.5ZM668.344 379.78H670.444V389.3C670.444 392.24 668.664 393.54 665.764 393.54C662.824 393.54 661.204 392 660.984 390.28H663.104C663.304 391.18 664.024 391.86 665.684 391.86C667.444 391.86 668.344 391.06 668.344 389.22V387.98H668.304C667.764 388.74 666.824 389.5 665.204 389.5C662.644 389.5 660.724 387.72 660.724 384.5C660.724 381.26 662.644 379.5 665.204 379.5C666.824 379.5 667.764 380.26 668.304 380.98H668.344V379.78ZM665.604 387.78C667.304 387.78 668.324 386.66 668.324 384.5C668.324 382.34 667.304 381.22 665.604 381.22C663.764 381.22 662.824 382.6 662.824 384.5C662.824 386.38 663.764 387.78 665.604 387.78ZM676.856 383.82C678.736 384.26 680.776 384.68 680.776 387.12C680.776 389.08 679.096 390.3 676.616 390.3C673.316 390.3 671.896 388.76 671.796 386.6H673.836C673.936 387.7 674.416 388.64 676.576 388.64C678.036 388.64 678.656 387.92 678.656 387.28C678.656 386 677.436 385.9 675.936 385.54C674.316 385.16 672.116 384.84 672.116 382.52C672.116 380.84 673.596 379.5 676.156 379.5C678.936 379.5 680.256 381 680.396 382.78H678.356C678.216 381.98 677.816 381.16 676.176 381.16C674.916 381.16 674.236 381.64 674.236 382.36C674.236 383.4 675.376 383.48 676.856 383.82ZM691.63 381.48C694.69 382.26 697.01 382.92 697.01 386.12C697.01 388.4 695.29 390.3 691.69 390.3C688.19 390.3 685.53 388.48 685.39 385.24H687.77C687.89 387.06 689.13 388.26 691.69 388.26C693.81 388.26 694.63 387.32 694.63 386.22C694.63 384.52 693.41 384.2 690.59 383.5C688.35 382.94 685.93 382.08 685.93 379.36C685.93 376.82 687.89 375.4 691.01 375.4C694.15 375.4 696.43 377.04 696.63 379.98H694.25C694.03 378.32 692.99 377.44 691.01 377.44C689.31 377.44 688.29 378.08 688.29 379.14C688.29 380.7 689.63 380.98 691.63 381.48ZM698.866 390V375.7H704.946C707.686 375.7 709.666 376.98 709.666 379.98C709.666 382.98 707.686 384.28 704.946 384.28H701.246V390H698.866ZM701.246 377.72V382.24H704.846C706.446 382.24 707.286 381.56 707.286 379.98C707.286 378.42 706.446 377.72 704.846 377.72H701.246ZM718.378 386.62H712.538L711.378 390H708.958L714.218 375.7H716.718L721.958 390H719.538L718.378 386.62ZM713.198 384.64H717.738L715.498 377.88H715.458L713.198 384.64Z"
    fill="#CAE4DE"
  />
  <rect
    x="802.75"
    y="329"
    width="250.25"
    height="80"
    rx="12"
    fill="url(#paint7_linear_2522_2311)"
  />
  <path
    d="M899.574 376V361.7H902.654L906.654 372.7H906.694L910.674 361.7H913.754V376H911.434V365.16H911.394L907.614 376H905.714L901.934 365.16H901.894V376H899.574ZM920.69 374.58C922.43 374.58 923.13 373.5 923.31 372.88H925.41C924.89 374.82 923.37 376.3 920.75 376.3C917.57 376.3 915.63 374.1 915.63 370.9C915.63 367.58 917.57 365.5 920.65 365.5C923.95 365.5 925.57 367.8 925.57 371.44H917.73C917.73 373.16 918.83 374.58 920.69 374.58ZM920.65 367.16C918.95 367.16 917.73 368.3 917.73 369.88H923.47C923.47 368.3 922.35 367.16 920.65 367.16ZM932.51 365.5C934.41 365.5 935.91 366.6 935.91 368.94V376H933.79V369.54C933.79 368.16 933.21 367.28 931.77 367.28C930.15 367.28 929.11 368.26 929.11 369.78V376H927.01V365.78H929.11V367.1H929.15C929.69 366.3 930.75 365.5 932.51 365.5ZM944.55 365.78H946.65V376H944.55V374.68H944.51C943.97 375.48 942.91 376.28 941.15 376.28C939.25 376.28 937.75 375.18 937.75 372.84V365.78H939.87V372.24C939.87 373.62 940.45 374.5 941.89 374.5C943.51 374.5 944.55 373.52 944.55 372V365.78ZM953.07 369.82C954.95 370.26 956.99 370.68 956.99 373.12C956.99 375.08 955.31 376.3 952.83 376.3C949.53 376.3 948.11 374.76 948.01 372.6H950.05C950.15 373.7 950.63 374.64 952.79 374.64C954.25 374.64 954.87 373.92 954.87 373.28C954.87 372 953.65 371.9 952.15 371.54C950.53 371.16 948.33 370.84 948.33 368.52C948.33 366.84 949.81 365.5 952.37 365.5C955.15 365.5 956.47 367 956.61 368.78H954.57C954.43 367.98 954.03 367.16 952.39 367.16C951.13 367.16 950.45 367.64 950.45 368.36C950.45 369.4 951.59 369.48 953.07 369.82Z"
    fill="#CAE4DE"
  />
  <rect x="101" y="218" width="79" height="30" rx="15" fill="#00342C" />
  <rect x="101" y="218" width="79" height="30" rx="15" stroke="#6AAC9E" stroke-width="2" />
  <path
    d="M120.032 231.112C119.78 229.922 118.856 229.208 117.372 229.208C115.23 229.208 114.348 231.112 114.348 232.988C114.348 234.878 115.034 236.782 117.316 236.782C118.898 236.782 120.158 235.69 120.172 234.094H117.344V232.75H121.866V238H120.718L120.354 236.628H120.326C119.654 237.636 118.716 238.21 117.204 238.21C114.306 238.21 112.682 236.012 112.682 232.988C112.682 229.978 114.502 227.78 117.386 227.78C119.99 227.78 121.39 229.194 121.698 231.112H120.032ZM126.699 230.678C126.951 230.678 127.133 230.692 127.343 230.72V232.106H127.315C125.901 231.868 124.767 232.82 124.767 234.346V238H123.297V230.846H124.767V232.19H124.795C125.173 231.294 125.761 230.678 126.699 230.678ZM132.367 232.722C132.367 232.204 132.059 231.812 131.079 231.812C129.903 231.812 129.469 232.176 129.399 233.1H127.971C128.041 231.728 128.923 230.65 131.079 230.65C132.661 230.65 133.837 231.252 133.837 233.156V236.558C133.837 237.062 133.949 237.328 134.523 237.272V237.972C134.187 238.098 133.949 238.126 133.669 238.126C132.885 238.126 132.521 237.846 132.381 237.146H132.353C131.905 237.776 131.093 238.21 129.987 238.21C128.531 238.21 127.635 237.37 127.635 236.166C127.635 234.598 128.797 234.108 130.589 233.758C131.695 233.548 132.367 233.408 132.367 232.722ZM130.309 237.048C131.527 237.048 132.367 236.446 132.367 235.284V234.206C132.129 234.374 131.555 234.542 130.869 234.682C129.651 234.948 129.119 235.298 129.119 236.026C129.119 236.684 129.511 237.048 130.309 237.048ZM139.093 230.65C140.913 230.65 142.271 232.078 142.271 234.43C142.271 236.782 140.913 238.21 139.093 238.21C137.973 238.21 137.273 237.678 136.895 237.146H136.867V240.436H135.383V230.846H136.867V231.686H136.895C137.273 231.182 137.973 230.65 139.093 230.65ZM138.813 237.006C140.101 237.006 140.787 235.83 140.787 234.43C140.787 233.03 140.101 231.854 138.813 231.854C137.623 231.854 136.881 232.834 136.881 234.43C136.881 236.012 137.623 237.006 138.813 237.006ZM147.162 230.65C148.52 230.65 149.57 231.42 149.57 233.058V238H148.086V233.478C148.086 232.512 147.68 231.896 146.658 231.896C145.58 231.896 144.81 232.582 144.81 233.646V238H143.34V227.99H144.81V231.77H144.838C145.216 231.21 145.958 230.65 147.162 230.65ZM160.518 232.988C160.518 234.374 160.112 235.592 159.384 236.502L160.504 237.622L159.524 238.602L158.362 237.44C157.606 237.93 156.668 238.21 155.604 238.21C152.58 238.21 150.69 235.998 150.69 232.988C150.69 229.978 152.58 227.78 155.604 227.78C158.614 227.78 160.518 229.978 160.518 232.988ZM155.604 236.782C156.276 236.782 156.836 236.628 157.298 236.362L155.94 235.004L156.92 234.024L158.264 235.382C158.67 234.724 158.852 233.884 158.852 232.988C158.852 230.972 157.9 229.208 155.604 229.208C153.308 229.208 152.342 230.972 152.342 232.988C152.342 235.018 153.308 236.782 155.604 236.782ZM161.841 227.99H163.507V236.586H168.505V238H161.841V227.99Z"
    fill="#CAE4DE"
  />
  <rect x="363" y="218" width="79" height="30" rx="15" fill="#00342C" />
  <rect x="363" y="218" width="79" height="30" rx="15" stroke="#6AAC9E" stroke-width="2" />
  <path
    d="M382.032 231.112C381.78 229.922 380.856 229.208 379.372 229.208C377.23 229.208 376.348 231.112 376.348 232.988C376.348 234.878 377.034 236.782 379.316 236.782C380.898 236.782 382.158 235.69 382.172 234.094H379.344V232.75H383.866V238H382.718L382.354 236.628H382.326C381.654 237.636 380.716 238.21 379.204 238.21C376.306 238.21 374.682 236.012 374.682 232.988C374.682 229.978 376.502 227.78 379.386 227.78C381.99 227.78 383.39 229.194 383.698 231.112H382.032ZM388.699 230.678C388.951 230.678 389.133 230.692 389.343 230.72V232.106H389.315C387.901 231.868 386.767 232.82 386.767 234.346V238H385.297V230.846H386.767V232.19H386.795C387.173 231.294 387.761 230.678 388.699 230.678ZM394.367 232.722C394.367 232.204 394.059 231.812 393.079 231.812C391.903 231.812 391.469 232.176 391.399 233.1H389.971C390.041 231.728 390.923 230.65 393.079 230.65C394.661 230.65 395.837 231.252 395.837 233.156V236.558C395.837 237.062 395.949 237.328 396.523 237.272V237.972C396.187 238.098 395.949 238.126 395.669 238.126C394.885 238.126 394.521 237.846 394.381 237.146H394.353C393.905 237.776 393.093 238.21 391.987 238.21C390.531 238.21 389.635 237.37 389.635 236.166C389.635 234.598 390.797 234.108 392.589 233.758C393.695 233.548 394.367 233.408 394.367 232.722ZM392.309 237.048C393.527 237.048 394.367 236.446 394.367 235.284V234.206C394.129 234.374 393.555 234.542 392.869 234.682C391.651 234.948 391.119 235.298 391.119 236.026C391.119 236.684 391.511 237.048 392.309 237.048ZM401.093 230.65C402.913 230.65 404.271 232.078 404.271 234.43C404.271 236.782 402.913 238.21 401.093 238.21C399.973 238.21 399.273 237.678 398.895 237.146H398.867V240.436H397.383V230.846H398.867V231.686H398.895C399.273 231.182 399.973 230.65 401.093 230.65ZM400.813 237.006C402.101 237.006 402.787 235.83 402.787 234.43C402.787 233.03 402.101 231.854 400.813 231.854C399.623 231.854 398.881 232.834 398.881 234.43C398.881 236.012 399.623 237.006 400.813 237.006ZM409.162 230.65C410.52 230.65 411.57 231.42 411.57 233.058V238H410.086V233.478C410.086 232.512 409.68 231.896 408.658 231.896C407.58 231.896 406.81 232.582 406.81 233.646V238H405.34V227.99H406.81V231.77H406.838C407.216 231.21 407.958 230.65 409.162 230.65ZM422.518 232.988C422.518 234.374 422.112 235.592 421.384 236.502L422.504 237.622L421.524 238.602L420.362 237.44C419.606 237.93 418.668 238.21 417.604 238.21C414.58 238.21 412.69 235.998 412.69 232.988C412.69 229.978 414.58 227.78 417.604 227.78C420.614 227.78 422.518 229.978 422.518 232.988ZM417.604 236.782C418.276 236.782 418.836 236.628 419.298 236.362L417.94 235.004L418.92 234.024L420.264 235.382C420.67 234.724 420.852 233.884 420.852 232.988C420.852 230.972 419.9 229.208 417.604 229.208C415.308 229.208 414.342 230.972 414.342 232.988C414.342 235.018 415.308 236.782 417.604 236.782ZM423.841 227.99H425.507V236.586H430.505V238H423.841V227.99Z"
    fill="#CAE4DE"
  />
  <rect x="626" y="218" width="79" height="30" rx="15" fill="#00342C" />
  <rect x="626" y="218" width="79" height="30" rx="15" stroke="#6AAC9E" stroke-width="2" />
  <path
    d="M645.032 231.112C644.78 229.922 643.856 229.208 642.372 229.208C640.23 229.208 639.348 231.112 639.348 232.988C639.348 234.878 640.034 236.782 642.316 236.782C643.898 236.782 645.158 235.69 645.172 234.094H642.344V232.75H646.866V238H645.718L645.354 236.628H645.326C644.654 237.636 643.716 238.21 642.204 238.21C639.306 238.21 637.682 236.012 637.682 232.988C637.682 229.978 639.502 227.78 642.386 227.78C644.99 227.78 646.39 229.194 646.698 231.112H645.032ZM651.699 230.678C651.951 230.678 652.133 230.692 652.343 230.72V232.106H652.315C650.901 231.868 649.767 232.82 649.767 234.346V238H648.297V230.846H649.767V232.19H649.795C650.173 231.294 650.761 230.678 651.699 230.678ZM657.367 232.722C657.367 232.204 657.059 231.812 656.079 231.812C654.903 231.812 654.469 232.176 654.399 233.1H652.971C653.041 231.728 653.923 230.65 656.079 230.65C657.661 230.65 658.837 231.252 658.837 233.156V236.558C658.837 237.062 658.949 237.328 659.523 237.272V237.972C659.187 238.098 658.949 238.126 658.669 238.126C657.885 238.126 657.521 237.846 657.381 237.146H657.353C656.905 237.776 656.093 238.21 654.987 238.21C653.531 238.21 652.635 237.37 652.635 236.166C652.635 234.598 653.797 234.108 655.589 233.758C656.695 233.548 657.367 233.408 657.367 232.722ZM655.309 237.048C656.527 237.048 657.367 236.446 657.367 235.284V234.206C657.129 234.374 656.555 234.542 655.869 234.682C654.651 234.948 654.119 235.298 654.119 236.026C654.119 236.684 654.511 237.048 655.309 237.048ZM664.093 230.65C665.913 230.65 667.271 232.078 667.271 234.43C667.271 236.782 665.913 238.21 664.093 238.21C662.973 238.21 662.273 237.678 661.895 237.146H661.867V240.436H660.383V230.846H661.867V231.686H661.895C662.273 231.182 662.973 230.65 664.093 230.65ZM663.813 237.006C665.101 237.006 665.787 235.83 665.787 234.43C665.787 233.03 665.101 231.854 663.813 231.854C662.623 231.854 661.881 232.834 661.881 234.43C661.881 236.012 662.623 237.006 663.813 237.006ZM672.162 230.65C673.52 230.65 674.57 231.42 674.57 233.058V238H673.086V233.478C673.086 232.512 672.68 231.896 671.658 231.896C670.58 231.896 669.81 232.582 669.81 233.646V238H668.34V227.99H669.81V231.77H669.838C670.216 231.21 670.958 230.65 672.162 230.65ZM685.518 232.988C685.518 234.374 685.112 235.592 684.384 236.502L685.504 237.622L684.524 238.602L683.362 237.44C682.606 237.93 681.668 238.21 680.604 238.21C677.58 238.21 675.69 235.998 675.69 232.988C675.69 229.978 677.58 227.78 680.604 227.78C683.614 227.78 685.518 229.978 685.518 232.988ZM680.604 236.782C681.276 236.782 681.836 236.628 682.298 236.362L680.94 235.004L681.92 234.024L683.264 235.382C683.67 234.724 683.852 233.884 683.852 232.988C683.852 230.972 682.9 229.208 680.604 229.208C678.308 229.208 677.342 230.972 677.342 232.988C677.342 235.018 678.308 236.782 680.604 236.782ZM686.841 227.99H688.507V236.586H693.505V238H686.841V227.99Z"
    fill="#CAE4DE"
  />
  <rect x="888" y="218" width="79" height="30" rx="15" fill="#00342C" />
  <rect x="888" y="218" width="79" height="30" rx="15" stroke="#6AAC9E" stroke-width="2" />
  <path
    d="M907.032 231.112C906.78 229.922 905.856 229.208 904.372 229.208C902.23 229.208 901.348 231.112 901.348 232.988C901.348 234.878 902.034 236.782 904.316 236.782C905.898 236.782 907.158 235.69 907.172 234.094H904.344V232.75H908.866V238H907.718L907.354 236.628H907.326C906.654 237.636 905.716 238.21 904.204 238.21C901.306 238.21 899.682 236.012 899.682 232.988C899.682 229.978 901.502 227.78 904.386 227.78C906.99 227.78 908.39 229.194 908.698 231.112H907.032ZM913.699 230.678C913.951 230.678 914.133 230.692 914.343 230.72V232.106H914.315C912.901 231.868 911.767 232.82 911.767 234.346V238H910.297V230.846H911.767V232.19H911.795C912.173 231.294 912.761 230.678 913.699 230.678ZM919.367 232.722C919.367 232.204 919.059 231.812 918.079 231.812C916.903 231.812 916.469 232.176 916.399 233.1H914.971C915.041 231.728 915.923 230.65 918.079 230.65C919.661 230.65 920.837 231.252 920.837 233.156V236.558C920.837 237.062 920.949 237.328 921.523 237.272V237.972C921.187 238.098 920.949 238.126 920.669 238.126C919.885 238.126 919.521 237.846 919.381 237.146H919.353C918.905 237.776 918.093 238.21 916.987 238.21C915.531 238.21 914.635 237.37 914.635 236.166C914.635 234.598 915.797 234.108 917.589 233.758C918.695 233.548 919.367 233.408 919.367 232.722ZM917.309 237.048C918.527 237.048 919.367 236.446 919.367 235.284V234.206C919.129 234.374 918.555 234.542 917.869 234.682C916.651 234.948 916.119 235.298 916.119 236.026C916.119 236.684 916.511 237.048 917.309 237.048ZM926.093 230.65C927.913 230.65 929.271 232.078 929.271 234.43C929.271 236.782 927.913 238.21 926.093 238.21C924.973 238.21 924.273 237.678 923.895 237.146H923.867V240.436H922.383V230.846H923.867V231.686H923.895C924.273 231.182 924.973 230.65 926.093 230.65ZM925.813 237.006C927.101 237.006 927.787 235.83 927.787 234.43C927.787 233.03 927.101 231.854 925.813 231.854C924.623 231.854 923.881 232.834 923.881 234.43C923.881 236.012 924.623 237.006 925.813 237.006ZM934.162 230.65C935.52 230.65 936.57 231.42 936.57 233.058V238H935.086V233.478C935.086 232.512 934.68 231.896 933.658 231.896C932.58 231.896 931.81 232.582 931.81 233.646V238H930.34V227.99H931.81V231.77H931.838C932.216 231.21 932.958 230.65 934.162 230.65ZM947.518 232.988C947.518 234.374 947.112 235.592 946.384 236.502L947.504 237.622L946.524 238.602L945.362 237.44C944.606 237.93 943.668 238.21 942.604 238.21C939.58 238.21 937.69 235.998 937.69 232.988C937.69 229.978 939.58 227.78 942.604 227.78C945.614 227.78 947.518 229.978 947.518 232.988ZM942.604 236.782C943.276 236.782 943.836 236.628 944.298 236.362L942.94 235.004L943.92 234.024L945.264 235.382C945.67 234.724 945.852 233.884 945.852 232.988C945.852 230.972 944.9 229.208 942.604 229.208C940.308 229.208 939.342 230.972 939.342 232.988C939.342 235.018 940.308 236.782 942.604 236.782ZM948.841 227.99H950.507V236.586H955.505V238H948.841V227.99Z"
    fill="#CAE4DE"
  />
  <rect x="16" y="657" width="250.25" height="80" rx="12" fill="url(#paint8_linear_2522_2311)" />
  <path
    d="M82.1009 704V689.7H88.2009C91.1409 689.7 93.0409 691.2 93.0409 693.8C93.0409 695.8 92.0209 696.96 90.3809 697.36V697.4C93.6809 698.02 92.4809 703.62 93.2409 703.86V704H90.7409C90.0809 703.4 91.4209 698.48 87.9809 698.48H84.4809V704H82.1009ZM84.4809 691.72V696.44H87.7009C89.1609 696.44 90.6809 696.16 90.6809 694.08C90.6809 692.02 89.1609 691.72 87.7009 691.72H84.4809ZM99.1938 702.58C100.934 702.58 101.634 701.5 101.814 700.88H103.914C103.394 702.82 101.874 704.3 99.2538 704.3C96.0738 704.3 94.1338 702.1 94.1338 698.9C94.1338 695.58 96.0738 693.5 99.1538 693.5C102.454 693.5 104.074 695.8 104.074 699.44H96.2338C96.2338 701.16 97.3338 702.58 99.1938 702.58ZM99.1538 695.16C97.4538 695.16 96.2338 696.3 96.2338 697.88H101.974C101.974 696.3 100.854 695.16 99.1538 695.16ZM110.814 693.5C113.414 693.5 115.354 695.54 115.354 698.9C115.354 702.26 113.414 704.3 110.814 704.3C109.214 704.3 108.214 703.54 107.674 702.78H107.634V707.48H105.514V693.78H107.634V694.98H107.674C108.214 694.26 109.214 693.5 110.814 693.5ZM110.414 702.58C112.254 702.58 113.234 700.9 113.234 698.9C113.234 696.9 112.254 695.22 110.414 695.22C108.714 695.22 107.654 696.62 107.654 698.9C107.654 701.16 108.714 702.58 110.414 702.58ZM121.481 704.3C118.281 704.3 116.341 702.08 116.341 698.9C116.341 695.72 118.281 693.5 121.481 693.5C124.681 693.5 126.621 695.72 126.621 698.9C126.621 702.08 124.681 704.3 121.481 704.3ZM121.481 702.58C123.481 702.58 124.521 701 124.521 698.9C124.521 696.78 123.481 695.22 121.481 695.22C119.481 695.22 118.441 696.78 118.441 698.9C118.441 701 119.481 702.58 121.481 702.58ZM132.932 693.54C133.292 693.54 133.552 693.56 133.852 693.6V695.58H133.812C131.792 695.24 130.172 696.6 130.172 698.78V704H128.072V693.78H130.172V695.7H130.212C130.752 694.42 131.592 693.54 132.932 693.54ZM140.14 695.5H138.22V701.04C138.22 702.2 138.78 702.34 140.14 702.26V703.98C139.72 704.08 139.26 704.14 138.7 704.14C137.02 704.14 136.1 703.38 136.1 701.22V695.5H134.62V693.78H136.1V690.56H138.22V693.78H140.14V695.5ZM142.846 692.06C142.266 692.06 141.666 691.66 141.666 690.94C141.666 690.22 142.266 689.84 142.846 689.84C143.466 689.84 144.046 690.22 144.046 690.94C144.046 691.66 143.466 692.06 142.846 692.06ZM141.806 693.78H143.906V704H141.806V693.78ZM151.541 693.5C153.441 693.5 154.941 694.6 154.941 696.94V704H152.821V697.54C152.821 696.16 152.241 695.28 150.801 695.28C149.181 695.28 148.141 696.26 148.141 697.78V704H146.041V693.78H148.141V695.1H148.181C148.721 694.3 149.781 693.5 151.541 693.5ZM163.941 693.78H166.041V703.3C166.041 706.24 164.261 707.54 161.361 707.54C158.421 707.54 156.801 706 156.581 704.28H158.701C158.901 705.18 159.621 705.86 161.281 705.86C163.041 705.86 163.941 705.06 163.941 703.22V701.98H163.901C163.361 702.74 162.421 703.5 160.801 703.5C158.241 703.5 156.321 701.72 156.321 698.5C156.321 695.26 158.241 693.5 160.801 693.5C162.421 693.5 163.361 694.26 163.901 694.98H163.941V693.78ZM161.201 701.78C162.901 701.78 163.921 700.66 163.921 698.5C163.921 696.34 162.901 695.22 161.201 695.22C159.361 695.22 158.421 696.6 158.421 698.5C158.421 700.38 159.361 701.78 161.201 701.78ZM180.382 700.62H174.542L173.382 704H170.962L176.222 689.7H178.722L183.962 704H181.542L180.382 700.62ZM175.202 698.64H179.742L177.502 691.88H177.462L175.202 698.64ZM185.324 704V689.7H191.404C194.144 689.7 196.124 690.98 196.124 693.98C196.124 696.98 194.144 698.28 191.404 698.28H187.704V704H185.324ZM187.704 691.72V696.24H191.304C192.904 696.24 193.744 695.56 193.744 693.98C193.744 692.42 192.904 691.72 191.304 691.72H187.704ZM197.746 689.7H200.126V704H197.746V689.7Z"
    fill="#CAE4DE"
  />
  <rect
    x="278.25"
    y="657"
    width="250.25"
    height="80"
    rx="12"
    fill="url(#paint9_linear_2522_2311)"
  />
  <path
    d="M292.964 704V691.72H288.384V689.7H299.904V691.72H295.344V704H292.964ZM305.184 696.46C305.184 695.72 304.744 695.16 303.344 695.16C301.664 695.16 301.044 695.68 300.944 697H298.904C299.004 695.04 300.264 693.5 303.344 693.5C305.604 693.5 307.284 694.36 307.284 697.08V701.94C307.284 702.66 307.444 703.04 308.264 702.96V703.96C307.784 704.14 307.444 704.18 307.044 704.18C305.924 704.18 305.404 703.78 305.204 702.78H305.164C304.524 703.68 303.364 704.3 301.784 704.3C299.704 704.3 298.424 703.1 298.424 701.38C298.424 699.14 300.084 698.44 302.644 697.94C304.224 697.64 305.184 697.44 305.184 696.46ZM302.244 702.64C303.984 702.64 305.184 701.78 305.184 700.12V698.58C304.844 698.82 304.024 699.06 303.044 699.26C301.304 699.64 300.544 700.14 300.544 701.18C300.544 702.12 301.104 702.64 302.244 702.64ZM309.492 689.7H311.592V697.88L315.752 693.78H318.332L314.452 697.58L318.752 704H316.232L313.012 698.96L311.592 700.3V704H309.492V689.7ZM323.583 702.58C325.323 702.58 326.023 701.5 326.203 700.88H328.303C327.783 702.82 326.263 704.3 323.643 704.3C320.463 704.3 318.523 702.1 318.523 698.9C318.523 695.58 320.463 693.5 323.543 693.5C326.843 693.5 328.463 695.8 328.463 699.44H320.623C320.623 701.16 321.723 702.58 323.583 702.58ZM323.543 695.16C321.843 695.16 320.623 696.3 320.623 697.88H326.363C326.363 696.3 325.243 695.16 323.543 695.16ZM334.502 704.3C331.302 704.3 329.362 702.08 329.362 698.9C329.362 695.72 331.302 693.5 334.502 693.5C337.702 693.5 339.642 695.72 339.642 698.9C339.642 702.08 337.702 704.3 334.502 704.3ZM334.502 702.58C336.502 702.58 337.542 701 337.542 698.9C337.542 696.78 336.502 695.22 334.502 695.22C332.502 695.22 331.462 696.78 331.462 698.9C331.462 701 332.502 702.58 334.502 702.58ZM347.814 693.78H349.914V704H347.814V702.68H347.774C347.234 703.48 346.174 704.28 344.414 704.28C342.514 704.28 341.014 703.18 341.014 700.84V693.78H343.134V700.24C343.134 701.62 343.714 702.5 345.154 702.5C346.774 702.5 347.814 701.52 347.814 700V693.78ZM356.794 695.5H354.874V701.04C354.874 702.2 355.434 702.34 356.794 702.26V703.98C356.374 704.08 355.914 704.14 355.354 704.14C353.674 704.14 352.754 703.38 352.754 701.22V695.5H351.274V693.78H352.754V690.56H354.874V693.78H356.794V695.5ZM373.669 704H371.089L370.129 702.84C369.149 703.72 367.869 704.3 366.289 704.3C363.369 704.3 361.809 702.66 361.809 700.48C361.809 698.36 363.309 697.22 364.809 696.34C363.809 695.12 363.129 694.16 363.129 692.82C363.129 691.14 364.329 689.42 366.789 689.4C369.089 689.38 370.449 691.14 370.449 692.82C370.449 694.44 369.369 695.44 367.489 696.52L370.109 699.68C370.489 698.88 370.749 698 370.889 697.12H372.869C372.689 698.48 372.229 700 371.429 701.28L373.669 704ZM366.789 691.38C365.749 691.38 365.169 692.1 365.169 692.96C365.169 693.76 365.749 694.48 366.509 695.36C367.689 694.64 368.409 694 368.409 692.96C368.409 692.1 367.849 691.38 366.789 691.38ZM366.429 702.32C367.429 702.32 368.249 701.94 368.909 701.34L365.769 697.5C364.569 698.3 363.969 699.2 363.969 700.28C363.969 701.36 364.809 702.32 366.429 702.32ZM378.599 704V689.7H384.159C388.099 689.7 390.519 692.26 390.519 696.86C390.519 701.46 388.179 704 384.219 704H378.599ZM380.979 691.72V701.98H384.039C387.239 701.98 388.139 699.6 388.139 696.86C388.139 694.12 387.239 691.72 384.039 691.72H380.979ZM396.727 702.58C398.467 702.58 399.167 701.5 399.347 700.88H401.447C400.927 702.82 399.407 704.3 396.787 704.3C393.607 704.3 391.667 702.1 391.667 698.9C391.667 695.58 393.607 693.5 396.687 693.5C399.987 693.5 401.607 695.8 401.607 699.44H393.767C393.767 701.16 394.867 702.58 396.727 702.58ZM396.687 695.16C394.987 695.16 393.767 696.3 393.767 697.88H399.507C399.507 696.3 398.387 695.16 396.687 695.16ZM403.087 689.7H405.207V704H403.087V689.7ZM408.27 692.06C407.69 692.06 407.09 691.66 407.09 690.94C407.09 690.22 407.69 689.84 408.27 689.84C408.89 689.84 409.47 690.22 409.47 690.94C409.47 691.66 408.89 692.06 408.27 692.06ZM407.23 693.78H409.33V704H407.23V693.78ZM410.465 693.78H412.685L415.265 701.78H415.285L417.865 693.78H420.085L416.465 704H414.085L410.465 693.78ZM425.36 702.58C427.1 702.58 427.8 701.5 427.98 700.88H430.08C429.56 702.82 428.04 704.3 425.42 704.3C422.24 704.3 420.3 702.1 420.3 698.9C420.3 695.58 422.24 693.5 425.32 693.5C428.62 693.5 430.24 695.8 430.24 699.44H422.4C422.4 701.16 423.5 702.58 425.36 702.58ZM425.32 695.16C423.62 695.16 422.4 696.3 422.4 697.88H428.14C428.14 696.3 427.02 695.16 425.32 695.16ZM436.54 693.54C436.9 693.54 437.16 693.56 437.46 693.6V695.58H437.42C435.4 695.24 433.78 696.6 433.78 698.78V704H431.68V693.78H433.78V695.7H433.82C434.36 694.42 435.2 693.54 436.54 693.54ZM447.887 693.78L443.807 704.64C443.227 706.22 442.567 707.48 440.607 707.48C440.007 707.48 439.507 707.38 439.107 707.28V705.68H439.287C440.167 705.8 440.827 705.74 441.287 705.18C441.667 704.72 441.947 703.92 441.567 702.96L437.867 693.78H440.127L442.987 701.6H443.027L445.647 693.78H447.887ZM452.935 704V689.7H458.495C462.435 689.7 464.855 692.26 464.855 696.86C464.855 701.46 462.515 704 458.555 704H452.935ZM455.315 691.72V701.98H458.375C461.575 701.98 462.475 699.6 462.475 696.86C462.475 694.12 461.575 691.72 458.375 691.72H455.315ZM471.143 704.3C467.943 704.3 466.003 702.08 466.003 698.9C466.003 695.72 467.943 693.5 471.143 693.5C474.343 693.5 476.283 695.72 476.283 698.9C476.283 702.08 474.343 704.3 471.143 704.3ZM471.143 702.58C473.143 702.58 474.183 701 474.183 698.9C474.183 696.78 473.143 695.22 471.143 695.22C469.143 695.22 468.103 696.78 468.103 698.9C468.103 701 469.143 702.58 471.143 702.58ZM489.014 693.5C491.074 693.5 492.134 694.74 492.134 696.94V704H490.014V697.54C490.014 696.16 489.734 695.28 488.294 695.28C486.874 695.28 485.994 696.26 485.994 697.78V704H483.874V697.54C483.874 696.16 483.594 695.28 482.134 695.28C480.734 695.28 479.834 696.26 479.834 697.78V704H477.734V693.78H479.834V695.1H479.874C480.414 694.3 481.374 693.5 482.914 693.5C484.354 693.5 485.214 694.16 485.634 695.26H485.674C486.434 694.28 487.434 693.5 489.014 693.5ZM500.262 696.46C500.262 695.72 499.822 695.16 498.422 695.16C496.742 695.16 496.122 695.68 496.022 697H493.982C494.082 695.04 495.342 693.5 498.422 693.5C500.682 693.5 502.362 694.36 502.362 697.08V701.94C502.362 702.66 502.522 703.04 503.342 702.96V703.96C502.862 704.14 502.522 704.18 502.122 704.18C501.002 704.18 500.482 703.78 500.282 702.78H500.242C499.602 703.68 498.442 704.3 496.862 704.3C494.782 704.3 493.502 703.1 493.502 701.38C493.502 699.14 495.162 698.44 497.722 697.94C499.302 697.64 500.262 697.44 500.262 696.46ZM497.322 702.64C499.062 702.64 500.262 701.78 500.262 700.12V698.58C499.922 698.82 499.102 699.06 498.122 699.26C496.382 699.64 495.622 700.14 495.622 701.18C495.622 702.12 496.182 702.64 497.322 702.64ZM505.75 692.06C505.17 692.06 504.57 691.66 504.57 690.94C504.57 690.22 505.17 689.84 505.75 689.84C506.37 689.84 506.95 690.22 506.95 690.94C506.95 691.66 506.37 692.06 505.75 692.06ZM504.71 693.78H506.81V704H504.71V693.78ZM514.445 693.5C516.345 693.5 517.845 694.6 517.845 696.94V704H515.725V697.54C515.725 696.16 515.145 695.28 513.705 695.28C512.085 695.28 511.045 696.26 511.045 697.78V704H508.945V693.78H511.045V695.1H511.085C511.625 694.3 512.685 693.5 514.445 693.5Z"
    fill="#CAE4DE"
  />
  <rect
    x="540.5"
    y="657"
    width="250.25"
    height="80"
    rx="12"
    fill="url(#paint10_linear_2522_2311)"
  />
  <path
    d="M637.324 704V689.7H640.404L644.404 700.7H644.444L648.424 689.7H651.504V704H649.184V693.16H649.144L645.364 704H643.464L639.684 693.16H639.644V704H637.324ZM658.44 702.58C660.18 702.58 660.88 701.5 661.06 700.88H663.16C662.64 702.82 661.12 704.3 658.5 704.3C655.32 704.3 653.38 702.1 653.38 698.9C653.38 695.58 655.32 693.5 658.4 693.5C661.7 693.5 663.32 695.8 663.32 699.44H655.48C655.48 701.16 656.58 702.58 658.44 702.58ZM658.4 695.16C656.7 695.16 655.48 696.3 655.48 697.88H661.22C661.22 696.3 660.1 695.16 658.4 695.16ZM670.26 693.5C672.16 693.5 673.66 694.6 673.66 696.94V704H671.54V697.54C671.54 696.16 670.96 695.28 669.52 695.28C667.9 695.28 666.86 696.26 666.86 697.78V704H664.76V693.78H666.86V695.1H666.9C667.44 694.3 668.5 693.5 670.26 693.5ZM682.3 693.78H684.4V704H682.3V702.68H682.26C681.72 703.48 680.66 704.28 678.9 704.28C677 704.28 675.5 703.18 675.5 700.84V693.78H677.62V700.24C677.62 701.62 678.2 702.5 679.64 702.5C681.26 702.5 682.3 701.52 682.3 700V693.78ZM690.82 697.82C692.7 698.26 694.74 698.68 694.74 701.12C694.74 703.08 693.06 704.3 690.58 704.3C687.28 704.3 685.86 702.76 685.76 700.6H687.8C687.9 701.7 688.38 702.64 690.54 702.64C692 702.64 692.62 701.92 692.62 701.28C692.62 700 691.4 699.9 689.9 699.54C688.28 699.16 686.08 698.84 686.08 696.52C686.08 694.84 687.56 693.5 690.12 693.5C692.9 693.5 694.22 695 694.36 696.78H692.32C692.18 695.98 691.78 695.16 690.14 695.16C688.88 695.16 688.2 695.64 688.2 696.36C688.2 697.4 689.34 697.48 690.82 697.82Z"
    fill="#CAE4DE"
  />
  <rect
    x="802.75"
    y="657"
    width="250.25"
    height="80"
    rx="12"
    fill="url(#paint11_linear_2522_2311)"
  />
  <path
    d="M888.598 689.7H890.978V704H888.598V689.7ZM898.721 693.5C900.621 693.5 902.121 694.6 902.121 696.94V704H900.001V697.54C900.001 696.16 899.421 695.28 897.981 695.28C896.361 695.28 895.321 696.26 895.321 697.78V704H893.221V693.78H895.321V695.1H895.361C895.901 694.3 896.961 693.5 898.721 693.5ZM902.846 693.78H905.066L907.646 701.78H907.666L910.246 693.78H912.466L908.846 704H906.466L902.846 693.78ZM917.741 702.58C919.481 702.58 920.181 701.5 920.361 700.88H922.461C921.941 702.82 920.421 704.3 917.801 704.3C914.621 704.3 912.681 702.1 912.681 698.9C912.681 695.58 914.621 693.5 917.701 693.5C921.001 693.5 922.621 695.8 922.621 699.44H914.781C914.781 701.16 915.881 702.58 917.741 702.58ZM917.701 695.16C916.001 695.16 914.781 696.3 914.781 697.88H920.521C920.521 696.3 919.401 695.16 917.701 695.16ZM929.561 693.5C931.461 693.5 932.961 694.6 932.961 696.94V704H930.841V697.54C930.841 696.16 930.261 695.28 928.821 695.28C927.201 695.28 926.161 696.26 926.161 697.78V704H924.061V693.78H926.161V695.1H926.201C926.741 694.3 927.801 693.5 929.561 693.5ZM939.566 695.5H937.646V701.04C937.646 702.2 938.206 702.34 939.566 702.26V703.98C939.146 704.08 938.686 704.14 938.126 704.14C936.446 704.14 935.526 703.38 935.526 701.22V695.5H934.046V693.78H935.526V690.56H937.646V693.78H939.566V695.5ZM945.594 704.3C942.394 704.3 940.454 702.08 940.454 698.9C940.454 695.72 942.394 693.5 945.594 693.5C948.794 693.5 950.734 695.72 950.734 698.9C950.734 702.08 948.794 704.3 945.594 704.3ZM945.594 702.58C947.594 702.58 948.634 701 948.634 698.9C948.634 696.78 947.594 695.22 945.594 695.22C943.594 695.22 942.554 696.78 942.554 698.9C942.554 701 943.594 702.58 945.594 702.58ZM957.046 693.54C957.406 693.54 957.666 693.56 957.966 693.6V695.58H957.926C955.906 695.24 954.286 696.6 954.286 698.78V704H952.186V693.78H954.286V695.7H954.326C954.866 694.42 955.706 693.54 957.046 693.54ZM968.393 693.78L964.313 704.64C963.733 706.22 963.073 707.48 961.113 707.48C960.513 707.48 960.013 707.38 959.613 707.28V705.68H959.793C960.673 705.8 961.333 705.74 961.793 705.18C962.173 704.72 962.453 703.92 962.073 702.96L958.373 693.78H960.633L963.493 701.6H963.533L966.153 693.78H968.393Z"
    fill="#CAE4DE"
  />
  <path d="M403 219L403 144" stroke="#6AAC9E" stroke-width="2" />
  <path d="M403 329L403 247" stroke="#6AAC9E" stroke-width="2" />
  <path d="M666 219L666 144" stroke="#6AAC9E" stroke-width="2" />
  <path d="M666 329L666 247" stroke="#6AAC9E" stroke-width="2" />
  <path d="M928 219L928 144" stroke="#6AAC9E" stroke-width="2" />
  <path d="M141 219L141 144" stroke="#6AAC9E" stroke-width="2" />
  <path d="M141 329L141 247" stroke="#6AAC9E" stroke-width="2" />
  <path d="M928 329L928 247" stroke="#6AAC9E" stroke-width="2" />
  <path d="M84 657V409" stroke="#CFCABF" stroke-width="2" />
  <path d="M403 657V409" stroke="#CFCABF" stroke-width="2" />
  <path d="M986 657V409" stroke="#CFCABF" stroke-width="2" />
  <path d="M698 657V409" stroke="#CFCABF" stroke-width="2" />
  <path
    d="M142 409L142 485.372C142 494.209 149.163 501.372 158 501.372H311C319.837 501.372 327 508.536 327 517.372V657"
    stroke="#CFCABF"
    stroke-width="2"
  />
  <path
    d="M221.5 409L221.5 454.5C221.5 463.337 228.663 470.5 237.5 470.5H557C565.837 470.5 573 477.663 573 486.5V657"
    stroke="#CFCABF"
    stroke-width="2"
  />
  <path
    d="M480.002 409L480.001 423.622C480 432.459 487.164 439.623 496.001 439.623H618.998C627.835 439.623 634.998 446.787 634.998 455.623L635 657"
    stroke="#CFCABF"
    stroke-width="2"
  />
  <path
    d="M323.998 409L323.999 423.623C324 432.46 316.836 439.623 307.999 439.623H205.002C196.165 439.623 189.002 446.787 189.002 455.623L189 657"
    stroke="#CFCABF"
    stroke-width="2"
  />
  <path
    d="M605 410V484.816C605 493.653 597.837 500.816 589 500.816H498C489.163 500.816 482 507.98 482 516.816L482 657"
    stroke="#CFCABF"
    stroke-width="2"
  />
  <path
    d="M926 409V487.381C926 496.217 918.837 503.381 910 503.381H776C767.163 503.381 760 510.544 760 519.381V657"
    stroke="#CFCABF"
    stroke-width="2"
  />
  <path
    d="M739 409V447.091C739 455.927 746.163 463.091 755 463.091H851C859.837 463.091 867 470.254 867 479.091V657"
    stroke="#CFCABF"
    stroke-width="2"
  />
  <rect x="957" y="546" width="57" height="30" rx="15" fill="#00342C" />
  <rect x="957" y="546" width="57" height="30" rx="15" stroke="#CFCABF" stroke-width="2" />
  <path
    d="M969.011 566V555.99H973.281C975.339 555.99 976.669 557.04 976.669 558.86C976.669 560.26 975.955 561.072 974.807 561.352V561.38C977.117 561.814 976.277 565.734 976.809 565.902V566H975.059C974.597 565.58 975.535 562.136 973.127 562.136H970.677V566H969.011ZM970.677 557.404V560.708H972.931C973.953 560.708 975.017 560.512 975.017 559.056C975.017 557.614 973.953 557.404 972.931 557.404H970.677ZM979.701 560.12H984.587V561.548H979.701V564.586H985.413V566H978.035V555.99H985.273V557.404H979.701V560.12ZM990.456 560.036C992.598 560.582 994.222 561.044 994.222 563.284C994.222 564.88 993.018 566.21 990.498 566.21C988.048 566.21 986.186 564.936 986.088 562.668H987.754C987.838 563.942 988.706 564.782 990.498 564.782C991.982 564.782 992.556 564.124 992.556 563.354C992.556 562.164 991.702 561.94 989.728 561.45C988.16 561.058 986.466 560.456 986.466 558.552C986.466 556.774 987.838 555.78 990.022 555.78C992.22 555.78 993.816 556.928 993.956 558.986H992.29C992.136 557.824 991.408 557.208 990.022 557.208C988.832 557.208 988.118 557.656 988.118 558.398C988.118 559.49 989.056 559.686 990.456 560.036ZM997.702 566V557.404H994.496V555.99H1002.56V557.404H999.368V566H997.702Z"
    fill="#E9E5DA"
  />
  <rect x="56" y="546" width="57" height="30" rx="15" fill="#00342C" />
  <rect x="56" y="546" width="57" height="30" rx="15" stroke="#CFCABF" stroke-width="2" />
  <path
    d="M68.0112 566V555.99H72.2812C74.3392 555.99 75.6692 557.04 75.6692 558.86C75.6692 560.26 74.9552 561.072 73.8072 561.352V561.38C76.1172 561.814 75.2772 565.734 75.8092 565.902V566H74.0592C73.5972 565.58 74.5352 562.136 72.1272 562.136H69.6772V566H68.0112ZM69.6772 557.404V560.708H71.9312C72.9532 560.708 74.0172 560.512 74.0172 559.056C74.0172 557.614 72.9532 557.404 71.9312 557.404H69.6772ZM78.7007 560.12H83.5867V561.548H78.7007V564.586H84.4127V566H77.0347V555.99H84.2727V557.404H78.7007V560.12ZM89.4556 560.036C91.5976 560.582 93.2216 561.044 93.2216 563.284C93.2216 564.88 92.0176 566.21 89.4976 566.21C87.0476 566.21 85.1856 564.936 85.0876 562.668H86.7536C86.8376 563.942 87.7056 564.782 89.4976 564.782C90.9816 564.782 91.5556 564.124 91.5556 563.354C91.5556 562.164 90.7016 561.94 88.7276 561.45C87.1596 561.058 85.4656 560.456 85.4656 558.552C85.4656 556.774 86.8376 555.78 89.0216 555.78C91.2196 555.78 92.8156 556.928 92.9556 558.986H91.2896C91.1356 557.824 90.4076 557.208 89.0216 557.208C87.8316 557.208 87.1176 557.656 87.1176 558.398C87.1176 559.49 88.0556 559.686 89.4556 560.036ZM96.7018 566V557.404H93.4958V555.99H101.56V557.404H98.3678V566H96.7018Z"
    fill="#E9E5DA"
  />
  <rect x="375" y="546" width="57" height="30" rx="15" fill="#00342C" />
  <rect x="375" y="546" width="57" height="30" rx="15" stroke="#CFCABF" stroke-width="2" />
  <path
    d="M387.011 566V555.99H391.281C393.339 555.99 394.669 557.04 394.669 558.86C394.669 560.26 393.955 561.072 392.807 561.352V561.38C395.117 561.814 394.277 565.734 394.809 565.902V566H393.059C392.597 565.58 393.535 562.136 391.127 562.136H388.677V566H387.011ZM388.677 557.404V560.708H390.931C391.953 560.708 393.017 560.512 393.017 559.056C393.017 557.614 391.953 557.404 390.931 557.404H388.677ZM397.701 560.12H402.587V561.548H397.701V564.586H403.413V566H396.035V555.99H403.273V557.404H397.701V560.12ZM408.456 560.036C410.598 560.582 412.222 561.044 412.222 563.284C412.222 564.88 411.018 566.21 408.498 566.21C406.048 566.21 404.186 564.936 404.088 562.668H405.754C405.838 563.942 406.706 564.782 408.498 564.782C409.982 564.782 410.556 564.124 410.556 563.354C410.556 562.164 409.702 561.94 407.728 561.45C406.16 561.058 404.466 560.456 404.466 558.552C404.466 556.774 405.838 555.78 408.022 555.78C410.22 555.78 411.816 556.928 411.956 558.986H410.29C410.136 557.824 409.408 557.208 408.022 557.208C406.832 557.208 406.118 557.656 406.118 558.398C406.118 559.49 407.056 559.686 408.456 560.036ZM415.702 566V557.404H412.496V555.99H420.56V557.404H417.368V566H415.702Z"
    fill="#E9E5DA"
  />
  <rect x="160" y="546" width="57" height="30" rx="15" fill="#00342C" />
  <rect x="160" y="546" width="57" height="30" rx="15" stroke="#CFCABF" stroke-width="2" />
  <path
    d="M172.011 566V555.99H176.281C178.339 555.99 179.669 557.04 179.669 558.86C179.669 560.26 178.955 561.072 177.807 561.352V561.38C180.117 561.814 179.277 565.734 179.809 565.902V566H178.059C177.597 565.58 178.535 562.136 176.127 562.136H173.677V566H172.011ZM173.677 557.404V560.708H175.931C176.953 560.708 178.017 560.512 178.017 559.056C178.017 557.614 176.953 557.404 175.931 557.404H173.677ZM182.701 560.12H187.587V561.548H182.701V564.586H188.413V566H181.035V555.99H188.273V557.404H182.701V560.12ZM193.456 560.036C195.598 560.582 197.222 561.044 197.222 563.284C197.222 564.88 196.018 566.21 193.498 566.21C191.048 566.21 189.186 564.936 189.088 562.668H190.754C190.838 563.942 191.706 564.782 193.498 564.782C194.982 564.782 195.556 564.124 195.556 563.354C195.556 562.164 194.702 561.94 192.728 561.45C191.16 561.058 189.466 560.456 189.466 558.552C189.466 556.774 190.838 555.78 193.022 555.78C195.22 555.78 196.816 556.928 196.956 558.986H195.29C195.136 557.824 194.408 557.208 193.022 557.208C191.832 557.208 191.118 557.656 191.118 558.398C191.118 559.49 192.056 559.686 193.456 560.036ZM200.702 566V557.404H197.496V555.99H205.56V557.404H202.368V566H200.702Z"
    fill="#E9E5DA"
  />
  <rect x="453" y="546" width="57" height="30" rx="15" fill="#00342C" />
  <rect x="453" y="546" width="57" height="30" rx="15" stroke="#CFCABF" stroke-width="2" />
  <path
    d="M465.011 566V555.99H469.281C471.339 555.99 472.669 557.04 472.669 558.86C472.669 560.26 471.955 561.072 470.807 561.352V561.38C473.117 561.814 472.277 565.734 472.809 565.902V566H471.059C470.597 565.58 471.535 562.136 469.127 562.136H466.677V566H465.011ZM466.677 557.404V560.708H468.931C469.953 560.708 471.017 560.512 471.017 559.056C471.017 557.614 469.953 557.404 468.931 557.404H466.677ZM475.701 560.12H480.587V561.548H475.701V564.586H481.413V566H474.035V555.99H481.273V557.404H475.701V560.12ZM486.456 560.036C488.598 560.582 490.222 561.044 490.222 563.284C490.222 564.88 489.018 566.21 486.498 566.21C484.048 566.21 482.186 564.936 482.088 562.668H483.754C483.838 563.942 484.706 564.782 486.498 564.782C487.982 564.782 488.556 564.124 488.556 563.354C488.556 562.164 487.702 561.94 485.728 561.45C484.16 561.058 482.466 560.456 482.466 558.552C482.466 556.774 483.838 555.78 486.022 555.78C488.22 555.78 489.816 556.928 489.956 558.986H488.29C488.136 557.824 487.408 557.208 486.022 557.208C484.832 557.208 484.118 557.656 484.118 558.398C484.118 559.49 485.056 559.686 486.456 560.036ZM493.702 566V557.404H490.496V555.99H498.56V557.404H495.368V566H493.702Z"
    fill="#E9E5DA"
  />
  <rect x="671" y="547" width="53" height="28" rx="14" fill="#00342C" />
  <rect x="671" y="547" width="53" height="28" rx="14" stroke="#CFCABF" stroke-width="2" />
  <path
    d="M681.011 566V555.99H685.281C687.339 555.99 688.669 557.04 688.669 558.86C688.669 560.26 687.955 561.072 686.807 561.352V561.38C689.117 561.814 688.277 565.734 688.809 565.902V566H687.059C686.597 565.58 687.535 562.136 685.127 562.136H682.677V566H681.011ZM682.677 557.404V560.708H684.931C685.953 560.708 687.017 560.512 687.017 559.056C687.017 557.614 685.953 557.404 684.931 557.404H682.677ZM691.701 560.12H696.587V561.548H691.701V564.586H697.413V566H690.035V555.99H697.273V557.404H691.701V560.12ZM702.456 560.036C704.598 560.582 706.222 561.044 706.222 563.284C706.222 564.88 705.018 566.21 702.498 566.21C700.048 566.21 698.186 564.936 698.088 562.668H699.754C699.838 563.942 700.706 564.782 702.498 564.782C703.982 564.782 704.556 564.124 704.556 563.354C704.556 562.164 703.702 561.94 701.728 561.45C700.16 561.058 698.466 560.456 698.466 558.552C698.466 556.774 699.838 555.78 702.022 555.78C704.22 555.78 705.816 556.928 705.956 558.986H704.29C704.136 557.824 703.408 557.208 702.022 557.208C700.832 557.208 700.118 557.656 700.118 558.398C700.118 559.49 701.056 559.686 702.456 560.036ZM709.702 566V557.404H706.496V555.99H714.56V557.404H711.368V566H709.702Z"
    fill="#E9E5DA"
  />
  <rect x="734" y="547" width="53" height="28" rx="14" fill="#00342C" />
  <rect x="734" y="547" width="53" height="28" rx="14" stroke="#CFCABF" stroke-width="2" />
  <path
    d="M744.011 566V555.99H748.281C750.339 555.99 751.669 557.04 751.669 558.86C751.669 560.26 750.955 561.072 749.807 561.352V561.38C752.117 561.814 751.277 565.734 751.809 565.902V566H750.059C749.597 565.58 750.535 562.136 748.127 562.136H745.677V566H744.011ZM745.677 557.404V560.708H747.931C748.953 560.708 750.017 560.512 750.017 559.056C750.017 557.614 748.953 557.404 747.931 557.404H745.677ZM754.701 560.12H759.587V561.548H754.701V564.586H760.413V566H753.035V555.99H760.273V557.404H754.701V560.12ZM765.456 560.036C767.598 560.582 769.222 561.044 769.222 563.284C769.222 564.88 768.018 566.21 765.498 566.21C763.048 566.21 761.186 564.936 761.088 562.668H762.754C762.838 563.942 763.706 564.782 765.498 564.782C766.982 564.782 767.556 564.124 767.556 563.354C767.556 562.164 766.702 561.94 764.728 561.45C763.16 561.058 761.466 560.456 761.466 558.552C761.466 556.774 762.838 555.78 765.022 555.78C767.22 555.78 768.816 556.928 768.956 558.986H767.29C767.136 557.824 766.408 557.208 765.022 557.208C763.832 557.208 763.118 557.656 763.118 558.398C763.118 559.49 764.056 559.686 765.456 560.036ZM772.702 566V557.404H769.496V555.99H777.56V557.404H774.368V566H772.702Z"
    fill="#E9E5DA"
  />
  <rect x="838" y="546" width="57" height="30" rx="15" fill="#00342C" />
  <rect x="838" y="546" width="57" height="30" rx="15" stroke="#CFCABF" stroke-width="2" />
  <path
    d="M850.011 566V555.99H854.281C856.339 555.99 857.669 557.04 857.669 558.86C857.669 560.26 856.955 561.072 855.807 561.352V561.38C858.117 561.814 857.277 565.734 857.809 565.902V566H856.059C855.597 565.58 856.535 562.136 854.127 562.136H851.677V566H850.011ZM851.677 557.404V560.708H853.931C854.953 560.708 856.017 560.512 856.017 559.056C856.017 557.614 854.953 557.404 853.931 557.404H851.677ZM860.701 560.12H865.587V561.548H860.701V564.586H866.413V566H859.035V555.99H866.273V557.404H860.701V560.12ZM871.456 560.036C873.598 560.582 875.222 561.044 875.222 563.284C875.222 564.88 874.018 566.21 871.498 566.21C869.048 566.21 867.186 564.936 867.088 562.668H868.754C868.838 563.942 869.706 564.782 871.498 564.782C872.982 564.782 873.556 564.124 873.556 563.354C873.556 562.164 872.702 561.94 870.728 561.45C869.16 561.058 867.466 560.456 867.466 558.552C867.466 556.774 868.838 555.78 871.022 555.78C873.22 555.78 874.816 556.928 874.956 558.986H873.29C873.136 557.824 872.408 557.208 871.022 557.208C869.832 557.208 869.118 557.656 869.118 558.398C869.118 559.49 870.056 559.686 871.456 560.036ZM878.702 566V557.404H875.496V555.99H883.56V557.404H880.368V566H878.702Z"
    fill="#E9E5DA"
  />
  <rect x="298" y="546" width="57" height="30" rx="15" fill="#00342C" />
  <rect x="298" y="546" width="57" height="30" rx="15" stroke="#CFCABF" stroke-width="2" />
  <path
    d="M310.011 566V555.99H314.281C316.339 555.99 317.669 557.04 317.669 558.86C317.669 560.26 316.955 561.072 315.807 561.352V561.38C318.117 561.814 317.277 565.734 317.809 565.902V566H316.059C315.597 565.58 316.535 562.136 314.127 562.136H311.677V566H310.011ZM311.677 557.404V560.708H313.931C314.953 560.708 316.017 560.512 316.017 559.056C316.017 557.614 314.953 557.404 313.931 557.404H311.677ZM320.701 560.12H325.587V561.548H320.701V564.586H326.413V566H319.035V555.99H326.273V557.404H320.701V560.12ZM331.456 560.036C333.598 560.582 335.222 561.044 335.222 563.284C335.222 564.88 334.018 566.21 331.498 566.21C329.048 566.21 327.186 564.936 327.088 562.668H328.754C328.838 563.942 329.706 564.782 331.498 564.782C332.982 564.782 333.556 564.124 333.556 563.354C333.556 562.164 332.702 561.94 330.728 561.45C329.16 561.058 327.466 560.456 327.466 558.552C327.466 556.774 328.838 555.78 331.022 555.78C333.22 555.78 334.816 556.928 334.956 558.986H333.29C333.136 557.824 332.408 557.208 331.022 557.208C329.832 557.208 329.118 557.656 329.118 558.398C329.118 559.49 330.056 559.686 331.456 560.036ZM338.702 566V557.404H335.496V555.99H343.56V557.404H340.368V566H338.702Z"
    fill="#E9E5DA"
  />
  <rect x="608" y="547" width="53" height="28" rx="14" fill="#00342C" />
  <rect x="608" y="547" width="53" height="28" rx="14" stroke="#CFCABF" stroke-width="2" />
  <path
    d="M618.011 566V555.99H622.281C624.339 555.99 625.669 557.04 625.669 558.86C625.669 560.26 624.955 561.072 623.807 561.352V561.38C626.117 561.814 625.277 565.734 625.809 565.902V566H624.059C623.597 565.58 624.535 562.136 622.127 562.136H619.677V566H618.011ZM619.677 557.404V560.708H621.931C622.953 560.708 624.017 560.512 624.017 559.056C624.017 557.614 622.953 557.404 621.931 557.404H619.677ZM628.701 560.12H633.587V561.548H628.701V564.586H634.413V566H627.035V555.99H634.273V557.404H628.701V560.12ZM639.456 560.036C641.598 560.582 643.222 561.044 643.222 563.284C643.222 564.88 642.018 566.21 639.498 566.21C637.048 566.21 635.186 564.936 635.088 562.668H636.754C636.838 563.942 637.706 564.782 639.498 564.782C640.982 564.782 641.556 564.124 641.556 563.354C641.556 562.164 640.702 561.94 638.728 561.45C637.16 561.058 635.466 560.456 635.466 558.552C635.466 556.774 636.838 555.78 639.022 555.78C641.22 555.78 642.816 556.928 642.956 558.986H641.29C641.136 557.824 640.408 557.208 639.022 557.208C637.832 557.208 637.118 557.656 637.118 558.398C637.118 559.49 638.056 559.686 639.456 560.036ZM646.702 566V557.404H643.496V555.99H651.56V557.404H648.368V566H646.702Z"
    fill="#E9E5DA"
  />
  <rect x="545" y="547" width="53" height="28" rx="14" fill="#00342C" />
  <rect x="545" y="547" width="53" height="28" rx="14" stroke="#CFCABF" stroke-width="2" />
  <path
    d="M555.011 566V555.99H559.281C561.339 555.99 562.669 557.04 562.669 558.86C562.669 560.26 561.955 561.072 560.807 561.352V561.38C563.117 561.814 562.277 565.734 562.809 565.902V566H561.059C560.597 565.58 561.535 562.136 559.127 562.136H556.677V566H555.011ZM556.677 557.404V560.708H558.931C559.953 560.708 561.017 560.512 561.017 559.056C561.017 557.614 559.953 557.404 558.931 557.404H556.677ZM565.701 560.12H570.587V561.548H565.701V564.586H571.413V566H564.035V555.99H571.273V557.404H565.701V560.12ZM576.456 560.036C578.598 560.582 580.222 561.044 580.222 563.284C580.222 564.88 579.018 566.21 576.498 566.21C574.048 566.21 572.186 564.936 572.088 562.668H573.754C573.838 563.942 574.706 564.782 576.498 564.782C577.982 564.782 578.556 564.124 578.556 563.354C578.556 562.164 577.702 561.94 575.728 561.45C574.16 561.058 572.466 560.456 572.466 558.552C572.466 556.774 573.838 555.78 576.022 555.78C578.22 555.78 579.816 556.928 579.956 558.986H578.29C578.136 557.824 577.408 557.208 576.022 557.208C574.832 557.208 574.118 557.656 574.118 558.398C574.118 559.49 575.056 559.686 576.456 560.036ZM583.702 566V557.404H580.496V555.99H588.56V557.404H585.368V566H583.702Z"
    fill="#E9E5DA"
  />
  <defs>
    <linearGradient
      id="paint0_linear_2522_2311"
      x1="16"
      y1="64"
      x2="62.4063"
      y2="209.165"
      gradientUnits="userSpaceOnUse"
    >
      <stop stop-color="white" stop-opacity="0.2" />
      <stop offset="1" stop-color="white" stop-opacity="0.3" />
    </linearGradient>
    <linearGradient
      id="paint1_linear_2522_2311"
      x1="278.25"
      y1="64"
      x2="324.656"
      y2="209.165"
      gradientUnits="userSpaceOnUse"
    >
      <stop stop-color="white" stop-opacity="0.2" />
      <stop offset="1" stop-color="white" stop-opacity="0.3" />
    </linearGradient>
    <linearGradient
      id="paint2_linear_2522_2311"
      x1="540.5"
      y1="64"
      x2="586.906"
      y2="209.165"
      gradientUnits="userSpaceOnUse"
    >
      <stop stop-color="white" stop-opacity="0.2" />
      <stop offset="1" stop-color="white" stop-opacity="0.3" />
    </linearGradient>
    <linearGradient
      id="paint3_linear_2522_2311"
      x1="802.75"
      y1="64"
      x2="849.156"
      y2="209.165"
      gradientUnits="userSpaceOnUse"
    >
      <stop stop-color="white" stop-opacity="0.2" />
      <stop offset="1" stop-color="white" stop-opacity="0.3" />
    </linearGradient>
    <linearGradient
      id="paint4_linear_2522_2311"
      x1="16"
      y1="329"
      x2="62.4063"
      y2="474.165"
      gradientUnits="userSpaceOnUse"
    >
      <stop stop-color="white" stop-opacity="0.2" />
      <stop offset="1" stop-color="white" stop-opacity="0.3" />
    </linearGradient>
    <linearGradient
      id="paint5_linear_2522_2311"
      x1="278.25"
      y1="329"
      x2="324.656"
      y2="474.165"
      gradientUnits="userSpaceOnUse"
    >
      <stop stop-color="white" stop-opacity="0.2" />
      <stop offset="1" stop-color="white" stop-opacity="0.3" />
    </linearGradient>
    <linearGradient
      id="paint6_linear_2522_2311"
      x1="540.5"
      y1="329"
      x2="586.906"
      y2="474.165"
      gradientUnits="userSpaceOnUse"
    >
      <stop stop-color="white" stop-opacity="0.2" />
      <stop offset="1" stop-color="white" stop-opacity="0.3" />
    </linearGradient>
    <linearGradient
      id="paint7_linear_2522_2311"
      x1="802.75"
      y1="329"
      x2="849.156"
      y2="474.165"
      gradientUnits="userSpaceOnUse"
    >
      <stop stop-color="white" stop-opacity="0.2" />
      <stop offset="1" stop-color="white" stop-opacity="0.3" />
    </linearGradient>
    <linearGradient
      id="paint8_linear_2522_2311"
      x1="16"
      y1="657"
      x2="62.4063"
      y2="802.165"
      gradientUnits="userSpaceOnUse"
    >
      <stop stop-color="white" stop-opacity="0.2" />
      <stop offset="1" stop-color="white" stop-opacity="0.3" />
    </linearGradient>
    <linearGradient
      id="paint9_linear_2522_2311"
      x1="278.25"
      y1="657"
      x2="324.656"
      y2="802.165"
      gradientUnits="userSpaceOnUse"
    >
      <stop stop-color="white" stop-opacity="0.2" />
      <stop offset="1" stop-color="white" stop-opacity="0.3" />
    </linearGradient>
    <linearGradient
      id="paint10_linear_2522_2311"
      x1="540.5"
      y1="657"
      x2="586.906"
      y2="802.165"
      gradientUnits="userSpaceOnUse"
    >
      <stop stop-color="white" stop-opacity="0.2" />
      <stop offset="1" stop-color="white" stop-opacity="0.3" />
    </linearGradient>
    <linearGradient
      id="paint11_linear_2522_2311"
      x1="802.75"
      y1="657"
      x2="849.156"
      y2="802.165"
      gradientUnits="userSpaceOnUse"
    >
      <stop stop-color="white" stop-opacity="0.2" />
      <stop offset="1" stop-color="white" stop-opacity="0.3" />
    </linearGradient>
  </defs>
</svg>
